{"glyphs":{"0":{"ha":417,"x_min":18,"x_max":407,"o":"m 119 128 q 104 126 114 126 q 60 143 78 126 q 32 186 42 160 q 26 281 18 229 q 56 385 33 332 q 108 488 78 438 q 171 580 139 539 q 231 649 203 621 q 274 686 258 678 q 283 688 276 688 q 293 685 290 688 q 303 682 296 682 q 364 657 335 681 q 400 582 393 633 q 397 498 407 544 q 367 403 388 451 q 318 308 347 354 q 256 223 289 261 q 187 159 222 185 q 119 128 151 133 m 122 156 q 182 189 150 163 q 244 253 214 215 q 302 335 275 290 q 347 426 329 381 q 372 515 365 472 q 371 592 379 558 q 342 639 363 624 q 303 654 322 654 q 271 643 285 654 q 265 640 267 640 q 261 640 263 640 q 257 637 260 639 q 247 628 254 635 q 122 460 167 544 q 60 307 76 375 q 57 196 44 239 q 106 153 69 153 q 122 156 111 153 z "},"1":{"ha":260,"x_min":6,"x_max":304,"o":"m 200 613 q 186 626 182 611 q 206 660 190 642 q 244 694 222 679 q 279 710 265 710 q 288 707 282 710 q 294 667 304 697 q 256 588 283 638 q 192 472 229 539 q 114 321 154 406 q 96 280 110 310 q 68 217 82 250 q 44 156 54 183 q 39 121 35 128 q 38 108 43 114 q 25 101 32 101 q 12 109 18 101 q 10 136 6 117 q 42 226 15 163 q 107 368 68 289 q 154 459 128 411 q 204 550 181 507 q 246 627 228 593 q 268 676 264 661 q 235 651 246 663 q 218 631 224 639 q 209 617 213 622 q 200 613 206 613 z "},"2":{"ha":450,"x_min":-12,"x_max":471,"o":"m 253 163 q 225 156 247 160 q 174 149 203 153 q 115 143 144 146 q 64 140 85 140 q 42 142 47 140 q 28 144 35 142 q 6 157 15 147 q 9 204 -12 176 q 74 265 31 232 q 173 338 117 299 q 283 419 229 376 q 381 509 338 463 q 439 603 424 556 q 431 656 450 639 q 371 672 411 672 q 285 658 324 672 q 218 626 246 644 q 175 591 190 608 q 160 565 160 574 q 156 555 160 558 q 147 551 151 551 q 133 565 135 551 q 145 596 132 576 q 185 635 158 615 q 249 674 211 656 q 336 699 288 692 q 355 701 346 700 q 372 701 364 701 q 442 685 413 701 q 471 629 471 669 q 445 551 471 592 q 380 471 419 511 q 291 392 340 431 q 194 320 242 354 q 108 257 147 286 q 46 207 68 228 q 27 176 22 183 q 69 168 32 168 q 108 170 85 168 q 158 175 132 172 q 206 181 183 178 q 239 186 228 183 q 244 188 243 188 q 249 189 246 189 q 250 188 250 189 q 251 188 250 188 q 261 175 261 183 q 253 163 261 167 z "},"3":{"ha":476,"x_min":-51,"x_max":479,"o":"m -19 203 q -17 194 -21 200 q 31 181 -3 181 q 106 191 63 181 q 193 217 150 201 q 272 248 236 232 q 324 275 307 264 q 365 319 363 300 q 326 360 367 339 q 279 378 304 371 q 231 390 254 385 q 188 398 207 394 q 157 406 168 401 q 135 424 139 411 q 146 447 132 436 q 181 470 156 456 q 238 503 206 485 q 307 540 271 521 q 373 576 343 558 q 424 610 403 594 q 449 635 446 625 q 426 649 451 644 q 364 653 401 653 q 303 650 335 653 q 243 642 271 647 q 197 630 215 638 q 176 611 179 622 q 163 600 174 600 q 151 606 156 600 q 156 635 140 621 q 204 659 172 649 q 278 676 236 669 q 358 682 319 682 q 443 671 407 682 q 476 635 479 660 q 415 571 474 606 q 256 482 357 536 q 233 469 249 478 q 203 453 218 461 q 178 438 189 444 q 171 429 168 431 q 215 420 179 426 q 290 402 250 414 q 360 371 329 390 q 392 321 392 351 q 370 278 392 299 q 315 238 349 257 q 239 204 281 219 q 157 178 197 189 q 83 160 117 167 q 29 154 49 154 q -18 163 7 154 q -49 196 -43 171 q -45 215 -51 207 q -31 222 -39 222 l -28 222 q -19 203 -14 218 z "},"4":{"ha":417,"x_min":32,"x_max":493,"o":"m 221 329 q 210 325 221 331 q 184 313 200 319 q 147 300 168 306 q 104 294 126 294 l 101 294 q 42 321 51 294 q 47 388 32 347 q 92 475 63 428 q 151 564 122 522 q 197 635 181 610 q 221 672 213 660 q 231 685 229 683 q 235 688 233 688 q 247 678 244 688 q 238 649 250 671 q 205 596 225 626 q 161 530 185 565 q 116 460 138 494 q 80 394 94 425 q 65 344 65 364 q 74 327 64 333 q 100 321 83 321 q 163 335 125 321 q 239 374 200 349 q 258 403 243 376 q 292 467 272 429 q 337 550 313 506 q 385 633 361 594 q 431 697 410 671 q 464 725 451 724 l 468 725 q 488 686 493 725 q 456 591 483 647 q 383 474 429 535 q 278 368 336 413 q 269 361 272 364 q 260 347 267 358 q 239 306 253 335 q 197 221 225 278 q 169 160 179 183 q 153 124 158 138 q 144 107 147 111 q 138 103 142 103 q 135 103 136 103 q 133 104 135 104 q 124 125 118 108 q 139 164 129 142 q 161 211 147 183 q 189 265 175 239 q 221 329 204 296 m 301 428 q 301 425 301 426 q 300 422 300 424 l 299 421 q 313 433 300 421 q 389 528 360 482 q 435 611 418 575 q 457 669 451 647 q 460 692 463 692 q 436 663 456 692 q 393 592 417 633 q 344 505 369 550 q 301 428 318 460 z "},"5":{"ha":411,"x_min":-12,"x_max":450,"o":"m 3 161 q -10 172 -8 165 q -6 185 -12 179 q 3 189 -1 189 q 13 186 4 189 q 31 182 19 183 q 65 181 42 181 q 168 201 119 181 q 252 249 217 222 q 307 299 288 275 q 321 329 326 324 q 288 341 314 336 q 208 351 261 346 q 167 355 189 353 q 127 361 146 357 q 94 373 108 365 q 74 394 81 381 q 73 433 65 410 q 98 484 81 456 q 142 546 115 513 q 197 617 168 579 q 226 653 214 638 q 236 668 238 668 q 224 667 236 669 q 206 661 213 664 q 194 658 197 658 q 185 663 189 658 q 182 672 182 668 q 201 689 182 683 q 247 698 221 694 q 297 702 272 701 q 331 703 321 703 q 410 696 385 703 q 442 680 435 689 q 445 664 450 671 q 433 657 440 657 q 426 658 428 657 q 419 664 422 663 q 383 674 410 671 q 329 676 357 676 q 297 676 313 676 q 275 674 282 675 q 222 606 253 644 q 163 531 190 568 q 117 462 136 493 q 97 414 97 431 q 119 393 97 400 q 172 382 140 386 q 238 375 203 378 q 301 366 274 372 q 343 347 329 360 q 346 310 357 333 q 308 260 336 288 q 242 209 281 233 q 156 168 203 185 q 58 151 108 151 q 47 152 53 151 q 36 153 42 153 q 15 157 22 156 q 3 161 8 158 z "},"6":{"ha":382,"x_min":-51,"x_max":360,"o":"m 343 725 q 357 700 360 719 q 343 686 354 686 q 332 693 336 686 q 329 697 331 697 q 301 678 321 697 q 261 636 282 660 q 223 591 240 613 q 200 563 206 569 q 135 463 161 510 q 93 382 108 417 q 64 308 75 342 q 69 313 67 310 l 81 324 q 190 406 133 376 q 285 436 246 436 q 321 423 308 436 q 329 382 333 410 q 297 311 325 354 q 229 227 268 268 q 147 156 190 186 q 72 126 104 126 q 28 156 43 126 q 26 161 26 158 q 24 169 25 164 q 21 184 22 175 q 17 210 19 193 q -7 177 1 190 q -20 156 -15 164 q -28 145 -25 149 q -35 142 -31 142 q -40 143 -37 142 q -48 158 -51 147 q -34 186 -44 169 q -8 222 -24 203 q 24 261 8 242 q 87 429 44 346 q 177 578 129 513 q 269 685 225 644 q 336 726 314 726 q 343 725 342 726 m 299 406 q 285 410 297 410 q 235 398 268 410 q 160 356 203 386 q 103 308 126 332 q 49 249 81 283 q 46 224 47 239 q 46 195 44 210 q 51 169 47 181 q 64 156 56 158 l 82 156 q 127 176 101 160 q 180 217 153 193 q 232 270 207 242 q 275 326 257 299 q 300 374 293 353 q 299 406 307 396 z "},"7":{"ha":407,"x_min":17,"x_max":458,"o":"m 19 324 q 48 348 22 336 q 106 370 74 360 q 169 388 139 381 q 211 396 200 394 q 302 500 260 454 q 375 579 344 546 q 419 634 406 613 q 421 665 432 656 q 382 677 410 674 q 318 681 354 681 q 259 678 289 681 q 204 673 229 676 q 163 665 179 669 q 146 656 147 660 q 133 644 144 644 q 119 654 125 644 q 125 676 113 664 q 178 699 138 689 q 301 708 218 708 l 313 708 q 369 706 340 708 q 419 697 399 704 q 449 674 440 689 q 446 631 458 658 q 424 599 440 619 q 387 553 408 578 q 342 503 365 529 q 299 456 319 478 q 266 418 279 433 q 251 400 253 403 q 263 400 251 399 q 290 401 275 401 q 326 397 308 401 q 353 379 344 393 q 356 360 358 371 q 343 349 354 349 q 334 352 338 349 q 331 358 331 356 q 308 372 331 368 l 292 372 q 261 372 278 372 q 235 371 244 372 q 222 365 225 369 q 147 268 175 306 q 103 209 118 231 q 85 178 89 188 q 81 165 81 168 q 81 160 81 161 q 78 156 82 160 q 67 151 74 151 q 55 160 60 151 q 57 185 50 168 q 86 231 65 201 q 128 290 107 261 q 167 341 150 319 q 185 363 185 363 q 165 359 183 364 q 122 347 146 354 q 75 331 99 340 q 40 311 51 321 q 31 307 36 307 q 21 312 25 307 q 19 324 17 317 z "},"8":{"ha":415,"x_min":4,"x_max":449,"o":"m 154 444 q 140 481 146 461 q 142 524 133 500 q 178 579 150 551 q 241 630 206 607 q 314 667 276 653 q 379 682 351 682 q 444 639 436 682 q 431 586 449 615 q 379 508 413 557 q 334 444 350 467 q 311 410 318 421 q 302 397 304 399 q 299 393 300 394 q 290 390 293 390 q 278 401 281 390 q 278 408 278 404 q 285 422 279 413 q 304 449 292 431 q 339 499 317 467 q 381 557 360 529 q 411 606 401 585 q 416 640 421 626 q 382 654 411 653 l 376 654 q 310 638 346 654 q 242 597 274 621 q 190 549 211 574 q 165 506 168 524 q 183 450 161 475 q 228 406 204 425 q 260 376 242 393 q 295 339 279 358 q 322 299 311 319 q 333 260 333 279 q 317 218 332 236 q 280 188 303 200 q 228 170 257 176 q 169 164 199 164 q 75 181 119 164 q 17 233 31 199 q 33 321 4 268 q 154 444 61 374 m 213 382 q 176 417 182 410 q 168 421 171 424 q 98 359 131 390 q 50 299 65 328 q 43 244 35 269 q 96 203 51 219 q 129 194 111 196 q 165 192 147 192 q 217 197 192 192 q 261 210 242 201 q 293 233 281 219 q 306 261 306 246 q 295 292 306 275 q 270 326 285 310 q 240 358 256 343 q 213 382 224 372 z "},"9":{"ha":400,"x_min":49,"x_max":492,"o":"m 346 576 q 258 504 299 538 q 183 447 217 471 q 124 408 150 422 q 82 396 99 394 q 51 435 49 399 q 83 517 54 471 q 161 607 113 563 q 267 671 210 651 q 307 678 290 678 q 341 667 326 678 q 358 632 356 657 l 360 622 q 406 659 388 644 q 435 683 424 674 q 454 695 447 692 q 467 699 461 699 q 474 697 471 699 q 474 663 492 688 q 421 590 457 639 q 324 453 374 528 q 234 310 275 378 q 166 194 193 243 q 139 135 139 146 q 125 119 139 119 q 113 129 118 119 q 117 158 108 139 q 147 217 122 172 q 209 324 171 261 q 297 460 247 386 q 400 607 346 535 q 421 636 422 636 q 403 622 419 636 q 346 576 386 608 m 329 601 q 331 621 329 608 q 328 640 332 633 q 307 650 324 650 q 260 638 289 650 q 199 602 231 625 q 140 548 168 579 q 92 478 111 517 q 81 444 83 458 q 82 424 78 429 q 86 422 83 422 q 125 440 97 422 q 182 480 153 458 q 235 521 211 501 q 264 544 260 540 q 305 578 292 567 q 324 593 318 589 q 329 599 329 597 q 329 601 329 600 z "},"\u0000":{"ha":0,"x_min":0,"x_max":0,"o":""},"\r":{"ha":347,"x_min":0,"x_max":0,"o":""}," ":{"ha":210,"x_min":0,"x_max":0,"o":""},"!":{"ha":243,"x_min":-31,"x_max":349,"o":"m 15 128 q 6 151 3 135 q 14 181 10 168 q 33 231 19 197 q 67 310 47 265 q 110 406 86 354 q 160 510 135 458 q 210 609 185 561 q 257 694 235 657 q 266 710 264 706 q 269 717 268 715 q 272 722 271 719 q 278 732 272 725 q 306 774 293 751 q 332 797 319 796 q 344 790 339 797 q 342 772 349 783 q 326 748 333 758 q 305 718 318 738 q 272 664 292 699 q 218 565 251 629 q 198 524 214 556 q 161 449 182 492 q 118 356 140 406 q 76 263 96 307 q 45 188 57 219 q 33 144 33 156 q 22 125 36 125 q 15 128 21 125 m -4 58 q -12 52 -10 53 q -22 51 -15 51 q -31 68 -31 54 q -25 85 -31 81 q -12 90 -19 90 q 5 81 -1 90 q -4 58 11 72 z "},"\"":{"ha":276,"x_min":169,"x_max":282,"o":"m 203 771 q 208 783 206 781 q 213 788 210 785 q 219 789 215 789 q 225 788 222 789 q 231 769 233 783 q 221 740 229 756 q 201 713 213 725 q 182 701 190 701 q 171 711 175 701 q 172 720 169 717 q 181 730 175 724 q 192 745 186 736 q 203 771 199 754 m 226 693 q 218 708 217 699 q 225 719 219 711 q 247 761 242 739 q 258 789 253 783 q 268 793 263 793 q 278 788 274 793 q 279 772 282 782 q 272 750 278 764 q 260 723 267 736 q 247 701 254 710 q 231 692 239 692 q 228 692 229 692 q 226 693 228 693 z "},"#":{"ha":306,"x_min":13,"x_max":290,"o":"m 90 363 q 85 356 89 363 q 76 339 81 349 q 69 320 72 329 q 65 307 65 311 q 53 290 68 290 q 39 299 46 290 q 38 315 36 306 q 44 334 40 325 q 52 351 49 343 q 56 360 56 358 q 44 360 56 363 q 24 357 32 357 l 19 357 q 13 369 13 361 q 19 382 13 378 q 33 385 24 385 q 53 388 42 386 q 65 388 61 388 q 72 391 69 389 q 78 399 75 393 q 88 415 81 404 q 97 431 94 426 q 97 435 99 435 q 94 433 96 433 l 90 433 q 78 440 83 433 q 78 453 74 446 q 89 460 82 460 q 115 461 96 461 q 131 486 124 474 q 147 510 139 499 q 159 528 154 521 q 165 538 164 536 q 174 540 171 540 q 185 535 181 540 q 186 522 189 529 q 174 503 185 519 q 153 469 164 486 q 149 464 150 465 q 153 462 149 463 q 173 460 158 461 q 215 460 188 460 q 244 503 235 489 q 258 524 253 518 q 265 531 263 531 q 269 533 267 532 q 272 534 271 533 q 274 535 272 535 q 285 527 281 535 q 281 504 290 519 q 272 492 275 497 q 267 485 269 488 q 256 472 264 483 q 247 458 247 460 q 256 456 247 458 q 274 442 275 453 q 265 429 272 432 q 248 429 256 429 q 229 432 240 429 q 224 424 228 431 q 217 411 221 418 q 209 399 213 404 q 206 393 206 393 q 213 392 206 393 q 228 391 219 392 q 245 390 236 390 q 258 386 254 389 q 265 372 265 382 q 250 361 264 361 q 246 362 247 361 q 242 363 244 363 q 216 364 235 364 q 186 365 197 364 q 176 349 183 360 q 163 325 169 338 q 149 301 156 313 q 140 283 143 290 q 126 269 136 269 q 115 276 119 269 q 117 298 111 283 q 131 327 122 313 q 147 353 139 342 q 154 365 154 364 q 144 365 154 365 q 123 364 135 364 q 101 363 111 364 q 90 363 92 363 m 131 433 q 126 426 131 432 q 117 413 122 419 q 109 399 113 406 q 106 392 106 393 l 113 392 q 129 392 119 392 q 148 392 139 392 q 165 393 157 393 q 172 393 172 393 q 176 400 172 394 q 185 413 181 406 q 197 431 196 431 q 193 433 197 432 l 131 433 z "},"$":{"ha":322,"x_min":38,"x_max":324,"o":"m 81 164 q 71 160 76 160 q 58 172 61 160 q 61 185 58 176 q 67 202 64 193 q 74 219 71 211 q 78 228 78 226 q 64 231 78 231 q 44 244 50 232 q 47 260 42 253 q 60 267 53 267 q 69 261 65 267 q 78 257 72 260 l 83 257 q 90 259 89 257 q 96 269 92 261 q 117 316 107 293 q 126 340 126 339 q 122 342 125 342 q 110 346 118 344 q 70 361 88 353 q 45 380 53 369 q 40 405 38 390 q 60 440 43 419 q 97 479 74 458 q 147 521 121 500 q 200 561 174 542 q 244 593 226 581 q 252 605 247 594 q 263 628 257 615 q 275 653 269 642 q 283 665 281 664 q 290 668 289 668 q 299 664 294 668 q 303 649 306 660 q 285 611 300 639 l 293 611 q 308 608 300 611 q 320 596 317 606 q 320 567 324 586 q 299 515 317 549 q 281 487 292 501 q 268 469 271 472 q 261 468 265 468 q 253 471 256 468 q 249 485 246 478 q 260 505 253 493 q 278 533 268 517 q 293 572 288 550 q 292 583 296 583 q 267 574 288 583 q 259 557 267 574 q 240 517 251 540 q 215 466 228 493 q 191 415 201 439 q 173 376 181 392 q 167 358 165 360 q 192 350 169 357 q 232 332 214 343 q 258 300 260 317 q 235 269 256 283 q 179 244 214 254 q 108 229 144 233 q 94 194 99 207 q 87 176 89 182 q 84 167 85 169 q 81 164 83 165 m 222 544 q 206 533 222 544 q 169 504 190 522 q 124 467 147 486 q 88 431 101 447 q 69 406 74 415 q 71 392 65 397 q 91 381 76 386 q 131 368 106 376 q 133 367 132 368 q 135 367 133 367 q 141 373 138 367 q 154 400 144 379 q 174 442 163 417 q 197 489 186 467 q 215 528 207 511 q 222 544 222 544 m 121 260 q 134 260 121 258 q 165 268 147 263 q 201 282 183 274 q 229 300 219 290 q 208 313 221 307 q 184 324 196 319 q 164 331 172 328 q 156 333 156 333 q 150 322 156 333 q 138 297 144 311 q 126 272 132 283 q 121 260 121 260 z "},"%":{"ha":414,"x_min":-31,"x_max":444,"o":"m 58 254 q 202 389 136 333 q 315 485 268 444 q 388 556 363 525 q 413 615 414 586 q 403 638 413 629 q 369 652 392 649 q 322 656 347 656 q 262 651 292 656 q 217 639 232 646 q 211 633 204 632 q 225 628 218 635 q 234 620 228 625 q 247 609 240 615 q 256 594 253 603 q 256 575 260 586 q 220 543 247 554 q 165 532 193 532 q 127 540 142 532 q 115 567 113 549 q 129 588 118 578 q 152 605 140 597 q 173 618 164 613 q 182 625 182 624 q 188 652 175 640 q 222 671 200 664 q 273 681 244 678 q 326 685 301 685 q 347 684 338 685 q 363 682 356 683 q 417 661 399 676 q 440 625 436 646 q 434 579 444 604 q 401 528 424 554 q 362 491 394 519 q 285 423 329 463 q 190 339 240 383 q 98 255 140 294 q 28 185 56 215 q 1 146 0 156 q -1 135 3 139 q -11 132 -6 132 l -15 132 q -28 151 -31 138 q -6 185 -25 163 q 58 254 14 208 m 286 228 q 265 197 281 210 q 231 185 250 185 q 201 194 215 185 q 188 221 186 203 q 194 244 188 232 q 208 265 200 256 q 226 281 217 275 q 240 285 235 286 l 256 285 q 282 266 272 285 q 286 228 292 247 m 194 599 q 158 577 175 589 q 144 563 142 565 q 161 560 147 560 q 193 564 175 560 q 225 579 211 568 q 214 600 235 589 q 206 604 208 604 q 194 599 204 604 m 246 257 q 236 253 242 258 q 225 242 231 249 q 217 228 219 235 q 215 217 214 221 q 222 213 217 215 q 229 211 226 211 q 253 224 240 211 q 257 254 265 238 q 254 257 254 257 l 253 257 q 250 256 253 256 q 248 256 249 256 q 246 257 247 257 z "},"&":{"ha":347,"x_min":-39,"x_max":326,"o":"m 274 342 q 281 331 281 339 q 274 319 281 322 q 267 317 269 318 q 261 315 265 317 q 247 310 257 314 q 219 297 238 306 q 256 223 243 240 q 269 199 268 206 q 268 185 272 190 q 257 179 264 179 q 241 194 251 179 q 222 228 231 210 q 205 264 213 247 q 196 285 197 281 q 109 238 142 256 q 56 209 76 219 q 25 194 36 199 q 1 190 14 190 q -32 209 -25 190 q -32 253 -39 228 q 3 312 -22 281 q 56 371 28 343 q 109 419 85 399 q 142 449 133 440 q 142 470 146 451 q 136 514 138 489 q 142 565 135 539 q 175 608 149 592 q 210 623 189 618 q 251 628 231 628 q 299 619 278 628 q 324 594 319 611 q 318 569 326 582 q 294 540 310 556 q 259 508 279 525 q 215 472 239 492 q 188 449 199 458 q 175 440 176 440 q 180 420 175 439 q 191 380 185 401 q 203 341 197 358 q 210 324 208 324 q 217 326 211 324 q 232 333 224 329 q 249 340 240 338 q 265 343 258 343 q 274 342 271 343 m 151 419 q 110 383 138 407 q 57 332 83 360 q 11 276 31 304 q -8 228 -8 249 q 1 217 -8 217 q 53 238 17 217 q 151 293 89 260 q 165 300 158 297 q 175 306 171 303 l 185 311 q 174 345 186 313 q 151 419 163 378 m 171 472 q 248 535 218 511 q 289 573 278 560 q 292 592 300 586 q 254 599 283 597 q 197 589 222 599 q 165 543 172 579 q 164 522 164 535 q 165 498 164 510 q 168 478 167 486 q 171 472 169 471 z "},"'":{"ha":279,"x_min":215,"x_max":290,"o":"m 276 756 q 251 708 261 726 q 238 688 242 690 q 229 685 232 685 q 219 689 224 685 q 217 700 215 693 q 224 716 217 701 q 240 748 231 731 q 259 780 250 765 q 272 794 268 794 q 278 793 276 794 q 286 778 290 789 q 276 756 282 767 z "},"(":{"ha":344,"x_min":21,"x_max":451,"o":"m 429 815 l 433 815 q 447 806 443 815 q 444 789 451 797 q 431 785 440 785 q 396 759 425 786 q 326 685 367 732 q 238 574 285 638 q 151 443 192 511 q 83 305 111 375 q 50 172 54 235 q 49 142 50 163 q 49 98 49 121 q 53 56 50 75 q 61 28 56 36 q 63 13 68 19 q 51 6 58 6 q 44 7 47 6 q 27 38 32 13 q 22 92 22 63 q 22 151 21 122 q 25 193 24 179 q 60 319 32 251 q 127 454 88 386 q 213 586 167 522 q 303 699 260 650 q 380 780 346 749 q 429 815 414 811 z "},")":{"ha":356,"x_min":-85,"x_max":335,"o":"m 326 799 q 331 739 335 782 q 309 634 326 696 q 260 499 292 572 q 185 347 229 425 q 84 192 142 268 q -44 49 26 115 q -58 39 -51 42 q -69 36 -65 36 q -83 47 -81 36 q -74 61 -85 57 q 4 143 -61 65 q 64 214 33 176 q 124 297 94 251 q 184 397 154 342 q 242 524 214 453 q 270 604 257 564 q 292 680 283 644 q 304 742 300 715 q 306 779 308 768 q 300 783 304 783 q 288 792 292 785 q 292 807 285 800 q 306 813 297 813 q 326 799 319 813 z "},"*":{"ha":238,"x_min":72,"x_max":211,"o":"m 82 493 q 98 510 88 497 q 111 525 108 522 q 97 524 113 526 q 85 521 89 521 q 75 531 75 521 q 86 547 75 543 q 103 553 92 550 q 128 558 115 556 q 137 560 133 558 q 149 579 140 563 q 167 597 157 597 q 175 592 172 597 q 178 583 178 588 q 176 573 178 579 q 172 563 174 567 q 194 559 183 561 q 208 550 206 557 q 208 537 211 543 q 197 531 206 531 q 190 532 193 531 q 181 533 188 533 q 168 533 174 533 l 164 533 q 163 526 164 532 q 159 511 161 519 q 157 494 157 503 q 158 481 157 486 q 157 468 161 474 q 146 463 153 463 q 134 469 139 463 q 129 492 129 475 l 129 503 l 128 501 l 126 500 q 125 497 126 499 q 106 478 119 492 q 86 464 93 464 q 79 466 83 464 q 74 472 75 468 q 74 481 72 475 q 82 493 75 486 z "},"+":{"ha":279,"x_min":19,"x_max":253,"o":"m 44 397 q 40 397 42 397 q 36 396 39 396 q 26 401 31 396 q 25 417 19 408 q 31 423 26 421 q 46 426 35 425 q 79 427 57 426 q 139 429 101 428 q 165 481 156 463 q 178 508 174 500 q 186 519 183 517 q 193 521 189 521 q 204 517 200 521 q 207 507 208 513 q 201 492 207 504 q 189 466 196 479 q 176 441 182 453 q 172 429 171 429 q 185 429 175 429 q 206 428 194 429 q 229 427 218 428 q 244 424 240 426 q 251 415 250 421 q 250 404 253 408 q 239 400 247 400 q 215 401 232 400 q 157 401 197 401 q 131 345 140 367 q 115 312 121 324 q 108 296 110 300 q 103 290 106 292 q 97 289 101 289 q 83 303 83 289 q 90 323 83 307 q 103 356 96 339 q 118 388 111 374 q 125 401 125 401 q 113 401 125 401 q 87 399 101 400 q 60 398 72 399 q 44 397 47 397 z "},",":{"ha":210,"x_min":-24,"x_max":40,"o":"m 10 328 q 26 349 17 349 q 28 348 28 349 q 32 347 29 347 q 40 335 38 346 q 35 320 40 333 q 24 292 31 307 q 8 266 17 278 q -7 254 0 254 q -19 259 -14 254 q -22 269 -24 264 q -12 285 -21 275 q 10 328 -4 296 z "},"-":{"ha":238,"x_min":31,"x_max":219,"o":"m 213 404 q 200 399 211 399 l 42 399 l 38 399 q 31 411 31 403 q 39 424 32 419 q 67 427 43 426 q 121 428 92 428 q 175 427 150 428 q 204 425 200 426 q 213 404 219 418 z "},".":{"ha":207,"x_min":-3,"x_max":51,"o":"m 17 294 q 1 305 6 297 q -1 321 -3 313 q 8 335 1 329 q 25 342 15 342 q 44 331 39 342 q 44 307 51 319 q 22 294 36 294 l 17 294 z "},"/":{"ha":378,"x_min":-37,"x_max":496,"o":"m 458 717 q 433 694 456 717 q 376 635 410 672 q 299 551 342 599 q 212 453 256 504 q 127 353 168 403 q 56 264 86 304 q 8 197 25 224 q -7 164 -10 169 q -6 153 -4 158 q -15 146 -8 147 l -19 146 q -27 148 -25 146 q -29 149 -29 150 q -36 167 -37 156 q -28 192 -35 178 q -11 219 -21 206 q 6 242 -1 232 q 112 378 53 307 q 232 517 171 449 q 353 649 293 586 q 460 760 413 711 q 479 774 472 774 q 493 765 490 774 q 493 755 496 760 q 482 739 490 750 q 458 717 465 714 z "},"˘":{"ha":279,"x_min":151,"x_max":294,"o":"m 190 783 q 198 774 199 781 q 194 761 197 768 q 188 746 192 754 q 186 731 185 738 q 201 719 189 719 q 217 724 208 719 q 235 740 221 726 q 258 765 249 754 q 275 778 269 778 q 278 777 276 778 q 281 776 279 776 q 285 754 294 769 q 269 735 279 746 q 248 714 260 724 q 224 698 236 704 q 200 692 211 692 q 164 713 176 692 q 168 769 151 735 q 185 785 178 785 q 190 783 189 785 z "},"˙":{"ha":279,"x_min":215,"x_max":278,"o":"m 215 726 q 220 753 215 739 q 243 768 225 768 q 269 751 260 768 q 269 718 278 735 q 242 701 261 701 q 223 708 231 701 q 215 726 215 714 z "},"˚":{"ha":278,"x_min":185,"x_max":283,"o":"m 236 785 q 256 782 250 785 q 278 759 274 774 q 278 730 283 744 q 261 705 274 715 q 232 694 249 694 q 218 697 229 694 q 192 719 199 704 q 188 748 185 733 q 204 774 192 763 q 236 785 217 785 m 243 726 q 254 747 256 733 q 236 758 253 760 q 220 753 225 758 q 215 741 215 747 q 218 729 214 735 q 231 724 222 724 q 243 726 239 724 z "},"˝":{"ha":276,"x_min":168,"x_max":304,"o":"m 219 701 q 213 710 214 704 q 215 721 213 715 q 227 729 217 724 q 250 740 238 735 q 274 751 263 746 q 289 756 286 756 q 293 754 292 756 q 301 739 304 750 q 290 728 300 735 q 267 716 279 722 q 242 705 254 710 q 225 700 229 700 q 219 701 221 700 m 231 739 q 197 722 204 728 q 183 717 190 717 l 181 717 q 171 727 174 718 q 179 743 168 736 q 209 759 189 750 q 236 768 229 768 q 247 760 246 768 q 231 739 253 747 z "},"˛":{"ha":275,"x_min":10,"x_max":100,"o":"m 49 42 q 56 43 50 43 q 69 35 63 43 q 65 17 76 28 q 54 -1 60 10 q 46 -23 49 -12 q 44 -41 43 -33 q 54 -49 46 -49 q 60 -47 57 -49 q 69 -43 64 -46 q 85 -37 79 -37 q 93 -42 89 -37 q 97 -55 100 -49 q 86 -66 94 -61 q 67 -74 78 -71 q 47 -76 56 -76 l 43 -76 q 17 -58 24 -74 q 13 -22 10 -42 q 26 15 15 -3 q 49 42 36 33 z "},"ˇ":{"ha":278,"x_min":179,"x_max":308,"o":"m 303 753 q 285 738 299 749 q 255 717 271 728 q 225 699 239 707 q 206 690 211 690 q 188 715 192 690 q 181 750 183 732 q 179 771 179 768 q 193 781 182 781 q 204 775 200 781 q 206 765 204 774 q 209 747 207 757 q 213 730 211 738 q 214 722 214 722 q 250 747 235 736 q 276 765 265 757 q 289 774 288 774 l 293 774 q 305 766 301 774 q 303 753 308 758 z "},":":{"ha":208,"x_min":39,"x_max":156,"o":"m 128 488 q 140 492 135 492 q 151 487 147 492 q 156 475 156 482 q 151 461 156 468 q 135 450 146 454 q 126 449 132 449 q 114 454 118 449 q 110 467 110 460 q 113 479 110 474 q 122 485 117 485 l 128 488 m 86 321 q 68 313 79 313 q 47 324 54 313 q 50 351 39 336 q 58 358 53 356 q 74 360 63 360 q 89 357 88 358 q 95 340 96 350 q 86 321 94 331 z "},";":{"ha":210,"x_min":46,"x_max":182,"o":"m 119 350 q 110 333 118 344 q 93 308 103 321 q 74 287 83 296 q 58 278 65 278 q 53 279 54 278 q 46 290 46 283 q 47 297 46 294 q 54 306 49 300 q 69 323 60 311 q 92 358 78 335 q 108 371 100 371 q 119 365 115 371 q 119 350 122 358 m 143 453 q 132 475 131 461 q 140 488 133 482 q 153 494 146 493 l 157 494 q 172 490 168 494 q 174 466 182 481 q 151 451 167 451 q 143 453 146 451 z "},"=":{"ha":264,"x_min":24,"x_max":253,"o":"m 190 350 q 173 352 183 351 q 151 353 163 353 q 119 352 136 353 q 86 351 101 351 q 58 349 71 350 q 40 349 46 349 l 38 349 q 25 360 26 351 q 32 374 24 368 q 67 378 35 376 q 135 381 99 381 q 182 378 161 381 q 207 371 203 376 q 210 356 214 364 q 196 349 207 349 q 194 349 194 349 q 190 350 193 350 m 76 440 q 69 453 69 444 q 76 465 69 461 q 104 470 83 468 q 150 472 125 472 q 209 469 181 472 q 244 463 238 467 q 251 448 253 458 q 235 439 249 438 q 227 440 232 439 q 219 440 222 440 q 186 444 208 443 q 140 444 164 444 q 94 442 108 444 q 86 440 89 440 q 81 439 83 439 q 78 440 79 439 q 76 440 78 440 z "},"<":{"ha":281,"x_min":22,"x_max":265,"o":"m 193 361 q 194 347 197 354 q 183 339 192 339 q 171 344 178 339 q 147 356 164 350 q 109 369 129 363 q 71 382 89 376 q 44 392 53 388 q 24 415 22 403 q 40 435 25 428 q 144 469 99 454 q 217 492 185 482 q 251 503 250 503 q 263 494 261 501 q 258 479 265 486 q 224 465 254 476 q 158 443 193 454 q 93 422 122 432 q 65 413 64 413 q 88 406 69 411 q 127 392 106 400 q 168 376 149 385 q 193 361 188 368 z "},">":{"ha":276,"x_min":11,"x_max":256,"o":"m 106 486 q 131 475 113 482 q 168 461 149 468 q 206 449 188 454 q 232 439 224 443 q 254 415 256 428 q 238 396 253 403 q 222 391 238 396 q 183 378 206 386 q 133 362 160 371 q 82 345 106 353 q 42 333 58 338 q 25 328 26 328 q 14 337 17 329 q 18 351 11 344 q 53 365 22 354 q 119 388 83 376 q 183 408 154 399 q 211 418 213 418 q 189 426 207 421 q 149 439 171 432 q 108 454 128 446 q 83 471 89 463 q 82 485 79 478 q 93 492 85 492 q 106 486 100 492 z "},"?":{"ha":536,"x_min":-22,"x_max":647,"o":"m 47 186 q 35 176 43 176 q 23 183 28 176 q 24 200 18 189 q 53 236 29 211 q 115 294 78 261 q 197 368 151 328 q 290 447 243 408 q 381 523 336 486 q 461 586 426 560 q 498 615 474 596 q 547 656 522 635 q 591 700 572 678 q 611 738 610 722 q 590 763 613 754 q 532 771 568 771 q 444 763 493 771 q 344 738 394 754 q 249 697 294 721 q 174 643 204 674 q 147 609 151 621 q 146 590 143 597 q 152 578 149 582 q 149 567 156 574 q 140 563 144 563 q 126 569 133 563 q 124 626 106 593 q 190 693 142 660 q 311 754 238 726 q 474 794 385 782 q 528 799 497 799 q 591 791 560 799 q 635 761 622 783 q 635 717 647 740 q 599 667 624 693 q 539 614 574 642 q 469 558 504 586 q 387 492 432 529 q 296 417 342 456 q 207 340 250 378 q 129 271 164 303 q 72 217 94 239 q 47 186 50 194 m -11 96 q -20 107 -18 100 q -20 120 -22 114 q -12 131 -18 126 q 0 135 -7 136 q 10 128 4 133 q 17 119 15 124 q 13 103 19 113 q -3 94 7 94 q -11 96 -8 94 z "},"@":{"ha":494,"x_min":14,"x_max":467,"o":"m 113 363 q 114 394 104 374 q 142 436 124 415 q 185 473 161 457 q 226 489 208 489 q 248 480 239 489 q 258 458 257 471 q 261 450 258 451 q 272 435 269 447 q 277 411 275 424 q 282 388 279 399 q 293 378 285 378 q 326 390 308 378 q 358 423 343 403 q 379 469 372 443 q 379 521 386 494 q 348 565 372 550 q 290 581 324 581 q 200 555 244 581 q 122 490 156 529 q 67 402 88 450 q 46 311 46 354 q 81 225 44 257 q 172 193 118 193 q 247 208 213 193 q 311 248 282 224 q 365 302 340 272 q 411 363 389 332 q 433 393 426 382 q 440 410 439 404 q 454 422 444 422 q 463 418 458 422 q 467 407 467 414 q 453 376 467 399 q 421 331 439 354 q 385 285 403 307 q 358 254 367 263 q 264 187 313 208 q 171 165 215 165 q 101 180 133 165 q 49 220 69 194 q 21 283 28 246 q 25 363 14 319 q 63 452 38 408 q 124 531 89 496 q 204 587 160 565 q 299 608 249 608 q 366 587 340 607 q 402 538 392 567 q 408 476 413 510 q 383 411 404 442 q 344 371 369 392 q 294 350 318 350 q 272 357 281 350 q 258 375 264 364 q 251 399 253 386 q 247 421 249 411 q 224 404 239 415 q 193 382 210 393 q 159 363 176 371 q 129 356 142 356 q 113 363 119 356 m 150 404 q 141 391 144 397 q 139 385 138 385 q 160 393 146 385 q 190 412 175 401 q 217 432 206 422 q 229 443 229 442 q 231 453 231 446 q 229 461 231 460 q 208 455 219 461 q 185 440 196 449 q 165 422 174 432 q 150 404 156 413 z "},"A":{"ha":825,"x_min":10,"x_max":879,"o":"m 149 47 q 151 84 142 60 q 175 133 161 108 q 201 179 189 158 q 213 206 214 200 q 181 238 208 229 q 121 251 154 247 q 58 260 88 256 q 21 279 29 265 q 39 314 10 299 q 84 331 56 322 q 146 348 113 340 q 213 362 179 356 q 274 373 246 368 q 322 381 303 378 q 344 383 342 383 q 503 557 421 475 q 576 630 538 593 q 654 701 614 667 q 735 767 694 736 q 814 818 775 797 q 839 829 829 825 q 857 833 849 833 q 871 828 865 833 q 876 801 879 819 q 861 758 872 782 q 834 706 850 733 q 801 649 818 678 q 750 557 774 600 q 710 482 726 514 q 674 413 689 444 l 682 413 l 715 413 q 765 410 739 413 q 803 397 790 407 q 810 374 819 385 q 801 369 806 369 q 789 374 797 369 q 755 383 778 381 q 694 385 732 385 l 658 385 q 636 340 651 369 q 606 276 621 310 q 578 213 590 243 q 563 167 565 183 q 550 149 561 149 q 536 160 539 149 q 540 188 535 168 q 556 233 546 208 q 579 283 567 257 q 602 331 592 310 q 619 367 613 353 q 626 382 626 382 q 572 378 614 382 q 482 371 529 375 q 397 363 435 367 q 358 356 360 358 q 284 256 308 289 q 250 206 260 222 q 240 185 240 190 q 238 170 240 181 q 226 137 236 160 q 188 64 217 114 q 177 44 182 53 q 165 35 172 35 q 160 36 161 35 q 149 47 153 39 m 389 393 q 386 389 385 389 q 400 391 389 389 q 438 396 411 393 q 512 403 465 399 q 631 411 558 407 l 639 411 q 642 413 642 411 q 647 422 643 415 q 721 560 690 504 q 772 654 751 617 q 806 714 793 692 q 828 751 819 736 q 841 778 836 767 q 850 806 846 790 q 784 767 832 800 q 672 678 736 733 q 533 551 607 624 q 389 393 458 478 m 65 288 q 142 276 101 281 q 210 256 182 272 q 226 239 221 247 q 233 231 232 231 q 264 275 249 253 q 290 313 276 293 q 315 344 304 332 q 319 350 318 349 q 315 351 319 351 q 265 346 299 351 q 194 332 231 340 q 124 315 158 324 q 74 299 90 306 q 55 291 56 292 q 65 288 54 290 z "},"C":{"ha":628,"x_min":-4,"x_max":596,"o":"m 93 90 q 100 90 96 90 q 107 89 104 89 q 167 101 135 89 q 233 133 200 114 q 294 172 265 151 q 343 208 322 193 q 481 316 435 278 q 548 372 528 354 q 572 394 568 390 q 581 399 575 397 q 592 394 588 399 q 593 381 596 389 q 573 358 592 375 q 526 318 554 340 q 467 271 499 296 q 408 224 436 246 q 358 186 379 201 q 333 167 338 171 q 201 87 258 111 q 104 63 144 63 q 19 113 42 63 q 7 238 -4 163 q 52 386 19 314 q 131 522 85 458 q 231 637 176 585 q 338 726 285 689 q 440 785 392 764 q 522 806 488 806 l 532 806 q 574 781 564 803 q 578 728 583 760 q 559 660 574 697 q 527 590 544 624 q 493 531 510 557 q 468 494 476 504 q 444 475 453 475 q 438 476 440 475 q 426 492 425 479 q 435 522 428 506 q 450 556 442 539 q 461 585 458 574 q 474 600 464 599 q 489 585 486 603 q 490 579 489 579 l 492 582 q 494 586 493 583 q 497 592 494 589 q 517 632 504 606 q 540 687 529 658 q 553 740 550 715 q 543 774 556 765 q 524 778 538 778 q 442 755 494 778 q 330 687 390 732 q 208 575 269 642 q 100 421 146 508 q 60 325 79 379 q 34 221 40 271 q 40 134 28 171 q 93 90 51 97 z "},"B":{"ha":743,"x_min":14,"x_max":843,"o":"m 35 113 q 39 114 36 114 q 48 112 42 114 q 78 110 54 110 l 99 110 q 282 127 199 114 q 424 156 365 140 q 516 187 483 172 q 549 208 549 201 q 524 225 549 215 q 468 242 500 235 q 397 251 433 249 q 325 254 360 254 q 223 250 265 254 q 178 244 181 246 q 174 240 175 244 q 165 221 172 236 q 145 174 149 185 q 132 163 142 163 q 119 172 119 163 q 124 192 119 181 q 133 215 128 204 q 138 228 138 226 q 134 228 138 229 q 128 225 131 226 q 119 222 122 222 q 109 228 114 222 q 105 240 104 233 q 115 255 106 247 q 147 268 125 263 q 153 269 151 268 q 158 273 156 269 q 163 284 160 276 q 174 307 167 292 q 208 376 186 333 q 253 465 229 419 q 299 554 276 511 q 340 622 322 597 q 363 639 353 639 q 373 631 369 639 q 374 617 376 624 q 365 602 369 606 q 349 581 361 599 q 312 519 336 563 q 242 383 288 475 q 208 315 222 346 q 193 282 193 283 q 237 300 194 282 q 344 349 279 318 q 486 419 410 379 q 631 501 563 458 q 749 585 700 543 q 810 663 799 628 q 806 701 817 685 q 773 728 796 718 q 715 744 750 739 q 639 749 681 749 q 510 739 581 749 q 372 712 440 729 q 240 670 303 694 q 131 615 178 646 q 62 549 85 585 q 49 474 39 513 q 65 442 53 458 q 90 411 76 425 q 119 387 104 397 q 143 372 133 376 q 152 365 150 369 q 153 355 154 360 q 147 347 151 350 q 138 346 143 344 q 113 358 131 347 q 75 388 94 369 q 40 430 56 406 q 19 482 24 454 q 39 562 14 524 q 111 633 64 600 q 222 692 158 665 q 355 737 285 718 q 497 766 425 756 q 631 776 568 776 q 718 770 678 776 q 786 751 758 764 q 828 717 814 738 q 839 668 843 697 q 801 600 833 636 q 722 528 769 564 q 615 459 674 493 q 501 396 557 425 q 396 344 444 367 q 317 307 347 321 q 271 286 281 290 q 264 282 261 282 q 333 281 292 282 q 419 276 375 281 q 501 263 463 272 q 561 236 539 253 q 574 195 589 215 q 517 158 558 175 q 417 126 476 140 q 295 102 357 113 q 176 86 233 92 q 83 81 119 81 l 72 81 q 40 86 50 82 q 27 96 29 90 q 28 106 25 101 q 35 113 31 111 z "},"E":{"ha":857,"x_min":3,"x_max":856,"o":"m 46 103 q 4 169 6 129 q 32 256 3 210 q 117 353 61 303 q 246 451 172 404 q 406 539 319 499 q 585 606 493 579 q 592 609 593 608 q 581 613 590 610 q 541 638 547 622 q 546 671 535 653 q 581 708 557 689 q 635 746 606 728 q 723 788 682 775 q 793 801 764 801 q 843 783 831 801 q 828 735 856 765 q 813 720 817 724 q 806 715 810 717 q 790 726 793 713 q 797 744 789 736 q 813 759 806 753 q 818 769 819 765 q 794 774 817 774 q 719 758 757 774 q 649 722 681 742 q 595 683 617 703 q 569 656 574 664 q 575 643 564 649 q 595 636 582 639 q 623 631 608 633 q 649 627 638 629 q 664 624 661 625 q 671 604 676 617 q 646 593 665 596 q 574 575 626 590 q 450 531 513 557 q 328 471 388 504 q 214 398 268 438 q 114 313 160 358 q 49 233 71 269 q 31 167 28 196 q 64 121 33 139 q 156 94 94 103 q 219 90 185 90 q 315 97 264 90 q 417 116 365 103 q 522 149 469 129 q 619 196 574 169 q 651 215 628 200 q 697 247 674 229 q 740 280 721 264 q 764 304 760 296 q 776 313 768 313 q 789 303 785 313 q 779 278 793 293 q 758 260 774 272 q 726 235 743 249 q 690 208 708 221 q 656 185 671 194 q 563 138 615 160 q 451 99 510 115 q 333 72 393 82 q 218 63 274 63 q 122 72 165 63 q 46 103 78 82 z "},"D":{"ha":988,"x_min":14,"x_max":1054,"o":"m 1049 678 q 986 565 1040 631 q 850 431 932 500 q 668 294 768 361 q 469 173 568 226 q 280 87 369 119 q 129 54 190 54 q 69 68 93 54 q 39 111 46 82 q 44 158 35 133 q 72 206 53 182 q 115 253 90 231 q 167 298 140 276 q 218 337 193 319 q 261 367 243 354 q 275 376 271 374 q 281 382 279 379 q 285 390 283 385 q 293 406 288 394 q 397 610 363 550 q 431 672 432 671 q 398 663 429 672 q 320 636 367 654 q 219 593 274 618 q 119 538 165 568 q 90 517 107 529 q 61 491 74 504 q 45 465 49 478 q 56 446 42 453 q 67 429 69 439 q 54 419 64 419 q 47 421 50 419 q 22 444 29 428 q 19 476 14 460 q 57 528 29 503 q 124 576 85 553 q 210 619 164 599 q 299 657 256 640 q 381 686 343 674 q 443 706 419 699 q 449 707 447 707 q 451 708 450 707 q 456 715 453 710 q 464 729 458 719 q 490 774 475 751 q 508 801 504 796 q 522 810 517 810 q 536 797 533 810 q 536 784 539 792 q 525 760 533 776 q 515 740 518 743 q 504 736 511 736 l 499 736 q 492 724 497 732 q 489 718 490 721 q 529 728 490 718 q 626 751 568 739 q 754 774 685 764 q 886 785 824 785 q 956 780 924 785 q 1010 763 988 775 q 1043 729 1032 750 q 1049 678 1054 708 m 158 256 q 128 228 144 244 q 97 193 111 211 q 74 157 83 175 q 65 122 65 139 q 85 94 67 103 q 135 86 104 86 q 192 91 161 86 q 253 107 222 96 q 388 164 311 126 q 545 251 464 201 q 706 357 626 300 q 852 470 786 414 q 963 578 918 526 q 1019 671 1008 631 q 1000 735 1029 711 q 888 758 971 758 q 696 738 792 758 q 508 694 600 718 q 484 688 492 690 q 473 684 476 686 q 468 679 469 682 q 464 672 467 676 q 411 576 436 622 q 367 493 386 529 q 338 435 349 457 q 328 413 328 413 q 410 461 371 440 q 473 495 442 481 q 517 510 504 510 q 529 504 525 511 q 529 490 533 497 q 519 483 525 485 q 490 472 513 482 q 425 439 468 463 q 303 363 382 415 q 283 321 296 347 q 258 267 271 294 q 238 218 246 240 q 231 189 229 196 q 228 177 232 182 q 218 172 225 172 q 207 178 215 172 q 206 209 200 186 q 240 293 213 232 q 247 307 244 300 q 251 318 249 314 q 256 329 254 324 q 243 320 256 329 q 215 299 231 311 q 183 275 199 288 q 158 256 167 263 z "},"F":{"ha":694,"x_min":4,"x_max":792,"o":"m 589 788 l 554 788 q 374 777 467 788 q 208 753 282 767 q 90 724 133 739 q 58 701 47 710 q 103 683 71 692 q 172 657 136 674 q 235 613 207 640 q 267 538 264 585 q 267 511 268 522 q 267 500 265 500 q 272 508 268 500 q 284 532 275 515 q 308 576 293 549 q 347 646 324 604 q 368 681 357 663 q 389 715 379 699 q 406 742 399 731 q 414 754 413 753 q 421 756 415 756 q 429 752 425 756 q 433 743 433 749 q 428 729 433 739 q 408 694 424 719 q 366 622 393 669 q 294 494 339 575 q 256 418 254 419 l 268 418 l 307 418 q 375 416 338 418 q 440 406 413 414 q 475 376 482 394 q 464 368 472 368 q 451 372 457 368 q 440 378 444 375 q 386 388 421 385 q 315 390 351 390 q 272 390 292 390 q 239 389 253 389 q 168 236 199 304 q 144 178 156 207 q 124 126 132 150 q 112 88 115 103 q 111 68 108 72 q 113 51 119 60 q 94 43 106 43 q 89 44 90 43 q 78 56 81 47 q 81 84 76 65 q 97 133 85 103 q 128 211 108 164 q 158 282 136 232 q 208 388 181 332 q 147 383 178 388 q 90 373 115 379 q 47 360 64 367 q 29 349 31 353 q 18 342 26 342 q 16 342 17 342 q 14 343 15 343 q 4 356 4 346 q 14 372 4 365 q 69 396 35 388 q 135 408 103 404 q 192 414 168 413 q 218 417 217 415 q 224 436 219 418 q 233 474 229 454 q 238 544 242 515 q 217 592 233 572 q 170 627 200 613 q 97 656 140 642 q 45 676 60 668 q 28 699 31 685 q 72 744 21 724 q 204 781 122 765 q 384 806 286 797 q 569 814 482 814 q 665 810 621 814 q 738 800 708 807 q 779 782 767 793 q 781 756 792 771 q 769 750 776 750 q 756 763 758 750 q 732 774 756 769 q 679 782 708 779 q 623 786 650 785 q 589 788 596 788 z "},"G":{"ha":858,"x_min":-39,"x_max":836,"o":"m 158 53 q 66 71 107 56 q 0 110 25 86 q -32 164 -25 133 q -24 226 -39 194 q 24 279 -8 257 q 92 317 57 301 q 176 346 131 333 q 186 358 179 346 q 208 392 193 369 q 249 449 224 415 q 314 528 275 482 q 440 652 376 599 q 561 742 503 706 q 670 798 619 779 q 756 817 721 817 q 818 775 810 817 q 818 746 821 764 q 804 694 815 728 q 792 655 796 664 q 781 646 788 646 q 765 660 768 646 q 770 676 765 663 q 780 708 775 690 q 789 743 785 726 q 792 769 793 760 q 756 790 788 790 q 684 774 728 790 q 593 729 640 757 q 439 613 508 678 q 320 492 369 549 q 245 397 271 436 q 219 358 219 358 q 253 365 222 357 q 349 383 283 372 q 451 397 417 394 q 501 401 485 400 q 525 406 518 403 q 547 422 532 410 q 592 457 561 433 q 685 522 622 481 q 738 547 725 547 q 753 538 749 547 q 756 522 757 529 q 744 493 754 514 q 707 418 732 464 q 731 419 718 418 q 758 419 744 419 q 811 415 788 419 q 836 397 835 411 q 822 383 836 383 q 815 385 818 383 q 788 389 807 388 q 750 390 769 390 q 708 390 726 390 q 689 388 690 389 q 673 365 688 386 q 635 310 658 343 q 577 241 611 278 q 501 171 543 204 q 339 83 428 114 q 158 53 250 53 m 532 378 q 410 284 468 329 q 305 204 353 239 q 219 149 257 169 q 156 128 181 128 q 115 161 125 128 q 116 206 110 181 q 132 256 122 232 q 150 296 142 279 q 158 313 158 313 q 139 308 157 314 q 96 290 121 301 q 46 261 71 278 q 6 224 21 244 q -9 178 -10 203 q 19 129 -8 154 q 88 91 49 101 q 168 81 126 81 q 300 99 238 81 q 419 151 363 118 q 524 228 475 183 q 614 326 574 274 q 622 338 617 329 q 635 357 628 347 q 648 375 642 367 q 656 388 654 383 q 641 386 646 386 q 626 385 636 386 q 594 382 615 383 q 532 378 574 381 m 149 157 q 158 156 151 156 q 206 173 175 156 q 269 212 238 190 q 329 255 301 233 q 367 285 357 276 q 431 334 408 317 q 465 360 454 351 q 476 370 475 368 q 478 372 478 372 q 460 372 478 374 q 414 365 442 369 q 353 356 386 361 q 289 346 319 351 q 233 335 258 340 q 199 325 208 329 q 190 313 197 325 q 175 285 183 301 q 158 248 167 268 q 145 209 150 228 q 140 176 140 190 q 149 157 140 163 m 724 514 q 697 498 721 514 q 647 463 674 482 q 597 426 619 443 q 575 410 575 410 q 590 410 575 410 q 624 412 606 411 q 658 414 642 413 q 674 415 674 415 q 684 433 675 417 q 702 467 693 449 q 718 499 711 485 q 724 514 725 514 z "},"H":{"ha":740,"x_min":-60,"x_max":751,"o":"m 106 128 q 97 140 99 131 q 97 156 94 149 q 99 200 107 185 q 74 223 92 215 q 34 233 57 231 q -10 240 11 236 q -45 249 -31 243 q -60 271 -60 256 q -26 308 -60 292 q 51 338 7 325 q 137 358 94 350 q 197 371 179 367 q 211 392 200 371 q 239 445 222 413 q 276 518 256 478 q 319 599 297 558 q 361 675 340 639 q 399 735 382 711 q 422 754 414 754 q 433 750 428 754 q 424 707 443 739 q 414 694 417 696 q 401 692 411 693 q 347 594 376 649 q 293 492 318 540 q 252 411 268 444 q 236 378 236 378 q 250 380 238 378 q 290 385 263 382 q 363 393 318 389 q 472 400 407 397 q 497 445 478 411 q 540 524 515 479 q 592 619 564 569 q 647 711 621 669 q 695 781 674 753 q 728 813 717 810 l 731 813 q 747 802 742 813 q 744 776 751 792 q 732 768 743 768 q 725 769 728 768 q 703 747 721 772 q 660 680 685 721 q 607 590 635 639 q 556 500 579 542 q 518 430 533 458 q 504 400 503 401 q 529 399 504 400 q 586 397 554 399 q 649 393 618 396 q 692 385 679 390 q 704 369 701 381 q 699 356 704 361 q 686 351 693 351 q 676 358 678 351 q 658 364 675 361 q 619 368 642 367 q 571 370 596 369 q 525 371 546 371 q 489 369 490 371 q 479 350 489 369 q 456 301 469 331 q 428 238 443 272 q 400 171 413 203 q 381 115 388 139 q 378 85 374 92 q 378 70 382 75 q 367 65 374 65 q 353 72 360 65 q 349 97 346 79 q 360 140 351 114 q 381 197 369 167 q 407 258 393 228 q 433 314 421 289 q 451 355 444 339 q 458 371 458 371 q 389 368 426 369 q 313 360 357 365 q 219 347 269 356 q 165 230 185 274 q 134 163 144 186 q 119 133 124 140 q 110 126 114 126 q 108 127 108 126 q 106 128 107 128 m 96 242 q 117 222 111 232 q 125 211 124 211 q 156 275 142 247 q 176 319 167 299 q 185 340 186 340 q 158 335 185 340 q 97 322 132 331 q 26 301 61 313 q -25 278 -8 290 q -22 269 -33 272 q 10 264 -11 267 q 55 256 31 261 q 96 242 79 251 z "},"J":{"ha":621,"x_min":-22,"x_max":664,"o":"m 361 296 q 383 323 371 307 q 408 353 396 339 q 427 379 419 368 q 435 390 435 390 q 422 388 435 390 q 390 384 408 386 q 355 379 372 382 q 328 375 338 376 q 190 331 249 360 q 93 269 132 303 q 33 201 54 236 q 9 137 13 165 q 19 90 6 108 q 63 72 33 72 q 182 122 107 72 q 361 296 257 172 m 49 611 q 140 690 78 653 q 276 756 203 728 q 424 799 350 783 q 550 815 497 815 q 637 790 610 815 q 644 699 664 765 q 608 613 633 660 q 558 524 583 565 q 514 453 533 482 q 494 425 494 425 q 522 426 508 426 q 547 426 535 426 q 572 424 561 426 q 582 410 582 421 q 578 401 582 404 q 569 397 574 397 q 561 399 564 397 q 546 400 560 400 q 513 399 532 400 q 478 396 493 397 q 472 394 474 394 q 467 386 471 393 q 392 290 439 347 q 291 178 346 232 q 178 85 236 124 q 65 47 119 47 q 19 57 39 47 q -12 84 -1 67 q -22 128 -22 101 q -6 188 -21 154 q 76 293 24 251 q 192 361 128 335 q 325 401 256 388 q 457 421 394 414 q 485 461 467 435 q 524 520 503 488 q 565 590 544 553 q 601 660 586 626 q 622 722 615 694 q 622 764 629 749 q 597 782 615 776 q 549 788 578 788 q 461 778 511 788 q 358 754 411 769 q 253 717 306 739 q 158 669 200 694 q 86 613 115 643 q 51 553 57 583 q 55 509 47 531 q 75 470 63 488 q 101 440 88 453 q 125 425 115 428 q 140 407 143 418 q 126 397 138 396 q 88 416 113 397 q 45 465 64 435 q 23 533 26 494 q 49 611 19 571 z "},"I":{"ha":249,"x_min":-37,"x_max":338,"o":"m 242 596 q 199 517 224 564 q 149 418 175 471 q 97 311 124 365 q 49 209 71 257 q 13 124 28 161 q -8 67 -3 86 q -13 54 -11 57 q -19 49 -15 51 q -28 49 -24 47 q -36 60 -35 51 q -28 97 -37 68 q 6 181 -18 125 q 78 333 31 236 q 196 568 147 479 q 272 706 244 657 q 303 772 299 756 q 290 789 308 789 q 244 781 275 789 q 181 761 213 772 q 126 737 150 750 q 99 715 101 724 q 121 711 99 711 q 153 713 136 711 q 174 714 171 714 q 181 707 178 711 q 182 696 185 703 q 176 689 181 693 q 160 685 174 686 q 131 685 146 685 q 115 685 122 685 q 103 686 108 685 q 67 713 69 692 q 124 765 65 733 q 208 800 163 785 q 288 815 253 815 q 324 806 311 815 q 332 772 338 796 q 325 751 331 763 q 309 719 319 739 q 283 669 299 699 q 242 596 267 640 z "},"K":{"ha":803,"x_min":13,"x_max":892,"o":"m 472 771 q 397 748 446 768 q 293 697 349 728 q 184 627 238 665 q 94 549 131 589 q 67 514 81 533 q 47 476 54 494 q 43 439 40 457 q 63 408 46 421 q 71 383 82 396 q 63 381 68 381 q 40 390 53 381 q 20 417 28 399 q 15 460 13 435 q 38 519 17 486 q 97 592 60 557 q 176 657 133 626 q 265 713 219 688 q 351 758 311 739 q 421 788 390 776 q 464 799 451 799 l 468 799 q 500 771 501 799 q 476 697 499 743 q 416 592 453 651 q 344 467 379 532 q 369 487 343 464 q 440 547 394 510 q 551 628 486 583 q 692 715 615 674 q 743 740 717 728 q 792 763 769 753 q 833 781 815 774 q 861 790 851 789 q 869 792 864 792 q 882 788 876 792 q 885 766 892 779 q 867 753 878 753 q 858 757 863 753 q 854 760 853 760 q 839 754 851 760 q 667 669 753 721 q 510 565 582 618 q 384 464 438 511 q 310 389 331 417 q 412 277 354 335 q 529 181 469 219 q 567 159 543 172 q 619 133 592 146 q 672 113 646 121 q 715 104 699 104 q 733 111 729 104 q 744 119 738 119 q 751 118 749 119 q 757 99 764 113 q 739 81 750 85 q 719 78 733 78 q 672 85 699 78 q 619 104 646 93 q 568 127 592 115 q 532 147 544 139 q 444 211 486 174 q 368 283 401 249 q 314 341 335 317 q 293 365 293 365 q 284 348 293 365 q 261 302 275 331 q 231 239 247 274 q 200 171 215 204 q 201 149 211 158 q 181 139 192 139 q 168 146 172 139 q 171 171 164 153 q 194 223 178 186 q 228 296 210 260 q 274 390 249 340 q 269 399 274 392 q 254 425 265 406 q 247 446 247 440 q 250 456 246 451 q 258 460 253 460 q 273 451 269 461 q 289 418 276 442 q 364 556 331 497 q 421 656 397 614 q 458 725 444 697 q 472 771 471 753 z "},"L":{"ha":514,"x_min":-97,"x_max":483,"o":"m 479 783 q 471 764 481 776 q 438 721 461 751 q 376 635 414 690 q 282 486 338 581 q 240 411 264 456 q 192 322 215 367 q 150 236 169 276 q 122 175 131 196 q 117 165 118 165 q 119 158 117 164 q 117 142 124 149 q 101 135 110 135 q 86 149 88 135 q 94 180 85 156 q 120 238 104 204 q 156 310 136 271 q 197 386 176 349 q 234 455 217 424 q 261 504 251 486 q 386 696 340 635 q 431 757 432 757 q 414 751 431 758 q 372 729 397 743 q 314 697 346 715 q 251 656 282 678 q 192 613 219 635 q 147 568 164 590 q 129 529 124 543 q 143 521 135 521 q 156 513 153 521 q 153 499 160 506 q 140 493 149 493 q 120 500 131 493 q 104 518 110 507 q 114 569 94 540 q 169 628 133 597 q 251 690 206 660 q 340 743 297 719 q 417 781 383 767 q 463 796 451 796 q 479 783 476 796 m -57 110 q -47 103 -47 107 q -46 99 -47 99 q -20 100 -44 97 q 48 106 4 103 q 154 111 92 108 q 294 114 217 114 l 317 114 l 347 114 q 390 113 367 114 q 432 109 413 113 q 466 100 451 106 q 482 85 481 94 q 479 74 483 79 q 468 68 475 68 q 461 70 465 68 q 456 75 457 72 q 415 85 453 82 q 310 88 376 88 q 153 84 243 88 q -46 69 63 81 q -57 69 -51 69 q -69 68 -62 68 q -89 71 -81 68 q -96 85 -97 74 q -85 103 -96 94 q -62 111 -74 111 q -59 110 -60 111 q -57 110 -58 110 z "},"N":{"ha":746,"x_min":-25,"x_max":736,"o":"m 274 447 q 254 401 269 435 q 217 325 239 368 q 169 235 194 282 q 119 149 144 188 q 74 84 94 110 q 40 58 53 58 q 33 60 36 58 q 22 85 21 65 q 33 130 24 106 q 53 177 42 154 q 72 213 65 200 q 133 313 101 265 q 191 396 164 360 q 235 454 218 432 q 254 479 253 476 q 256 486 256 482 q 257 496 256 490 q 257 507 257 506 q 254 511 257 508 q 243 514 251 514 q 188 498 225 514 q 113 455 151 482 q 43 392 75 428 q 4 319 11 357 q -8 304 3 304 q -21 311 -17 304 q -19 338 -25 319 q 3 379 -12 356 q 42 428 18 403 q 96 476 65 454 q 127 496 108 485 q 167 517 146 507 q 208 535 188 528 q 246 542 229 542 q 264 539 258 542 q 279 522 276 532 q 285 514 282 513 q 289 518 286 515 q 292 522 290 519 q 296 526 293 524 q 397 630 343 579 q 504 719 451 681 q 603 782 557 758 q 679 806 649 806 q 710 794 699 806 q 722 760 721 783 q 710 694 724 733 q 672 608 696 656 q 617 509 647 561 q 558 404 588 457 q 503 301 529 351 q 463 210 478 251 q 442 127 442 153 q 457 101 442 101 q 497 121 472 101 q 555 176 522 140 q 625 260 588 211 q 700 365 663 308 q 714 386 711 383 q 721 388 717 388 q 733 382 729 388 q 735 372 736 376 q 728 358 733 368 q 702 322 719 344 q 665 272 685 299 q 625 218 646 244 q 588 172 604 192 q 562 143 578 160 q 528 111 546 126 q 492 85 511 96 q 454 75 472 75 q 415 113 424 75 q 431 206 408 147 q 488 332 453 264 q 565 472 524 400 q 640 606 607 544 q 689 713 672 668 q 690 774 706 758 q 678 778 686 778 q 624 762 660 778 q 537 710 588 746 q 425 619 486 675 q 296 485 364 564 q 285 473 289 476 q 281 467 282 469 q 278 460 279 464 q 274 447 276 457 m 132 263 q 67 142 83 183 q 53 101 50 100 q 72 128 57 104 q 108 187 88 153 q 151 259 129 221 q 190 328 172 297 q 216 378 207 360 q 219 389 225 396 q 203 367 214 382 q 178 333 192 351 q 153 294 165 314 q 132 263 140 275 z "},"M":{"ha":600,"x_min":-44,"x_max":715,"o":"m 133 526 q 84 364 117 443 q 14 217 51 285 q -9 181 0 190 q -28 171 -18 171 q -44 195 -44 172 q -32 252 -43 218 q -2 327 -21 286 q 37 407 17 368 q 74 478 57 446 q 100 524 92 510 q 105 534 104 531 q 107 547 106 538 q 108 589 110 574 q 106 613 107 604 q 105 624 104 621 q 111 631 106 628 q 117 632 113 632 q 126 628 121 632 q 134 611 133 622 q 138 585 135 600 q 173 638 149 601 q 226 713 197 675 q 285 780 256 751 q 335 808 315 808 q 354 797 347 808 q 356 760 361 785 q 319 661 349 724 q 261 524 290 599 q 221 419 243 478 q 181 309 199 360 q 152 226 163 258 q 146 200 142 193 q 216 314 182 261 q 285 415 250 367 q 360 512 321 464 q 446 611 400 560 q 494 661 463 629 q 560 725 525 693 q 631 781 596 757 q 688 804 665 804 q 710 768 715 800 q 685 690 706 736 q 633 592 664 644 q 574 493 601 539 q 463 299 504 375 q 399 178 421 224 q 369 110 376 132 q 362 81 363 89 q 364 71 361 72 q 363 64 367 69 q 349 56 357 56 q 343 57 344 56 q 342 57 343 57 q 338 99 328 64 q 374 188 349 135 q 435 306 400 242 q 508 434 471 371 q 578 553 544 497 q 631 646 611 610 q 647 676 638 660 q 664 710 656 693 q 678 745 672 728 q 683 776 683 763 q 606 728 660 772 q 483 610 551 685 q 337 437 414 536 q 190 221 260 338 q 165 177 174 194 q 149 148 156 160 q 140 127 143 136 q 129 107 136 118 q 113 99 125 99 q 104 100 107 99 q 100 139 94 107 q 121 220 106 171 q 158 331 136 269 q 206 453 181 392 q 254 574 231 515 q 297 679 278 633 q 325 753 315 725 q 331 781 335 781 q 304 761 324 781 q 258 708 285 742 q 199 628 231 675 q 133 526 167 582 m -6 244 q -8 231 -10 231 q 5 255 -7 231 q 31 313 17 279 q 60 380 46 346 q 81 432 75 414 q 72 419 82 436 q 49 372 63 401 q 19 308 35 343 q -6 244 4 274 z "},"O":{"ha":615,"x_min":-15,"x_max":603,"o":"m 169 36 q 124 48 143 36 q 91 78 104 60 q 70 121 78 97 q 60 167 63 144 q 20 185 38 174 q -8 224 3 196 q -14 269 -15 244 q -6 318 -12 293 q 10 367 0 343 q 31 411 21 392 q 91 505 60 464 q 151 577 122 546 q 205 633 181 608 q 243 676 229 657 q 326 781 286 739 q 381 824 365 822 q 394 819 388 825 q 401 807 401 814 q 386 794 399 792 q 369 785 382 796 q 344 760 357 774 q 321 733 331 746 q 311 721 311 721 q 332 734 313 721 q 379 763 351 747 q 504 801 453 801 q 580 765 557 801 q 597 663 603 728 q 574 555 592 608 q 538 458 557 501 q 506 388 519 415 q 492 361 492 361 q 501 367 492 361 q 521 382 510 374 q 542 398 532 390 q 556 407 553 406 q 567 415 563 414 q 574 417 571 417 q 586 406 585 414 q 581 394 586 400 q 558 375 576 389 q 499 331 518 344 q 471 313 479 318 q 460 303 463 307 q 450 289 457 300 q 395 207 428 251 q 325 125 363 163 q 247 62 288 88 q 169 36 207 36 m 239 621 q 151 457 183 535 q 103 320 119 379 q 85 226 88 261 q 89 190 83 190 l 106 190 q 212 209 156 190 q 317 251 268 228 q 400 297 365 275 q 440 326 435 319 q 463 365 449 338 q 495 428 478 392 q 528 506 513 464 q 556 589 544 547 q 570 668 567 631 q 564 733 574 706 q 541 765 557 756 q 504 774 525 774 q 428 755 471 774 q 347 711 386 736 q 278 660 308 686 q 239 621 247 635 m 88 163 q 118 88 97 110 q 167 65 139 65 q 218 79 190 65 q 275 117 246 93 q 333 175 304 142 q 389 246 363 208 q 399 261 396 257 q 401 265 403 265 l 400 264 q 394 261 400 264 q 247 191 325 219 q 88 163 169 163 m 35 208 q 47 201 40 206 q 57 196 54 196 q 58 203 58 196 q 58 208 58 204 q 70 299 60 254 q 96 389 81 344 q 131 475 111 433 q 169 556 150 517 q 95 463 131 514 q 38 362 60 411 q 13 271 17 313 q 35 208 10 229 z "},"P":{"ha":919,"x_min":3,"x_max":1043,"o":"m 515 688 q 421 532 453 589 q 392 475 389 475 q 396 475 393 475 q 404 474 401 475 l 414 474 q 422 482 417 474 q 569 642 497 576 q 706 750 642 708 q 826 811 771 792 q 925 831 882 831 q 1014 797 985 831 q 1031 704 1043 763 q 958 567 1018 646 q 781 396 899 488 q 804 386 792 392 q 822 372 817 381 q 817 351 832 357 q 811 350 815 350 q 800 356 807 350 q 789 363 796 358 q 774 369 782 367 q 760 374 767 372 q 754 376 754 376 q 726 360 751 376 q 658 320 701 343 q 556 272 615 297 q 425 231 497 247 q 357 219 389 222 q 289 217 325 217 q 278 215 282 217 q 271 206 274 213 q 253 170 264 192 q 234 126 243 149 q 219 85 225 104 q 213 60 213 67 q 206 44 213 53 q 193 36 200 36 q 181 44 186 36 q 183 71 176 51 q 199 116 189 90 q 219 165 210 142 q 235 204 229 188 q 240 221 242 221 q 224 224 239 221 q 185 233 208 226 q 135 251 163 240 q 83 279 108 263 q 38 319 56 299 q 14 360 21 340 q 30 419 3 396 q 103 455 57 442 q 205 473 149 468 q 308 478 261 478 q 332 477 321 478 q 354 476 343 476 l 358 476 q 363 479 361 476 q 371 496 364 482 q 387 526 375 504 q 415 576 399 547 q 449 635 431 604 q 484 691 467 665 q 515 733 501 717 q 536 750 529 750 q 550 732 550 750 q 544 712 550 725 q 533 693 539 699 q 524 688 529 688 l 515 688 m 450 471 q 476 468 451 469 q 540 460 500 467 q 631 443 579 454 q 739 411 683 432 q 747 408 747 408 q 764 418 750 408 q 854 494 811 453 q 931 578 897 536 q 985 661 964 621 q 1008 733 1006 701 q 992 783 1011 764 q 929 801 974 801 l 921 801 q 834 785 878 800 q 749 746 790 769 q 669 692 707 722 q 599 632 632 663 q 450 471 519 561 m 710 382 q 721 389 721 389 q 717 390 721 389 q 574 426 643 415 q 432 444 506 438 q 418 431 429 444 q 391 394 407 417 q 358 347 375 372 q 326 299 340 321 q 301 261 311 276 q 293 244 292 246 q 310 242 296 242 q 369 248 329 242 q 463 269 410 254 q 579 312 515 285 q 710 382 643 339 m 47 354 q 97 303 65 324 q 160 269 128 282 q 218 252 192 257 q 251 247 244 247 q 256 251 254 247 q 265 274 257 256 q 278 301 271 286 q 291 330 283 314 q 306 361 299 346 q 346 449 322 400 q 338 450 343 449 l 317 450 q 231 447 285 450 q 131 433 178 443 q 56 405 83 424 q 47 354 29 386 m 354 390 q 382 428 369 411 q 394 446 394 444 q 383 449 394 449 q 376 446 376 449 l 340 374 q 340 372 340 372 q 339 369 339 371 q 338 368 338 368 q 354 390 339 368 z "},"Q":{"ha":765,"x_min":-15,"x_max":804,"o":"m 178 164 q 175 171 176 171 l 171 171 q 118 164 140 164 q 37 188 71 164 q -6 256 3 211 q 7 365 -15 300 q 93 513 29 429 q 197 620 138 567 q 324 716 256 674 q 466 784 392 758 q 614 810 540 810 q 761 751 718 810 q 790 600 804 692 q 706 397 775 508 q 515 179 636 285 q 524 136 518 161 q 538 93 531 111 q 542 83 542 83 l 543 85 l 546 85 q 556 81 553 85 q 559 70 560 76 q 553 59 558 64 q 539 54 549 54 q 522 65 529 54 q 508 93 514 76 q 499 127 503 110 q 492 157 494 144 q 490 159 492 160 q 479 151 488 158 q 376 90 426 111 q 286 68 325 68 q 215 95 243 68 q 178 164 186 122 m 175 200 q 177 222 178 203 q 189 288 176 242 q 237 403 204 338 q 307 528 269 469 q 378 628 344 588 q 431 668 413 668 q 440 661 438 668 q 440 647 443 654 q 419 613 438 639 q 407 594 413 601 q 401 583 401 586 q 388 574 397 574 q 379 576 382 574 l 375 579 q 317 492 347 540 q 261 394 286 444 q 219 297 236 344 q 203 211 203 249 q 228 221 203 208 q 289 253 254 233 q 359 293 324 272 q 413 328 394 314 q 422 332 417 332 q 435 318 435 332 q 420 301 435 313 q 383 275 406 289 q 333 246 360 261 q 283 218 307 231 q 240 197 258 206 q 217 185 222 188 q 207 181 208 182 q 204 176 206 179 q 208 156 204 168 q 219 131 211 143 q 240 110 228 119 q 268 96 251 100 q 277 94 272 94 q 286 94 282 94 q 352 109 317 94 q 417 141 388 124 q 467 174 447 158 q 486 192 486 190 l 485 197 q 485 203 485 200 q 483 210 485 207 q 480 299 478 251 q 490 386 482 346 q 508 453 497 426 q 532 481 519 481 q 540 476 536 481 q 544 468 544 472 q 539 453 544 464 q 520 397 528 429 q 509 332 513 365 q 506 268 506 299 q 510 215 506 238 q 531 228 511 211 q 578 276 550 244 q 639 352 606 308 q 700 444 672 396 q 747 545 728 493 q 765 644 765 597 q 722 751 765 719 q 613 782 678 782 q 504 766 561 782 q 394 724 447 750 q 268 644 329 692 q 158 545 207 597 q 75 440 110 493 q 26 339 40 386 q 22 255 13 292 q 69 201 31 218 q 94 194 81 196 q 121 192 108 192 q 156 194 140 192 q 175 200 172 197 z "},"R":{"ha":886,"x_min":18,"x_max":988,"o":"m 114 390 q 103 386 110 386 q 86 390 96 386 q 68 399 76 394 q 34 419 49 408 q 19 453 19 431 q 47 514 18 478 q 121 590 75 550 q 222 668 167 629 q 330 738 278 707 q 424 787 382 768 q 483 806 465 806 q 511 792 503 806 q 517 756 519 779 q 502 713 513 736 q 472 651 492 689 q 420 558 451 614 q 344 414 389 501 q 343 411 343 411 q 354 423 344 411 q 381 454 364 435 q 420 499 397 474 q 471 550 443 524 q 560 625 506 582 q 677 707 615 668 q 801 773 739 746 q 911 800 863 800 q 966 783 944 800 q 986 728 988 765 q 947 622 985 683 q 842 501 908 561 q 683 389 775 440 q 482 313 590 338 q 433 303 454 306 q 392 301 413 301 q 351 303 372 301 q 304 308 331 306 q 299 303 301 308 q 293 297 296 299 q 381 230 332 264 q 485 167 431 196 q 595 122 539 139 q 701 104 651 104 q 737 106 722 104 q 761 108 751 108 q 778 97 776 108 q 775 87 779 90 q 764 81 771 83 q 749 78 757 79 q 735 78 742 78 q 606 92 665 78 q 490 133 546 107 q 383 195 435 160 q 279 272 332 231 q 246 211 263 244 q 215 147 229 178 q 194 94 201 117 q 188 65 186 72 q 186 51 190 57 q 175 46 182 46 q 167 49 172 46 q 160 74 157 54 q 172 120 163 94 q 197 176 182 146 q 224 231 211 206 q 245 274 236 256 q 253 294 254 292 q 247 301 253 296 q 235 312 242 306 q 222 324 228 318 q 214 331 217 329 q 202 350 199 340 q 217 360 206 360 q 228 356 222 360 q 256 344 236 350 q 274 342 264 343 q 283 353 276 342 q 305 397 289 365 q 350 485 321 429 q 428 629 379 542 q 444 659 432 638 q 468 704 457 681 q 487 749 479 728 q 489 776 494 769 q 481 779 486 779 q 422 758 464 779 q 328 705 381 738 q 222 633 276 672 q 124 556 167 593 q 60 487 82 518 q 50 440 38 456 q 62 431 54 436 q 78 422 69 426 q 95 415 88 418 q 106 413 103 413 q 118 403 117 410 q 114 390 119 396 m 354 381 q 329 348 339 361 q 321 335 319 335 q 340 331 321 333 q 388 329 360 329 q 412 329 399 329 q 438 332 425 329 q 585 372 514 343 q 718 441 657 401 q 828 526 779 481 q 910 615 878 572 q 954 695 942 658 q 954 754 967 732 q 913 772 944 772 q 808 745 874 772 q 666 668 743 718 q 508 545 589 618 q 354 381 426 472 z "},"S":{"ha":710,"x_min":-61,"x_max":758,"o":"m 76 94 q 160 86 114 86 q 319 106 233 86 q 476 157 404 126 q 596 226 549 188 q 642 299 643 264 q 618 341 642 322 q 558 375 594 360 q 478 403 522 390 q 394 430 435 417 q 319 456 353 443 q 271 483 286 468 q 261 558 238 513 q 328 639 281 596 q 436 719 376 682 q 558 781 496 757 q 668 806 621 806 q 700 801 686 806 q 729 778 721 796 q 729 736 738 760 q 729 729 728 729 q 735 731 731 731 q 742 732 740 732 q 758 718 758 732 q 756 709 758 711 q 747 705 753 707 q 731 700 740 703 q 708 689 721 697 q 697 674 707 688 q 675 647 688 661 q 650 619 663 632 q 629 606 638 607 q 620 608 625 606 q 613 616 615 610 q 614 633 611 622 q 626 657 617 643 q 664 692 643 681 q 696 728 685 704 q 693 775 717 768 q 685 777 689 776 q 674 778 681 778 q 630 773 654 778 q 592 764 606 768 q 519 734 558 754 q 441 690 479 714 q 369 638 403 665 q 313 584 335 610 q 283 537 290 558 q 289 503 275 515 q 342 476 303 489 q 428 449 381 463 q 526 417 476 435 q 611 378 575 400 q 663 326 647 356 q 660 260 679 297 q 586 185 640 222 q 461 121 532 149 q 310 76 390 93 q 158 58 231 58 q 46 73 96 58 q -32 122 -4 88 q -49 192 -61 158 q 1 257 -36 226 q 91 314 38 288 q 199 360 144 340 q 303 390 254 379 q 378 400 351 400 q 384 399 381 400 q 390 399 388 399 q 413 390 406 397 q 422 377 421 383 q 419 366 422 371 q 408 361 415 361 q 399 367 401 363 q 385 372 396 371 q 289 358 349 372 q 168 319 229 343 q 56 264 107 294 q -14 201 6 233 q -22 164 -26 181 q -4 133 -18 147 q 31 110 10 119 q 76 94 53 100 z "},"T":{"ha":436,"x_min":3,"x_max":856,"o":"m 13 722 q 60 742 18 731 q 165 765 103 754 q 304 785 228 776 q 453 796 381 793 q 482 797 476 797 q 490 800 488 797 q 500 803 496 803 q 508 800 506 803 q 531 797 511 799 q 582 794 551 796 q 650 791 613 793 q 723 785 688 789 q 789 776 758 782 q 836 763 819 771 q 853 743 851 756 q 849 726 856 732 q 835 721 842 721 q 821 735 821 721 q 790 748 821 742 q 712 758 758 754 q 611 766 665 763 q 513 769 557 769 q 506 759 511 767 q 497 743 501 751 q 486 728 492 735 q 476 721 481 721 q 471 722 474 721 q 465 725 468 724 q 406 626 440 686 q 338 498 372 567 q 269 359 303 429 q 210 231 235 289 q 171 131 185 172 q 160 79 157 90 q 159 67 163 72 q 149 61 156 61 q 133 74 140 61 q 137 113 129 83 q 159 181 144 142 q 193 263 174 219 q 231 346 213 307 q 264 415 249 385 q 285 458 279 446 q 299 513 294 481 q 293 569 304 546 q 256 609 283 593 q 193 638 228 625 q 122 659 158 650 q 58 677 86 668 q 17 697 31 686 q 13 722 3 708 m 49 710 q 65 703 47 708 q 122 686 82 697 q 192 665 157 676 q 254 639 226 654 q 301 602 282 624 q 326 550 321 581 q 328 544 328 549 q 328 542 328 543 q 343 571 328 542 q 404 681 381 642 q 440 739 428 719 q 457 763 453 758 q 460 768 461 768 q 262 753 368 768 q 68 715 156 739 q 55 712 61 713 q 49 710 49 711 z "},"U":{"ha":629,"x_min":-22,"x_max":764,"o":"m 47 438 q 27 447 32 438 q 29 463 22 456 q 40 465 33 465 q 57 468 46 464 q 93 486 69 472 q 132 513 117 500 q 158 544 139 517 q 203 601 178 571 q 253 657 228 632 q 299 682 279 682 q 314 674 308 682 q 307 634 325 660 q 260 581 289 608 q 202 530 232 554 q 160 496 172 506 q 118 429 142 467 q 73 350 94 392 q 35 267 51 308 q 15 190 19 226 q 15 169 14 181 q 18 147 15 157 q 28 128 21 136 q 49 121 36 121 l 53 121 q 122 150 82 121 q 208 226 161 179 q 305 334 254 274 q 407 457 356 394 q 508 580 458 519 q 599 688 557 640 q 676 764 642 735 q 731 793 710 793 q 750 782 744 793 q 735 703 764 760 q 657 561 707 646 q 545 368 607 476 q 431 133 483 260 q 418 101 421 111 q 415 86 415 90 q 415 81 415 82 q 413 75 415 79 q 404 71 408 71 q 390 79 394 71 q 388 96 386 86 q 397 126 390 106 q 489 326 435 226 q 594 511 543 425 q 683 663 644 597 q 726 758 721 728 q 726 765 729 765 q 718 760 726 765 q 658 706 696 746 q 573 613 619 667 q 475 497 526 560 q 375 376 424 435 q 283 267 326 317 q 211 188 240 217 q 121 115 161 138 q 51 92 81 92 q -8 137 7 92 q 1 256 -22 182 q 29 324 13 289 q 61 389 46 360 q 88 437 76 418 q 100 456 100 456 q 94 454 100 457 q 81 448 89 451 q 63 441 72 444 q 47 438 54 438 z "},"V":{"ha":478,"x_min":-32,"x_max":688,"o":"m 171 685 q 117 596 144 651 q 67 476 90 540 q 27 344 44 411 q 3 220 10 276 q 0 126 -4 164 q 24 79 4 88 q 36 76 32 76 q 89 99 58 76 q 156 159 119 121 q 236 247 193 197 q 326 353 279 297 q 365 447 347 406 q 415 539 382 488 q 467 613 433 567 q 539 704 501 660 q 612 781 576 749 q 665 815 647 814 q 682 809 676 817 q 685 790 688 801 q 650 724 681 771 q 576 618 619 676 q 483 499 532 560 q 394 390 435 438 q 369 360 378 371 q 354 342 360 350 q 346 324 349 333 q 336 293 343 314 q 328 246 326 254 q 330 231 331 233 q 326 226 329 229 q 317 221 322 221 q 308 224 314 221 q 299 251 297 233 q 304 283 301 268 q 288 266 304 286 q 245 217 271 246 q 191 158 219 189 q 139 106 163 126 q 84 65 111 81 q 33 50 57 50 q -3 64 13 50 q -26 110 -19 78 q -28 184 -32 138 q -14 287 -25 231 q 15 404 -3 343 q 55 522 33 465 q 101 626 76 578 q 150 703 125 674 q 164 711 157 711 q 176 703 172 711 q 171 685 179 696 m 382 418 q 401 440 382 418 q 450 499 421 463 q 513 579 479 535 q 576 665 547 624 q 629 742 607 708 q 650 778 651 776 q 635 766 649 779 q 610 740 621 753 q 508 624 551 681 q 438 522 465 567 q 396 449 410 478 q 382 418 382 421 z "},"W":{"ha":792,"x_min":18,"x_max":896,"o":"m 118 561 q 92 525 104 544 q 69 488 79 506 q 55 458 60 471 q 51 439 50 444 q 54 426 54 429 q 51 419 54 422 q 40 414 46 414 q 24 429 31 414 q 36 482 18 444 q 88 565 54 522 q 157 642 121 607 q 228 698 193 676 q 285 719 263 719 q 307 706 301 719 q 301 672 313 694 q 268 614 290 650 q 215 527 246 578 q 149 408 185 476 q 88 277 110 333 q 58 181 65 221 q 55 156 56 169 q 57 140 54 143 q 72 148 60 138 q 96 174 85 158 q 147 247 122 207 q 200 335 171 286 q 265 443 229 385 q 351 572 301 501 q 366 594 358 583 q 382 604 374 604 q 392 600 388 604 q 393 575 404 592 q 351 486 369 538 q 320 380 332 435 q 304 272 308 325 q 306 176 300 218 q 328 108 311 133 q 375 82 346 82 q 483 142 415 82 q 650 346 551 201 q 663 365 663 364 q 658 369 664 367 q 633 389 644 375 q 615 421 622 403 q 615 495 606 453 q 645 583 624 538 q 697 672 667 628 q 757 749 726 715 q 816 805 788 783 q 863 825 844 826 q 892 799 889 824 q 885 737 896 775 q 853 651 875 699 q 808 558 832 604 q 762 474 785 513 q 725 413 739 435 q 712 391 714 394 q 714 388 710 388 l 719 388 q 741 391 735 389 q 751 393 747 393 q 758 390 756 393 q 762 376 765 383 q 747 364 758 368 q 732 361 740 361 q 692 360 724 361 q 658 310 679 340 q 609 245 636 279 q 552 176 582 211 q 491 115 522 142 q 430 70 460 88 q 374 53 400 53 q 327 69 349 53 q 292 122 306 86 q 274 235 272 174 q 286 350 276 297 q 319 476 299 414 q 311 465 319 476 q 291 434 303 453 q 265 392 279 415 q 238 346 250 368 q 206 291 226 326 q 161 219 185 256 q 113 152 138 182 q 69 114 89 122 q 56 111 64 111 q 28 154 28 111 q 46 246 28 193 q 91 356 64 299 q 150 469 118 413 q 210 572 182 525 q 258 650 239 618 q 279 689 278 682 q 265 686 281 693 q 226 662 250 679 q 173 619 201 644 q 118 561 144 593 m 794 749 q 722 663 756 711 q 667 566 689 614 q 640 476 646 518 q 650 411 633 435 q 665 398 656 404 q 678 392 674 392 q 699 422 681 392 q 743 497 718 451 q 795 594 768 542 q 841 692 822 647 q 867 767 860 738 q 860 797 874 797 q 794 749 844 797 z "},"X":{"ha":699,"x_min":-43,"x_max":843,"o":"m 397 436 q 232 277 299 344 q 120 165 165 210 q 47 99 75 121 q -4 78 18 78 q -37 103 -32 78 q -39 156 -43 128 q -5 266 -32 203 q 63 397 22 329 q 150 532 103 465 q 246 653 197 599 q 338 744 294 707 q 414 789 382 781 q 428 792 425 792 q 455 778 444 792 q 463 733 465 764 q 459 708 461 721 q 453 672 457 694 q 444 610 449 649 q 431 507 439 572 l 431 503 q 454 522 431 503 q 494 556 465 532 q 560 609 522 579 q 640 672 599 639 q 719 731 682 704 q 785 776 757 758 q 825 793 814 793 q 843 776 843 793 q 840 764 843 772 q 833 746 838 756 q 822 729 828 736 q 813 722 817 722 q 801 729 808 722 q 801 744 796 738 q 803 754 806 751 q 770 733 803 754 q 685 672 738 711 q 565 579 632 633 q 426 463 497 525 q 425 420 425 442 q 426 380 425 399 q 427 347 426 361 q 428 325 428 332 q 440 261 431 293 q 468 192 449 229 q 497 141 485 160 q 519 113 510 122 q 536 101 529 104 q 549 99 543 99 l 554 99 q 561 97 558 99 q 565 81 569 90 q 544 71 560 71 q 502 92 529 71 q 443 179 475 114 q 417 240 426 213 q 404 294 408 267 q 399 356 400 322 q 397 436 397 390 m 400 475 q 416 613 407 557 q 431 701 425 668 q 436 749 436 735 q 426 764 436 764 q 423 763 424 764 q 419 763 422 763 q 345 715 389 754 q 253 620 301 676 q 159 496 206 564 q 74 361 113 428 q 12 235 36 294 q -14 135 -12 175 q -1 106 -14 106 q 40 130 11 106 q 117 201 69 154 q 235 317 165 247 q 400 475 304 386 z "},"Y":{"ha":868,"x_min":-43,"x_max":832,"o":"m 90 497 q 99 493 94 493 q 103 494 101 493 q 107 494 104 494 q 119 482 119 494 q 99 467 119 467 q 75 474 88 467 q 56 501 63 482 q 60 561 46 528 q 104 628 75 594 q 174 695 133 663 q 256 753 214 728 q 335 794 297 779 q 399 810 374 810 q 429 798 419 810 q 432 758 439 786 q 396 679 424 725 q 332 579 368 633 q 257 466 296 525 q 188 346 218 407 q 330 390 260 372 q 476 419 400 407 q 483 419 481 419 q 487 421 485 419 q 492 426 489 422 q 504 436 496 429 q 547 472 519 449 q 604 519 574 496 q 665 558 635 542 q 717 575 696 575 q 721 574 719 575 q 725 574 722 574 q 746 535 750 569 q 735 503 743 519 q 718 473 726 486 q 703 451 710 460 q 697 440 697 442 l 700 440 l 718 440 q 741 441 731 440 q 760 442 751 442 q 815 437 800 442 q 832 421 831 432 q 819 408 832 408 q 810 410 814 408 q 792 413 803 413 q 765 413 781 413 q 713 412 739 413 q 675 410 686 411 q 567 279 625 346 q 440 158 508 213 q 294 70 372 104 q 128 36 217 36 q 40 53 79 36 q -24 111 0 69 q -33 177 -43 146 q 2 235 -24 208 q 65 285 28 263 q 138 325 101 308 q 150 331 149 331 q 157 346 151 332 q 205 433 176 386 q 264 526 233 479 q 324 616 294 572 q 374 694 353 660 q 404 753 394 729 q 404 782 414 776 q 392 785 399 785 q 337 768 372 785 q 262 726 301 751 q 183 667 222 700 q 117 603 144 635 q 81 542 90 571 q 90 497 71 514 m 135 293 q 40 235 76 267 q 13 207 25 222 q -4 174 1 192 q -6 139 -10 157 q 17 101 -1 121 q 67 72 40 78 q 125 65 94 65 q 282 96 210 65 q 417 175 354 126 q 534 285 479 224 q 638 407 589 346 q 613 406 635 407 q 567 402 592 404 q 520 397 542 400 q 496 393 499 394 q 460 363 483 383 q 409 317 438 342 q 349 265 381 292 q 285 217 317 239 q 226 181 254 194 q 176 167 197 167 l 172 167 q 133 189 143 169 q 124 232 124 208 q 135 293 124 260 m 167 299 q 153 260 158 279 q 149 227 149 242 q 157 203 150 213 q 178 194 164 194 q 238 218 199 194 q 317 274 276 242 q 394 338 358 306 q 447 386 431 369 q 354 367 393 376 q 285 349 315 358 q 228 331 254 340 q 176 313 203 322 q 171 308 172 310 q 167 299 169 307 m 719 544 q 711 546 718 547 q 662 524 693 543 q 601 482 631 504 q 553 442 572 460 q 538 426 533 425 q 558 428 539 426 q 599 433 576 431 q 641 436 622 435 q 661 438 660 438 q 676 458 665 444 q 696 488 686 472 q 713 519 706 504 q 719 544 719 535 z "},"Z":{"ha":703,"x_min":-96,"x_max":814,"o":"m 61 496 q 47 551 32 521 q 94 595 56 569 q 191 649 133 621 q 319 704 249 676 q 461 753 390 732 q 598 788 532 775 q 713 801 664 801 q 732 801 724 801 q 749 799 740 800 q 805 771 796 792 q 799 722 814 750 q 753 660 785 693 q 688 594 722 626 q 649 559 675 582 q 591 508 624 536 q 523 448 558 479 q 456 389 488 417 q 525 383 486 388 q 582 361 564 378 q 590 344 593 351 q 579 335 586 338 l 576 335 q 569 338 571 335 q 556 346 568 342 q 514 355 543 350 q 425 363 485 360 q 290 253 342 293 q 210 192 239 213 q 170 164 181 171 q 160 156 160 157 q 179 149 160 156 q 228 132 199 142 q 290 113 257 122 q 347 101 322 104 q 371 99 356 100 q 406 99 386 99 q 471 101 438 99 q 518 110 504 103 q 529 114 526 114 q 535 113 533 114 q 542 103 540 110 q 539 92 543 97 q 490 75 528 79 q 413 71 453 71 q 365 72 386 71 q 333 75 344 72 q 282 87 308 79 q 229 103 256 94 q 180 119 203 111 q 139 132 157 126 q 129 135 128 135 q 123 133 126 135 q 108 125 119 131 q 33 83 74 103 q -49 64 -7 64 q -54 65 -49 64 q -67 68 -60 65 q -83 78 -75 71 q -93 99 -90 85 q -90 122 -96 108 q -71 147 -85 135 q -34 169 -57 160 q 22 181 -11 179 q 74 176 50 181 q 124 165 97 172 q 219 233 172 199 q 301 297 265 268 q 359 344 338 325 q 381 363 381 363 q 343 361 361 363 q 313 361 328 361 q 292 360 299 361 q 207 345 232 353 q 171 338 182 338 q 163 340 168 338 q 163 360 154 349 q 203 374 171 368 q 274 383 236 379 q 347 389 313 388 q 396 390 382 390 q 417 392 415 390 q 445 417 422 397 q 500 464 468 436 q 569 525 532 492 q 642 590 607 558 q 705 650 676 622 q 747 694 733 678 q 774 732 767 718 q 780 753 782 746 q 769 765 778 761 q 744 771 760 769 q 728 773 736 772 q 710 774 719 774 q 598 760 663 774 q 465 726 533 747 q 328 679 396 706 q 205 626 260 653 q 114 577 150 600 q 71 539 78 554 q 75 519 67 529 q 99 506 83 510 q 121 488 122 499 q 113 475 119 478 q 90 480 108 474 q 61 496 72 486 m -7 149 q -42 135 -28 144 q -62 115 -56 125 q -64 99 -68 106 q -44 92 -60 92 q -15 96 -32 92 q 20 108 1 100 q 54 125 39 117 q 89 144 71 133 q 81 147 89 146 q 63 151 72 149 l 46 151 q 15 151 31 151 q -7 149 -1 150 z "},"[":{"ha":292,"x_min":-53,"x_max":368,"o":"m 306 732 q 244 592 285 678 q 156 413 203 507 q 61 226 108 318 q -19 64 14 133 q 3 65 -7 64 q 17 68 14 67 q 19 69 18 68 q 22 69 19 69 q 34 63 29 69 q 36 50 39 57 q 25 42 33 44 q 6 38 17 39 q -15 35 -4 36 q -32 35 -26 35 q -52 48 -51 35 q -31 107 -53 61 q 37 241 -10 153 q 158 479 83 329 q 242 655 214 590 q 284 753 269 719 q 306 795 299 786 q 329 804 314 804 l 338 804 q 357 801 351 804 q 367 788 367 796 q 358 776 368 779 q 353 775 357 775 q 347 776 350 775 q 333 778 343 778 q 329 778 331 778 q 325 774 328 778 q 318 761 322 771 q 306 732 314 751 z "},"\\":{"ha":236,"x_min":47,"x_max":219,"o":"m 218 711 q 196 635 219 704 q 140 431 172 565 q 107 285 119 343 q 86 193 94 228 q 73 143 78 158 q 64 126 68 128 q 62 126 63 126 q 60 125 61 125 q 58 126 58 125 q 56 126 57 126 q 54 128 54 126 q 47 139 47 132 q 50 165 47 146 q 74 276 60 217 q 103 397 88 336 q 134 514 118 457 q 163 615 150 571 q 184 688 175 660 q 194 718 193 715 q 206 724 199 724 q 218 711 217 724 z "},"]":{"ha":289,"x_min":-78,"x_max":358,"o":"m -56 83 l -36 83 l -32 83 l -24 83 q -14 87 -18 83 q -1 105 -10 90 q 20 147 7 119 q 56 224 33 175 q 113 347 79 274 q 194 524 146 419 q 265 668 239 617 q 306 744 292 719 q 322 775 319 769 q 319 781 325 781 l 315 781 q 300 782 308 781 q 289 792 292 783 q 296 806 286 801 q 310 808 301 808 q 334 806 321 808 q 350 801 347 804 q 358 790 358 797 q 346 760 357 782 q 313 699 335 739 q 257 592 290 660 q 209 490 235 546 q 157 376 183 433 q 105 263 131 318 q 58 165 79 208 q 23 93 38 121 q 4 63 8 65 q -19 56 -3 58 q -47 54 -35 54 q -61 56 -58 54 q -76 72 -78 60 q -62 85 -74 85 q -56 83 -58 85 z "},"^":{"ha":278,"x_min":168,"x_max":275,"o":"m 267 714 q 266 699 271 704 q 254 693 261 693 q 238 710 242 693 q 237 719 236 714 q 238 732 238 725 q 240 747 239 739 q 234 741 242 750 q 217 721 226 732 q 195 695 201 703 q 182 688 189 688 q 180 688 181 688 q 178 689 179 689 q 169 699 171 692 q 178 717 168 706 q 235 783 219 764 q 261 801 251 801 q 268 799 263 801 q 274 783 275 794 q 271 758 274 771 q 266 732 268 744 q 267 714 264 719 z "},"_":{"ha":457,"x_min":-12,"x_max":364,"o":"m 358 314 q 335 306 354 306 q 276 308 315 306 q 165 311 238 311 q 103 311 138 311 q 29 308 69 311 q 22 308 26 308 q 14 307 18 307 q -5 310 3 307 q -12 322 -12 313 q -4 335 -12 332 q 10 335 -4 335 q 48 337 25 336 q 101 338 71 338 q 163 338 131 338 q 231 338 197 338 q 291 336 264 338 q 336 333 318 335 q 357 328 354 331 q 358 314 364 321 z "},"`":{"ha":274,"x_min":208,"x_max":268,"o":"m 229 776 q 237 767 231 776 q 249 748 243 758 q 261 728 256 738 q 267 717 267 718 q 263 704 268 710 q 250 700 257 699 q 240 710 247 700 q 226 731 233 719 q 214 753 219 743 q 208 768 208 764 q 219 781 208 781 q 229 776 225 781 z "},"a":{"ha":317,"x_min":-39,"x_max":333,"o":"m -31 322 q -26 374 -39 346 q 8 426 -14 401 q 55 468 29 451 q 101 485 81 485 q 128 469 121 485 q 131 458 131 463 q 133 426 132 454 q 183 467 163 451 q 215 482 204 482 q 228 475 225 482 q 230 463 231 469 q 222 442 229 457 q 208 399 211 418 q 203 369 204 379 q 206 349 200 354 q 219 343 213 343 l 224 343 q 247 355 235 346 q 272 376 260 364 q 297 399 285 388 q 317 417 308 410 q 333 407 332 414 q 326 393 333 400 q 303 372 318 386 q 272 343 289 358 q 242 322 256 328 q 218 315 229 315 q 184 335 194 315 q 175 374 174 354 q 178 398 176 383 q 186 429 181 413 q 188 433 188 432 q 186 433 188 435 q 158 412 181 432 q 108 368 136 392 q 49 325 79 344 q -3 306 19 306 q -31 322 -21 306 m -3 354 q -6 341 -6 347 q -6 333 -7 335 q 1 333 -4 332 q 13 336 7 333 q 37 349 24 340 q 65 369 50 358 q 92 392 79 381 q 113 410 104 403 q 105 426 106 418 q 104 457 104 433 q 99 458 103 458 q 82 453 96 458 q 33 414 60 442 q -3 354 7 386 z "},"b":{"ha":258,"x_min":-49,"x_max":276,"o":"m 121 314 q 99 297 113 307 q 72 279 86 288 q 43 265 57 271 q 18 258 29 258 q -1 263 8 258 q -12 275 -10 267 q -17 281 -14 281 q -19 279 -18 281 q -28 276 -25 276 q -43 283 -36 276 q -44 308 -49 292 q -22 368 -40 325 q 1 420 -17 382 q 41 508 18 458 q 90 613 64 558 q 138 712 115 667 q 180 786 161 757 q 206 815 199 815 q 208 815 207 815 q 210 814 208 814 q 215 779 228 808 q 203 768 208 768 q 184 740 199 768 q 149 672 169 713 q 106 585 128 632 q 65 497 83 538 q 33 430 46 457 q 22 403 21 403 q 35 415 24 403 q 64 442 46 426 q 106 473 82 457 q 156 497 129 489 q 169 501 163 500 q 183 503 176 503 q 206 497 196 503 q 218 476 215 490 q 217 456 219 467 q 212 435 215 444 q 206 421 208 426 q 203 415 203 415 q 225 416 210 415 q 258 417 240 417 q 274 402 272 414 q 257 389 276 390 q 216 387 228 388 q 183 383 204 386 q 156 349 168 364 q 121 314 143 333 m 0 321 q 6 326 0 318 q 53 367 26 351 q 106 391 81 382 q 149 403 131 400 q 168 408 167 407 q 192 469 193 453 q 182 475 192 475 q 153 467 172 475 q 110 443 133 458 q 65 407 88 428 q 24 360 42 386 q 8 337 17 351 q 0 321 0 322 m 89 354 q 34 317 57 339 q 13 286 11 294 q 24 288 13 285 q 52 299 35 290 q 92 325 69 308 q 136 367 114 342 q 138 372 140 372 q 116 365 133 371 q 89 354 99 358 z "},"c":{"ha":246,"x_min":-29,"x_max":275,"o":"m 11 326 q 43 315 22 315 q 91 327 63 315 q 149 355 119 339 q 204 388 178 371 q 246 417 231 406 q 247 386 275 407 q 204 355 231 372 q 149 323 178 338 q 92 299 121 308 q 42 289 64 289 q -13 312 3 289 q -23 366 -29 335 q 9 430 -17 397 q 76 483 35 463 q 121 494 99 494 q 153 481 144 494 q 149 446 163 468 q 131 424 139 431 q 117 418 124 418 q 106 424 110 418 q 106 435 103 429 q 118 451 108 440 q 128 465 128 461 l 126 467 l 122 467 q 104 464 115 467 q 61 441 83 458 q 24 403 39 424 q 3 360 8 382 q 11 326 -1 339 z "},"d":{"ha":267,"x_min":-46,"x_max":363,"o":"m 125 321 q 123 359 119 336 q 135 408 126 382 q 155 461 143 435 q 177 509 167 488 q 194 544 188 531 q 201 557 201 557 q 183 531 201 557 q 147 474 163 497 q 132 447 132 450 q 128 439 133 442 q 111 418 122 436 q 89 384 103 406 q 58 342 75 363 q 24 305 42 321 q -8 286 7 289 l -12 286 q -37 301 -28 286 q -36 351 -46 315 q -15 397 -29 374 q 18 439 0 419 q 57 471 36 458 q 96 483 78 483 q 113 481 107 483 q 115 479 115 479 l 117 478 q 128 494 117 478 q 178 572 150 528 q 233 663 206 617 q 288 753 261 708 q 336 835 315 799 q 346 840 340 840 q 360 829 357 840 q 348 784 363 818 q 309 703 333 750 q 256 604 285 657 q 203 501 228 551 q 163 408 179 450 q 149 342 147 365 q 153 327 150 331 q 167 324 156 324 q 190 335 178 325 q 215 357 203 344 q 238 383 228 369 q 256 404 249 396 q 260 410 258 408 q 264 415 263 413 q 267 417 265 417 q 281 393 293 410 q 258 364 272 381 q 229 332 244 347 q 196 306 214 317 q 161 294 178 294 q 125 321 135 294 m -8 315 q 25 344 6 322 q 61 391 44 367 q 90 435 78 415 q 101 454 101 454 q 96 456 101 456 q 85 454 92 456 q 69 447 78 453 q 25 407 43 431 q -3 362 7 383 q -14 326 -12 340 q -8 315 -15 311 z "},"e":{"ha":182,"x_min":-31,"x_max":203,"o":"m 0 338 q 29 321 7 321 q 71 332 49 321 q 110 356 93 343 q 142 382 129 371 q 165 400 156 393 q 182 417 175 410 q 199 400 203 410 q 190 386 194 390 q 157 356 175 372 q 119 326 139 340 q 77 303 99 313 q 33 294 56 294 q -10 308 7 294 q -29 344 -28 321 q -14 399 -31 368 q 44 465 3 431 q 117 506 90 506 q 133 500 122 506 q 140 465 149 488 q 110 422 131 443 q 63 384 89 400 q 18 368 38 368 q 15 369 15 368 q 11 369 14 369 q 6 370 8 369 q 3 371 4 371 q -1 358 0 371 q 0 338 -3 344 m 111 476 q 83 461 100 474 q 51 435 67 449 q 26 409 36 421 q 17 396 15 397 q 29 399 18 394 q 56 413 40 403 q 87 436 71 422 q 111 468 103 450 q 111 476 117 478 z "},"f":{"ha":146,"x_min":-131,"x_max":169,"o":"m -129 92 q -118 140 -131 104 q -90 215 -106 176 q -62 285 -75 254 q -49 315 -49 315 q -64 317 -57 315 q -72 333 -78 322 q -62 342 -69 340 q -35 347 -54 344 q -4 410 -25 368 q 41 496 17 451 q 90 577 65 540 q 133 626 115 614 q 141 631 138 629 q 149 632 144 632 q 161 624 157 632 q 158 592 169 611 q 119 536 146 572 q 95 504 101 513 q 83 496 89 496 q 74 499 82 496 q 57 469 68 489 q 35 428 46 450 q 14 387 24 407 q 0 357 4 367 q 20 363 -1 354 q 69 384 42 372 q 119 406 96 396 q 146 417 143 417 q 158 410 154 418 q 157 396 163 403 q 135 384 154 393 q 92 365 115 375 q 47 345 68 354 q 22 335 26 336 q 50 306 46 322 q 46 266 54 289 q 17 215 38 243 q -31 150 -4 186 q -47 130 -36 143 q -69 103 -57 117 q -94 81 -82 90 q -115 74 -107 72 q -129 92 -126 75 m -18 314 q -33 284 -21 314 q -60 217 -46 254 q -86 149 -75 181 q -97 115 -97 118 q -78 135 -97 113 q -35 190 -58 158 q 6 252 -12 221 q 24 296 25 283 q 17 306 24 303 q -7 313 10 308 q -13 314 -10 314 q -18 314 -17 314 z "},"g":{"ha":225,"x_min":-151,"x_max":242,"o":"m 111 289 q 89 245 103 272 q 58 187 75 218 q 22 124 42 156 q -17 65 3 92 q -56 17 -36 38 q -94 -10 -76 -3 q -111 -12 -106 -12 q -140 2 -129 -12 q -147 46 -151 17 q -113 135 -140 92 q -49 217 -86 179 q 31 289 -11 256 q 110 347 74 322 q 117 361 110 347 q 132 392 124 375 q 147 423 140 408 q 153 439 153 438 q 136 423 153 439 q 99 387 119 407 q 57 347 78 367 q 28 322 36 328 q -8 308 8 308 q -33 321 -25 308 q -35 357 -40 333 q -17 397 -31 376 q 15 435 -3 418 q 53 462 33 451 q 90 472 74 472 q 124 453 113 472 q 130 456 125 451 q 142 466 135 460 q 156 478 149 472 q 171 483 164 483 q 176 482 175 483 q 183 475 179 481 q 188 465 188 469 q 184 444 189 458 q 173 416 179 431 q 161 390 167 401 q 156 378 156 378 q 163 381 156 376 q 181 391 171 385 q 204 405 192 397 q 225 417 217 413 q 242 405 242 414 q 231 389 242 396 q 215 380 225 386 q 192 367 204 374 q 169 353 181 360 q 153 343 158 347 q 139 333 143 336 q 131 326 135 331 q 124 315 128 322 q 111 289 119 307 m 13 163 q 33 199 21 178 q 57 242 46 221 q 75 278 68 263 q 82 293 82 293 q 56 274 82 294 q -5 221 29 254 q -72 145 -39 188 q -117 60 -104 103 q -111 15 -129 15 q -64 51 -96 15 q 13 163 -32 88 m 46 425 q -1 370 11 399 q -8 338 -14 342 q 6 340 -8 335 q 28 357 13 343 q 60 387 44 371 q 89 417 76 403 q 101 432 101 431 q 90 446 101 446 q 68 439 81 446 q 46 425 56 432 z "},"h":{"ha":281,"x_min":-40,"x_max":300,"o":"m 281 417 q 296 408 292 415 q 290 392 300 401 q 255 363 279 382 q 208 336 231 343 q 188 332 199 332 q 149 354 160 332 q 146 400 139 376 q 163 438 151 418 q 172 458 174 457 q 144 439 169 460 q 81 375 119 418 q 22 312 49 339 q -21 285 -4 285 q -24 285 -22 285 q -26 286 -25 286 q -37 299 -37 292 q -26 348 -40 308 q 10 442 -12 388 q 62 557 33 496 q 119 672 90 618 q 171 762 147 725 q 207 806 194 799 q 215 808 213 808 q 227 803 222 808 q 231 790 232 799 q 223 768 231 783 q 211 750 215 753 q 203 747 206 747 q 199 748 200 747 q 197 749 199 749 q 184 731 196 750 q 159 688 172 711 q 135 643 146 664 q 122 621 124 622 q 78 531 101 581 q 37 435 56 481 q 6 359 18 390 q -6 325 -7 328 q 10 340 -6 324 q 46 378 25 356 q 91 426 67 401 q 135 465 115 451 q 183 489 164 489 q 201 478 197 489 q 200 453 206 467 q 189 431 196 443 q 177 405 182 418 q 172 381 172 392 q 179 363 171 369 q 189 360 182 360 q 212 367 199 360 q 238 383 225 374 q 263 402 251 393 q 281 417 275 411 z "},"i":{"ha":165,"x_min":-31,"x_max":182,"o":"m 10 319 q 17 317 13 317 q 43 326 26 317 q 78 349 60 336 q 112 374 96 361 q 135 392 128 386 q 147 402 142 397 q 157 410 153 407 q 165 417 161 414 q 181 405 182 413 q 169 388 179 397 q 140 362 160 378 q 99 330 121 346 q 54 302 76 314 q 17 290 32 290 q -23 330 -15 290 q 13 444 -31 369 q 23 461 19 457 q 33 465 26 465 l 36 465 q 45 459 42 464 q 46 449 49 454 q 18 392 29 418 q 3 347 8 368 q 10 319 -1 326 m 57 504 q 50 525 43 510 q 68 539 54 539 q 83 525 82 539 q 78 509 85 515 q 65 503 72 503 q 57 504 60 503 z "},"j":{"ha":99,"x_min":-301,"x_max":114,"o":"m 99 417 q 113 401 114 411 q 97 383 113 390 q 74 372 88 379 q 47 358 61 365 q 22 344 33 351 q 1 332 10 336 q -12 324 -11 325 q -19 313 -14 324 q -44 265 -28 297 q -83 194 -61 233 q -130 115 -104 156 q -181 42 -156 75 q -231 -13 -207 8 q -272 -35 -254 -35 q -276 -34 -275 -35 q -279 -33 -276 -33 q -301 1 -300 -28 q -286 69 -301 29 q -242 153 -271 108 q -174 238 -212 199 q -123 283 -150 261 q -51 332 -96 304 q -40 340 -43 338 q -34 344 -36 342 q -30 351 -32 346 q -22 367 -28 356 q -14 385 -19 374 q -3 411 -8 397 q 6 438 3 425 q 7 456 10 450 q 8 469 4 464 q 19 474 13 474 q 31 469 26 474 q 36 453 36 464 q 32 428 36 443 q 22 401 28 414 q 13 378 17 388 q 10 369 10 369 q 49 392 22 376 q 99 417 75 407 m -119 250 q -198 168 -165 213 q -249 85 -231 124 q -272 22 -268 47 q -268 -4 -276 -4 q -261 -1 -267 -4 q -207 52 -236 14 q -149 135 -178 90 q -97 224 -121 181 q -60 293 -72 267 q -98 267 -82 278 q -119 250 -114 256 m 42 500 q 33 520 28 507 q 50 533 39 533 q 57 532 54 533 q 65 515 67 526 q 53 500 64 504 q 46 499 50 499 q 43 500 43 499 q 42 500 42 500 z "},"k":{"ha":240,"x_min":-54,"x_max":251,"o":"m 238 386 q 203 368 225 378 q 156 350 181 358 q 106 337 131 342 q 64 332 81 332 q 17 340 32 332 q 0 349 3 349 q -4 338 0 349 q -13 315 -8 328 q -22 290 -18 301 q -26 274 -26 278 q -40 258 -31 258 q -54 271 -54 258 q -48 300 -54 283 q -34 334 -42 317 q -25 361 -26 351 q -22 372 -25 364 q -13 391 -18 381 q -3 412 -8 401 q 4 431 1 422 q 49 533 29 489 q 86 615 68 578 q 123 684 104 651 q 163 751 142 717 q 200 806 188 792 q 221 818 213 819 q 231 788 240 814 q 219 769 228 781 q 208 756 211 758 q 201 754 207 754 q 184 736 196 754 q 157 690 172 718 q 125 629 142 663 q 94 565 108 596 q 69 512 79 535 q 56 481 58 489 q 40 443 44 453 q 36 433 35 433 q 41 437 38 433 q 50 444 44 440 q 119 494 90 479 q 168 508 149 508 q 191 499 185 508 q 193 476 197 490 q 174 446 189 463 q 129 413 158 429 q 117 408 121 408 q 108 413 113 408 q 103 422 103 417 q 108 430 104 426 q 116 436 111 433 q 122 440 121 439 q 156 467 140 451 q 164 481 171 482 q 122 464 147 481 q 73 428 97 447 q 32 392 49 408 q 15 374 15 375 q 25 367 15 371 q 46 361 35 363 q 63 360 51 360 q 108 366 83 360 q 155 380 132 372 q 196 395 178 388 q 221 407 214 403 q 228 411 225 410 q 235 414 232 413 q 240 417 238 415 q 250 400 251 407 q 238 386 249 393 z "},"l":{"ha":147,"x_min":-37,"x_max":249,"o":"m -7 249 q 1 244 -6 244 q 37 270 14 244 q 83 328 60 296 q 124 387 106 360 q 147 417 143 414 q 168 407 167 414 q 158 385 169 400 q 63 256 100 299 q -3 217 26 214 q -37 263 -37 218 q -16 375 -37 308 q 41 520 6 442 q 113 667 76 599 q 181 783 150 735 q 224 839 213 832 q 233 842 229 842 q 247 828 244 842 q 242 809 249 819 q 224 778 235 799 q 208 767 221 767 l 204 767 q 183 735 203 768 q 137 651 164 703 q 80 537 110 600 q 27 416 50 474 q -7 313 4 358 q -7 249 -18 267 z "},"m":{"ha":328,"x_min":-61,"x_max":347,"o":"m 142 346 q 119 364 122 346 q 120 406 115 382 q 133 455 125 431 q 146 490 142 479 q 140 485 143 488 q 118 461 136 482 q 65 394 89 428 q 24 334 42 361 q -8 290 6 307 q -35 272 -22 272 q -42 274 -39 272 q -39 338 -61 285 q -30 360 -37 343 q -13 394 -22 376 q 5 424 -4 411 q 21 438 14 438 q 31 433 26 438 q 34 424 35 429 q 26 407 33 419 q 14 385 21 399 q 0 358 7 371 q -11 335 -7 344 q -15 325 -15 325 q -5 340 -15 325 q 22 378 6 354 q 57 428 38 401 q 97 479 76 456 q 135 518 117 503 q 165 533 153 533 q 178 526 174 533 q 178 503 183 519 q 167 467 174 488 q 152 424 160 446 q 144 382 144 401 l 144 376 q 143 374 143 375 q 158 390 144 374 q 192 422 178 413 q 215 431 206 431 q 233 418 228 431 q 243 390 239 406 q 251 363 247 375 q 263 351 254 351 q 279 360 269 351 q 299 380 289 368 q 316 402 308 392 q 328 417 324 413 q 347 406 346 414 q 338 388 347 399 q 300 345 319 367 q 260 324 281 324 q 239 332 250 324 q 226 350 231 339 q 219 372 222 361 q 214 392 215 383 q 211 401 213 400 q 175 368 207 404 q 156 350 163 354 q 142 346 150 346 z "},"n":{"ha":239,"x_min":-53,"x_max":257,"o":"m -7 342 q -10 333 -10 333 l -4 340 q 17 365 3 349 q 65 420 46 401 q 92 444 83 439 q 106 449 100 449 q 126 436 121 449 q 131 417 131 431 q 134 392 132 404 q 140 369 136 379 q 156 360 144 360 q 168 363 157 360 q 185 373 175 365 q 205 389 194 381 q 225 406 215 397 q 239 417 235 414 q 256 407 254 414 q 250 393 257 400 q 231 374 242 385 q 206 354 219 364 q 178 338 192 344 q 153 331 165 331 q 124 344 133 331 q 110 375 114 358 q 105 405 106 392 q 103 418 104 418 q 71 385 100 418 q 4 306 42 353 q -20 278 -12 285 q -35 272 -28 272 l -37 272 q -50 285 -47 275 q -40 331 -53 297 q -10 399 -26 364 q 23 463 7 435 q 40 493 39 492 q 53 499 46 499 q 64 491 60 499 q 61 475 68 483 q 47 451 57 471 q 26 410 38 432 q 6 369 15 389 q -7 342 -4 349 z "},"o":{"ha":222,"x_min":-37,"x_max":236,"o":"m -3 329 q 8 325 -1 325 q 44 340 22 325 q 82 389 67 354 q 88 404 85 396 q 89 415 90 413 q 84 422 89 417 q 73 435 79 428 q 61 453 67 443 q 54 471 56 463 q 58 490 51 483 q 74 497 64 497 q 94 490 86 497 q 107 472 101 482 q 115 449 113 461 q 119 428 118 436 q 156 413 140 417 q 182 410 171 410 q 203 412 193 410 q 222 417 213 414 q 235 403 236 414 q 224 390 235 393 q 195 385 208 386 q 167 383 182 383 q 126 394 138 386 q 115 397 115 403 q 102 363 113 381 q 77 331 92 346 q 45 307 63 317 q 10 297 28 297 q -10 302 -1 297 q -26 318 -19 307 q -31 362 -37 339 q -10 404 -25 385 q 20 437 4 424 q 43 450 36 450 q 55 445 50 450 q 57 433 60 440 q 44 419 56 426 q 18 394 33 413 q -1 363 10 383 q -3 329 -11 342 z "},"p":{"ha":267,"x_min":-186,"x_max":279,"o":"m 179 376 q 118 332 154 353 q 50 311 82 311 q 1 335 19 311 q -26 302 -14 317 q -48 269 -37 288 q -70 226 -58 251 q -99 161 -82 201 q -115 122 -104 147 q -135 68 -125 96 q -151 17 -144 40 q -154 -17 -157 -7 q -157 -28 -153 -24 q -167 -32 -161 -32 q -180 -24 -174 -32 q -182 4 -186 -15 q -158 84 -176 36 q -117 185 -140 132 q -67 293 -93 239 q -16 391 -40 347 q 28 463 8 435 q 57 493 49 492 l 63 493 q 73 485 71 493 q 73 469 75 478 q 65 451 71 460 q 50 442 58 443 q 44 437 47 440 q 29 413 42 433 l 13 385 q 24 394 11 385 q 122 467 81 446 q 190 489 164 489 q 224 467 218 489 q 208 414 231 446 q 236 416 219 415 q 267 417 253 417 q 279 401 279 411 q 265 390 279 390 q 251 390 261 390 q 231 388 242 389 q 212 385 221 386 q 199 385 203 385 q 187 383 188 382 q 179 376 186 383 m 56 386 q 74 390 54 383 q 160 407 94 397 q 172 411 169 410 q 182 424 175 413 q 194 445 188 431 q 193 463 201 460 l 188 463 q 152 452 174 463 q 110 428 131 442 q 74 403 89 415 q 56 386 58 390 m 35 350 q 32 340 24 346 q 49 338 36 338 q 78 343 63 338 q 108 356 94 349 q 129 369 121 364 q 135 375 138 375 q 119 372 132 375 q 91 366 107 369 q 60 358 75 363 q 35 350 44 354 z "},"q":{"ha":228,"x_min":-64,"x_max":247,"o":"m -51 24 q -35 91 -49 53 q -7 163 -22 129 q 20 222 8 197 q 32 247 32 246 q 13 252 32 249 q -14 256 -6 256 q -40 262 -32 257 q -50 272 -49 267 q -48 283 -51 278 q -37 289 -44 288 q -22 288 -31 290 q 0 285 -14 285 q 24 287 11 285 q 57 296 38 289 q 121 417 103 385 q 136 450 139 450 q 114 427 125 439 q 92 404 103 415 q 53 365 72 385 q 16 330 33 346 q -16 304 -1 314 q -40 294 -31 294 q -54 301 -50 294 q -51 344 -64 315 q -15 401 -39 372 q 39 452 10 431 q 90 474 68 474 q 107 468 100 474 q 110 467 110 467 l 111 465 q 117 468 114 465 q 129 481 119 471 q 160 511 149 500 q 179 522 171 522 q 186 519 181 522 q 192 513 189 517 q 192 500 194 508 q 125 367 150 414 q 100 319 100 321 q 116 329 100 318 q 153 357 132 340 q 197 390 175 374 q 228 417 218 407 q 246 406 244 414 q 239 390 247 397 q 205 363 225 379 q 163 330 185 346 q 120 300 140 314 q 86 279 100 286 q 76 273 78 275 q 71 264 75 271 q 107 179 119 238 q 90 131 104 164 q 55 66 75 99 q 13 8 35 33 q -29 -17 -10 -17 q -51 24 -53 -17 m -17 58 q -24 28 -21 43 q -24 13 -26 13 q 3 39 -18 13 q 44 101 24 65 q 76 172 64 136 q 75 226 88 207 q 67 235 72 231 q 58 239 61 240 q 49 219 58 239 q 27 172 39 200 q 3 113 15 143 q -17 58 -10 82 m -12 358 q -22 342 -17 351 q -28 331 -28 332 q -9 344 -28 328 q 32 383 10 361 q 73 424 54 404 q 92 444 92 443 q 81 444 92 447 q 56 429 71 440 q 22 401 40 418 q -12 358 3 383 z "},"r":{"ha":211,"x_min":-61,"x_max":226,"o":"m 133 444 q 117 433 132 446 q 80 401 101 421 q 35 356 58 382 q -7 306 13 331 q -28 271 -24 283 q -42 258 -33 258 q -47 260 -44 258 q -57 286 -61 265 q -49 308 -56 292 q -33 345 -42 324 q -12 390 -24 367 q 8 435 -1 414 q 33 485 24 467 q 54 504 43 504 q 61 501 56 504 q 65 480 72 494 q 53 460 58 465 q 41 440 49 456 q 25 408 33 425 q 6 365 15 389 q 15 374 6 364 q 40 400 25 385 q 73 432 54 415 q 110 461 92 449 q 142 475 129 475 q 157 465 153 475 q 162 441 161 454 q 163 417 163 428 q 169 407 164 407 q 194 411 185 408 q 211 417 204 414 q 222 402 226 410 q 214 392 218 394 q 205 388 211 390 q 190 383 199 386 q 178 381 183 382 q 169 381 174 381 q 150 386 156 381 q 139 402 142 393 q 135 420 136 411 q 134 436 133 429 q 133 444 135 443 z "},"s":{"ha":150,"x_min":-39,"x_max":167,"o":"m -11 313 q 15 335 3 326 q 44 356 28 344 q 26 377 39 367 q 6 398 14 388 q -1 421 -3 408 q 21 449 0 433 q 55 469 32 457 q 97 481 78 481 q 111 478 103 481 q 121 462 122 472 q 113 441 119 451 q 97 423 106 431 q 83 415 88 415 q 73 417 78 415 q 68 426 68 419 q 72 435 68 431 q 78 444 75 440 q 83 449 82 447 q 82 450 85 450 q 51 436 71 447 q 28 418 32 425 q 40 401 24 411 q 67 372 56 392 q 103 392 83 381 q 150 417 124 403 q 166 403 167 413 q 150 385 165 393 q 122 370 136 378 q 89 351 108 363 q 74 342 74 343 q 71 335 74 342 q 58 307 69 322 q 33 278 47 292 q 5 256 19 265 q -19 246 -10 246 q -32 250 -26 246 q -38 263 -37 254 q -33 283 -39 271 q -11 313 -26 296 m 15 300 l 21 306 l 19 304 q 14 300 18 304 l 8 294 q 15 300 11 294 z "},"t":{"ha":114,"x_min":-219,"x_max":263,"o":"m -168 557 q -176 556 -171 556 q -189 556 -182 556 q -210 557 -207 556 q -219 571 -218 561 q -199 592 -219 583 q -144 608 -178 601 q -72 617 -111 614 q 5 623 -32 621 q 69 626 42 625 q 107 626 97 626 q 163 720 140 682 q 201 781 186 758 q 227 814 217 804 q 244 824 238 824 q 254 818 249 824 q 256 794 263 810 q 244 774 253 786 q 231 754 236 761 q 218 747 225 749 l 214 747 q 208 742 211 747 q 192 715 206 738 q 176 690 185 704 q 160 663 168 676 q 147 640 153 650 q 140 628 142 631 q 152 625 138 624 q 199 619 167 626 q 226 609 218 615 q 234 598 233 603 q 231 589 235 593 q 222 585 226 585 q 215 586 218 585 q 203 590 213 588 q 174 595 193 593 q 122 599 156 597 q 99 556 114 583 q 68 497 85 529 q 34 427 51 464 q 3 356 17 390 q -18 294 -10 322 q -25 247 -26 265 q 16 288 -7 261 q 60 342 39 315 q 96 391 81 369 q 114 417 111 413 q 126 389 144 413 q 75 317 101 351 q 18 249 49 282 q -32 219 -14 218 q -53 249 -51 224 q -44 310 -54 274 q -15 389 -33 346 q 24 472 4 432 q 63 546 44 513 q 92 597 82 579 q -32 594 31 597 q -154 576 -94 590 q -162 574 -161 574 q -161 569 -162 575 q -168 557 -161 558 z "},"u":{"ha":263,"x_min":-33,"x_max":293,"o":"m 29 319 q 60 351 38 326 q 109 402 83 375 q 158 453 135 429 q 192 482 182 476 q 204 486 199 486 q 213 483 207 486 q 216 460 222 475 q 199 426 210 444 q 176 387 188 407 q 167 350 165 367 q 175 340 167 339 q 197 351 183 340 q 224 376 210 363 q 248 401 238 389 q 263 417 258 413 q 274 388 293 413 q 267 381 272 386 q 254 367 261 375 q 240 353 247 360 q 228 340 233 346 q 172 313 199 313 q 140 349 143 313 q 142 374 139 361 q 150 396 146 386 q 158 411 154 406 q 160 415 161 417 q 143 399 158 415 q 109 362 128 382 q 73 324 90 342 q 50 300 56 306 q 1 275 21 275 q -32 314 -29 275 q -24 360 -33 333 q -3 413 -15 388 q 20 456 8 438 q 36 478 32 474 q 46 481 39 481 q 57 474 53 481 q 51 456 61 467 q 28 417 42 443 q 6 367 15 392 q -5 323 -3 342 q 3 304 -7 304 q 29 319 13 304 z "},"v":{"ha":217,"x_min":-22,"x_max":233,"o":"m 8 311 q 15 308 10 308 q 32 316 22 308 q 51 334 42 324 q 69 356 61 344 q 83 372 78 367 q 95 390 94 388 q 97 401 96 392 q 107 435 97 413 q 130 479 117 457 q 158 519 143 501 q 182 536 172 536 q 196 525 193 536 q 192 501 199 518 q 174 466 185 485 q 153 429 164 447 q 138 403 143 411 q 128 388 129 390 q 129 383 126 386 l 147 383 q 185 399 167 389 q 217 417 203 408 q 233 406 232 414 q 222 390 233 397 q 186 371 208 381 q 157 358 164 361 q 138 354 147 354 q 118 359 125 354 q 110 363 111 364 q 96 344 106 358 q 73 317 86 331 q 44 292 60 303 q 14 281 29 281 q 3 282 7 281 q -21 321 -19 290 q -12 385 -22 351 q 15 446 -1 419 q 44 472 32 472 q 47 472 46 472 q 49 471 47 471 q 54 464 51 468 q 56 457 57 460 q 47 443 56 454 q 24 402 33 424 q 10 362 14 381 q 6 329 6 343 q 8 311 6 315 z "},"w":{"ha":260,"x_min":-33,"x_max":279,"o":"m 175 347 q 120 274 143 294 q 81 253 97 253 q 59 263 68 253 q 44 288 50 274 q 38 319 39 303 q 38 349 36 336 q 33 345 38 351 q 19 331 28 339 q 1 317 11 324 q -15 311 -8 310 q -31 337 -33 314 q -16 387 -28 360 q 11 437 -4 414 q 33 463 26 460 q 40 464 36 464 q 50 458 49 464 q 44 436 56 450 q 26 409 35 424 q 13 382 18 394 q 4 361 7 369 q 1 353 1 353 q 7 358 1 353 q 19 372 13 364 q 34 385 26 379 q 46 393 42 392 q 51 394 47 394 q 67 383 63 394 q 65 353 69 374 q 67 311 61 333 q 72 293 68 306 q 83 281 76 281 q 99 290 90 281 q 118 310 108 299 q 135 335 128 322 q 146 353 143 347 q 149 358 149 358 q 146 363 149 358 q 128 409 126 381 q 143 467 131 438 q 172 519 156 496 q 199 549 189 543 q 213 553 206 553 q 221 550 215 553 q 232 513 235 542 q 219 454 229 485 q 200 399 210 424 q 190 375 190 375 l 199 378 q 231 396 214 382 q 260 417 249 410 q 276 408 274 415 q 269 393 279 401 q 227 361 249 372 q 175 347 206 350 m 200 510 q 184 485 193 501 q 167 451 175 468 q 157 417 160 433 q 160 389 154 400 q 163 385 163 385 q 169 399 164 385 q 179 422 174 407 q 190 451 185 436 q 199 483 194 467 q 203 510 203 499 q 203 515 203 515 q 200 510 203 515 z "},"x":{"ha":196,"x_min":-110,"x_max":229,"o":"m -89 242 q -91 241 -90 242 q -94 240 -92 240 q -105 246 -100 240 q -104 266 -110 251 q -78 306 -99 281 q -14 374 -58 332 q -4 383 -6 381 q -3 389 -3 385 q -3 403 -3 393 q 4 438 -3 414 q 15 469 7 447 q 29 497 22 490 q 38 500 32 500 q 47 496 43 500 q 51 488 51 492 q 47 475 50 483 q 38 453 43 467 q 28 415 32 439 q 26 408 26 408 q 29 410 28 408 q 108 470 76 446 q 162 509 140 494 q 195 530 183 524 q 214 536 207 536 q 225 531 219 536 q 226 517 229 525 q 210 490 224 510 q 199 478 203 481 q 192 474 196 475 q 181 478 183 472 q 176 485 178 485 q 156 470 175 485 q 111 437 136 456 q 63 400 86 418 q 31 375 39 382 q 24 369 24 369 q 24 361 24 368 q 36 314 25 338 q 68 290 47 290 q 97 303 81 290 q 110 315 101 307 q 128 335 118 324 q 148 358 138 346 q 167 381 158 371 q 176 392 171 386 q 186 404 181 399 q 196 417 190 410 q 213 408 211 417 q 206 389 215 400 q 188 367 200 382 q 162 335 175 351 q 136 304 149 318 q 118 285 124 290 q 68 263 94 263 q 25 283 44 263 q -3 346 6 303 q -56 287 -40 307 q -78 258 -72 267 q -83 247 -83 249 q -89 242 -83 244 z "},"y":{"ha":242,"x_min":-128,"x_max":263,"o":"m 150 332 q 126 281 142 314 q 90 208 110 247 q 46 128 69 169 q -1 53 22 88 q -49 -4 -25 18 q -92 -29 -72 -26 l -96 -29 q -125 7 -122 -29 q -103 97 -128 43 q -27 216 -79 151 q 108 336 25 281 q 121 345 117 343 q 127 350 125 347 q 131 356 129 353 q 136 368 132 360 q 142 381 139 375 q 143 386 144 386 q 124 374 142 389 q 83 340 106 360 q 38 303 60 321 q 7 281 17 285 q -14 275 -3 275 q -43 306 -40 275 q -33 350 -44 322 q -8 405 -22 378 q 21 453 7 432 q 38 475 35 474 q 47 479 42 479 q 61 469 57 479 q 56 454 63 464 q 33 419 47 444 q 6 369 18 394 q -13 323 -7 343 q -11 303 -19 303 q -9 303 -10 303 q -7 304 -8 304 q 25 327 4 308 q 69 367 46 346 q 117 403 93 388 q 156 419 140 419 q 171 410 165 419 q 173 389 178 400 q 171 378 168 378 q 181 383 172 378 q 200 394 189 388 q 223 408 211 401 q 242 417 235 414 q 258 406 254 415 q 244 388 263 396 q 226 377 240 385 q 197 360 213 369 q 169 343 182 351 q 150 332 156 335 m -87 0 q -48 35 -69 10 q -6 94 -26 61 q 35 164 15 128 q 70 231 56 200 q 94 281 85 261 q 103 300 103 300 q 74 277 101 301 q 11 214 46 253 q -56 128 -24 175 q -96 36 -87 81 q -98 22 -97 29 q -99 8 -99 15 q -94 -1 -99 -1 q -87 0 -90 -1 z "},"z":{"ha":261,"x_min":-151,"x_max":279,"o":"m -122 13 q -142 26 -132 13 q -137 71 -151 40 q -87 147 -121 108 q -18 215 -53 185 q 42 265 17 244 q 68 288 68 285 q 62 299 65 292 q 56 311 58 306 q 47 326 49 319 q 47 339 44 332 q 60 354 50 346 q 88 376 69 363 q 140 418 122 403 q 166 441 158 433 q 172 451 174 449 q 165 453 171 453 q 85 434 129 453 q 14 392 42 415 q 1 386 8 386 q -11 394 -7 386 q -8 410 -15 403 q 16 428 -3 417 q 59 452 35 440 q 110 473 83 464 q 158 482 138 482 q 190 472 179 482 q 197 442 206 460 q 167 405 188 424 q 120 367 146 386 q 75 332 94 347 q 83 319 81 324 q 92 301 85 315 q 190 370 144 339 q 261 417 236 401 q 278 403 276 413 q 264 386 279 393 q 229 363 253 379 q 181 331 206 347 q 133 298 156 314 q 101 275 111 282 q 99 268 99 274 q 77 189 100 233 q 21 105 54 144 q -49 38 -12 65 q -112 11 -86 11 q -122 13 -119 11 m -110 65 q -118 44 -118 50 q -114 39 -118 39 q -60 63 -89 39 q -3 118 -31 86 q 43 185 24 150 q 68 242 63 219 q 69 251 71 251 q 47 235 69 251 q -5 191 25 218 q -65 131 -35 164 q -110 65 -94 97 z "},"{":{"ha":313,"x_min":-21,"x_max":424,"o":"m 8 160 q 28 199 15 175 q 56 251 40 224 q 89 309 72 279 q 118 365 106 339 q 133 397 132 393 q 129 403 135 400 q 118 415 118 411 q 126 437 114 429 q 161 467 138 444 q 219 540 185 490 q 293 690 253 590 q 310 735 300 708 q 334 785 321 761 q 363 826 347 808 q 396 843 378 843 q 408 840 400 843 q 422 822 424 833 q 410 811 419 811 q 403 813 406 811 q 396 814 400 814 q 378 802 389 813 q 360 776 368 792 q 322 690 338 733 q 285 601 306 646 q 233 511 264 556 q 151 422 203 467 q 161 410 158 415 q 161 393 164 404 q 138 344 157 379 q 98 270 119 310 q 57 194 76 231 q 31 143 38 158 q 23 119 28 135 q 14 86 18 103 q 8 56 10 69 q 11 42 7 43 q 16 37 14 40 q 19 31 18 33 q 16 19 21 24 q 4 15 11 15 q -6 17 0 15 q -14 26 -11 19 q -19 53 -21 35 q -14 92 -18 72 q -3 131 -10 113 q 8 160 4 150 z "},"|":{"ha":288,"x_min":10,"x_max":356,"o":"m 38 58 q 29 56 32 56 q 22 57 22 56 q 11 72 13 61 q 13 98 10 83 q 21 128 15 113 q 31 156 26 144 q 94 317 57 232 q 171 485 131 401 q 251 644 211 568 q 322 781 290 721 q 339 800 331 799 q 353 794 349 800 q 355 785 356 790 q 350 767 354 781 q 332 738 340 740 q 314 710 329 738 q 276 637 299 682 q 225 534 253 592 q 169 416 197 476 q 117 297 142 356 q 73 192 92 239 q 44 114 54 144 q 40 78 35 83 q 44 67 44 74 q 38 58 43 61 z "},"~":{"ha":232,"x_min":25,"x_max":207,"o":"m 58 406 q 47 393 50 394 q 42 392 44 392 q 28 408 25 392 q 38 424 31 415 q 56 443 46 433 q 76 459 65 453 q 94 465 86 465 q 126 436 113 465 q 149 410 140 410 q 159 413 154 410 q 172 424 164 417 q 193 435 188 435 l 196 435 q 204 418 207 431 q 199 410 204 417 q 185 398 193 404 q 168 387 178 392 q 149 382 158 382 q 140 383 143 382 q 122 396 131 388 q 109 413 114 404 q 101 430 104 422 q 94 438 97 438 q 79 428 92 439 q 58 406 67 417 z "},"}":{"ha":313,"x_min":-58,"x_max":357,"o":"m 3 26 q -17 19 -4 22 q -36 17 -29 17 q -53 26 -49 17 q -50 42 -58 35 q -40 46 -46 46 q -24 47 -31 46 q -8 53 -17 47 q 17 88 4 60 q 44 153 29 115 q 74 233 58 190 q 107 315 90 276 q 142 383 124 353 q 179 422 160 413 q 176 435 181 422 q 174 469 171 447 q 202 552 178 501 q 254 654 226 603 q 303 749 282 706 q 324 810 325 793 q 319 808 324 811 q 310 804 315 804 q 297 815 300 804 q 305 832 294 824 q 326 840 315 840 q 349 826 340 840 q 339 765 357 808 q 294 670 321 722 q 239 566 267 618 q 203 478 211 514 q 202 446 199 460 q 208 422 206 432 q 210 406 211 413 q 193 397 208 400 q 164 368 179 394 q 133 303 149 342 q 101 220 117 265 q 68 135 85 175 q 35 65 51 94 q 3 26 18 35 z "},"€":{"ha":250,"x_min":-1,"x_max":267,"o":"m 33 371 q 75 375 54 375 q 81 377 79 375 q 85 386 82 379 q 88 394 88 392 q 89 397 89 396 l 88 399 l 83 399 q 61 397 75 399 q 43 393 47 396 q 36 392 40 392 q 24 404 25 392 q 39 421 22 417 q 74 425 51 424 q 101 426 97 426 q 120 459 106 428 q 161 524 135 490 q 208 568 188 556 q 240 581 228 581 q 263 546 267 581 q 256 524 261 540 q 244 492 251 508 q 230 463 238 475 q 215 450 222 450 q 207 453 211 450 q 203 464 203 457 q 208 480 203 468 q 220 506 214 492 q 231 533 226 519 q 235 550 236 546 q 227 548 235 553 q 208 533 219 543 q 185 508 197 522 q 163 478 174 494 q 153 464 158 472 q 144 448 149 456 q 138 434 140 440 q 135 428 135 428 q 140 427 136 428 q 147 426 143 426 q 185 422 174 426 q 201 411 197 417 q 201 401 204 406 q 193 394 197 396 q 191 394 192 394 q 189 393 190 393 q 185 394 188 393 q 176 396 183 394 q 157 398 169 397 q 121 400 144 399 q 111 377 111 379 q 125 374 111 375 q 144 372 135 374 q 157 367 153 369 q 162 352 164 361 q 149 343 160 343 q 139 344 143 343 q 122 346 132 346 q 97 347 113 346 q 86 312 90 328 q 81 276 82 296 q 82 263 81 263 q 92 267 82 261 q 111 278 103 272 q 144 308 136 296 q 160 324 153 321 q 178 310 178 324 q 167 292 176 304 q 142 267 157 279 q 111 244 128 254 q 81 235 94 235 q 56 254 61 235 q 53 275 53 263 q 56 300 53 288 q 62 324 58 313 q 68 344 65 336 q 64 346 68 346 q 44 344 57 346 q 26 339 32 342 q 17 336 18 336 q 6 344 8 336 q 33 371 -1 363 z "},"‚":{"ha":208,"x_min":-22,"x_max":42,"o":"m 40 329 q 34 311 39 324 q 22 286 29 299 q 6 264 14 274 q -11 254 -3 254 q -22 267 -22 254 q -22 272 -22 271 q -15 281 -21 274 q 3 309 -3 297 q 11 329 8 321 q 17 342 14 338 q 26 346 19 346 q 37 341 32 346 q 40 329 42 336 z "},"ƒ":{"ha":281,"x_min":-44,"x_max":296,"o":"m -33 185 q -14 201 -26 186 q 13 240 -1 217 q 42 288 28 263 q 69 336 57 314 q 88 374 81 358 q 93 389 94 389 q 83 388 92 390 q 68 383 75 386 q 61 382 65 382 q 47 392 49 382 q 57 408 46 403 q 69 413 61 411 q 87 416 78 414 q 103 419 96 418 q 110 421 110 421 q 121 442 111 424 q 144 488 131 461 q 176 546 158 515 q 211 602 193 576 q 246 645 229 628 q 275 663 263 663 q 292 650 286 663 q 292 635 296 642 q 281 629 288 629 q 278 630 279 629 q 276 631 278 631 q 250 610 268 635 q 212 552 232 585 q 176 489 192 519 q 156 450 160 458 q 143 426 146 431 q 146 422 140 422 q 172 417 161 422 q 181 408 179 414 q 179 396 183 401 q 169 390 175 390 q 163 392 167 390 q 154 394 160 393 l 147 394 q 136 394 142 394 q 128 393 131 394 q 113 362 124 383 q 88 315 101 340 q 58 260 74 289 q 26 209 42 232 q -3 172 11 186 q -29 157 -18 157 q -33 158 -32 157 q -35 158 -33 158 q -44 172 -44 161 q -33 185 -44 182 z "},"„":{"ha":276,"x_min":-31,"x_max":69,"o":"m 28 331 q 24 313 28 324 q 13 291 19 301 q -2 273 6 281 q -18 265 -10 265 q -24 267 -22 265 q -31 279 -31 269 q -27 288 -31 283 q -18 297 -24 292 q -8 310 -12 301 q 0 332 -3 318 q 6 342 1 339 q 14 346 10 346 q 28 331 28 346 m 33 268 q 26 267 31 267 q 17 270 21 267 q 14 281 13 274 q 17 288 14 285 q 24 294 19 290 q 32 306 28 299 q 40 328 36 314 q 54 344 46 344 l 57 344 q 69 333 68 343 q 64 308 69 322 q 50 283 58 294 q 33 268 42 271 z "},"…":{"ha":263,"x_min":-3,"x_max":188,"o":"m 153 294 q 138 305 142 297 q 135 321 133 313 q 144 335 138 329 q 161 342 151 342 q 181 331 175 342 q 180 307 188 319 q 158 294 172 294 l 153 294 m 85 294 q 69 305 74 297 q 67 321 65 313 q 76 335 69 329 q 93 342 83 342 q 113 331 107 342 q 112 307 119 319 q 90 294 104 294 l 85 294 m 25 342 q 44 331 39 342 q 44 307 51 319 q 22 294 36 294 l 17 294 q 1 305 6 297 q -1 321 -3 313 q 8 335 1 329 q 25 342 15 342 z "},"†":{"ha":300,"x_min":-39,"x_max":353,"o":"m 147 396 q 114 326 138 374 q 65 224 90 278 q 19 122 40 169 q -10 51 -3 74 q -24 40 -14 40 q -34 46 -29 40 q -36 60 -39 51 q -21 98 -33 69 q 8 163 -8 126 q 44 241 25 200 q 78 315 63 282 q 105 371 94 349 q 115 393 115 393 q 102 392 114 393 q 83 390 90 390 l 79 390 q 69 400 71 392 q 75 414 68 408 q 85 417 78 415 q 101 419 92 418 q 118 422 110 421 q 129 422 126 422 q 244 649 194 553 q 317 793 293 744 q 327 813 324 810 q 336 817 331 817 q 348 812 343 818 q 350 799 353 806 q 335 769 349 797 q 299 699 321 740 q 253 611 278 658 q 209 523 229 564 q 175 454 189 482 q 161 425 161 426 q 169 425 163 424 q 182 426 175 426 q 196 424 189 426 q 203 413 203 421 q 192 400 204 401 q 147 396 179 399 z "},"‡":{"ha":335,"x_min":10,"x_max":350,"o":"m 239 443 q 244 431 244 438 q 236 422 243 425 l 229 422 q 210 423 222 422 q 190 424 199 424 q 182 422 183 424 q 169 391 182 421 q 140 322 156 361 q 165 320 157 321 q 183 315 174 319 q 194 298 197 308 q 181 288 192 288 q 174 289 176 288 q 147 294 164 294 q 137 294 142 294 q 126 293 132 293 q 107 246 119 278 q 81 178 94 214 q 56 111 68 143 q 40 63 44 79 q 34 49 38 56 q 24 43 31 43 q 17 44 19 43 q 15 46 15 44 q 11 51 13 49 q 15 76 10 57 q 31 122 21 96 q 51 178 40 149 q 72 232 63 207 q 89 274 82 257 q 94 290 96 290 l 90 289 q 78 288 83 289 q 69 285 72 286 q 63 285 65 285 q 53 289 57 285 q 58 310 43 304 q 85 316 69 314 q 104 319 100 318 q 108 320 107 319 q 112 326 110 321 q 119 344 114 332 q 133 379 124 356 q 140 395 138 388 q 146 408 143 403 q 151 421 149 415 q 139 421 151 422 q 121 418 126 419 l 115 418 q 99 428 101 418 q 107 443 97 438 q 119 447 111 446 q 164 451 128 447 q 212 563 192 510 q 263 676 232 615 q 294 741 282 715 q 313 783 306 767 q 326 806 321 799 q 336 813 331 813 q 344 808 340 813 q 349 801 349 806 q 346 787 350 797 q 332 756 342 776 q 304 697 322 735 q 292 669 301 690 q 269 622 282 649 q 244 565 257 594 q 219 510 231 535 q 201 468 208 485 q 196 451 194 451 q 201 451 196 451 q 214 449 207 450 q 228 447 221 449 q 239 443 235 446 z "},"ˆ":{"ha":279,"x_min":158,"x_max":289,"o":"m 288 706 q 275 694 285 694 q 264 701 268 694 q 261 711 263 703 q 258 728 260 719 q 256 745 257 738 q 254 753 254 753 q 218 728 233 739 q 192 710 204 718 q 179 701 181 703 l 175 701 q 162 710 165 701 q 165 724 158 718 q 183 738 169 728 q 213 759 197 749 q 242 777 228 769 q 261 785 256 785 q 281 761 275 785 q 286 726 283 744 q 288 706 289 708 z "},"‰":{"ha":457,"x_min":-31,"x_max":444,"o":"m -28 151 q -6 185 -25 163 q 58 254 14 208 q 201 389 136 333 q 314 485 267 444 q 387 556 361 525 q 413 615 413 586 q 403 638 413 629 q 369 652 392 649 q 322 656 347 656 q 262 651 292 656 q 217 639 232 646 q 211 633 204 632 q 225 628 218 635 q 234 620 228 625 q 247 609 240 615 q 256 594 253 603 q 256 575 260 586 q 220 543 247 554 q 165 532 193 532 q 127 540 142 532 q 115 567 113 549 q 129 588 118 578 q 152 605 140 597 q 173 618 164 613 q 182 625 182 624 q 188 652 175 640 q 222 671 200 664 q 273 681 244 678 q 326 685 301 685 q 347 684 338 685 q 363 682 356 683 q 417 661 399 676 q 440 625 436 646 q 434 579 444 604 q 401 528 424 554 q 362 491 394 519 q 285 423 329 463 q 190 339 240 383 q 98 255 140 294 q 28 185 56 215 q 1 146 0 156 q -1 135 3 139 q -11 132 -6 132 l -15 132 q -28 151 -31 138 m 367 285 q 393 266 383 285 q 397 228 403 247 q 376 197 392 210 q 342 185 361 185 q 312 194 326 185 q 299 221 297 203 q 305 244 299 232 q 319 265 311 256 q 337 281 328 275 q 351 285 346 286 l 367 285 m 286 228 q 265 197 281 210 q 231 185 250 185 q 201 194 215 185 q 188 221 186 203 q 194 244 188 232 q 208 265 200 256 q 226 281 217 275 q 240 285 235 286 l 256 285 q 282 266 272 285 q 286 228 292 247 m 194 599 q 158 577 175 589 q 144 563 142 565 q 161 560 147 560 q 193 564 175 560 q 225 579 211 568 q 214 600 235 589 q 206 604 208 604 q 194 599 204 604 m 246 257 q 236 253 242 258 q 225 242 231 249 q 217 228 219 235 q 215 217 214 221 q 222 213 217 215 q 229 211 226 211 q 253 224 240 211 q 257 254 265 238 q 254 257 254 257 l 253 257 q 250 256 253 256 q 248 256 249 256 q 246 257 247 257 m 357 257 q 347 253 353 258 q 336 242 342 249 q 328 228 331 235 q 326 217 325 221 q 333 213 328 215 q 340 211 338 211 q 364 224 351 211 q 368 254 376 238 q 365 257 365 257 l 364 257 q 361 256 364 256 q 359 256 360 256 q 357 257 358 257 z "},"Š":{"ha":710,"x_min":-61,"x_max":818,"o":"m 76 94 q 160 86 114 86 q 319 106 233 86 q 476 157 404 126 q 596 226 549 188 q 642 299 643 264 q 618 341 642 322 q 558 375 594 360 q 478 403 522 390 q 394 430 435 417 q 319 456 353 443 q 271 483 286 468 q 261 558 238 513 q 328 639 281 596 q 436 719 376 682 q 558 781 496 757 q 668 806 621 806 q 700 801 686 806 q 729 778 721 796 q 729 736 738 760 q 729 729 728 729 q 735 731 731 731 q 742 732 740 732 q 758 718 758 732 q 756 709 758 711 q 747 705 753 707 q 731 700 740 703 q 708 689 721 697 q 697 674 707 688 q 675 647 688 661 q 650 619 663 632 q 629 606 638 607 q 620 608 625 606 q 613 616 615 610 q 614 633 611 622 q 626 657 617 643 q 664 692 643 681 q 696 728 685 704 q 693 775 717 768 q 685 777 689 776 q 674 778 681 778 q 630 773 654 778 q 592 764 606 768 q 519 734 558 754 q 441 690 479 714 q 369 638 403 665 q 313 584 335 610 q 283 537 290 558 q 289 503 275 515 q 342 476 303 489 q 428 449 381 463 q 526 417 476 435 q 611 378 575 400 q 663 326 647 356 q 660 260 679 297 q 586 185 640 222 q 461 121 532 149 q 310 76 390 93 q 158 58 231 58 q 46 73 96 58 q -32 122 -4 88 q -49 192 -61 158 q 1 257 -36 226 q 91 314 38 288 q 199 360 144 340 q 303 390 254 379 q 378 400 351 400 q 384 399 381 400 q 390 399 388 399 q 413 390 406 397 q 422 377 421 383 q 419 366 422 371 q 408 361 415 361 q 399 367 401 363 q 385 372 396 371 q 289 358 349 372 q 168 319 229 343 q 56 264 107 294 q -14 201 6 233 q -22 164 -26 181 q -4 133 -18 147 q 31 110 10 119 q 76 94 53 100 m 813 879 q 794 865 808 875 q 765 844 781 854 q 735 825 749 833 q 715 817 721 817 q 697 842 701 817 q 691 876 693 858 q 689 897 689 894 q 703 907 692 907 q 714 901 710 907 q 715 892 714 900 q 719 874 717 883 q 722 856 721 864 q 724 849 724 849 q 760 874 744 863 q 786 892 775 883 q 799 900 797 900 l 803 900 q 815 892 811 900 q 813 879 818 885 z "},"‹":{"ha":253,"x_min":15,"x_max":244,"o":"m 56 392 q 84 351 63 379 q 128 297 106 324 q 129 283 133 290 q 118 275 125 275 q 108 279 113 275 q 88 305 99 290 q 61 338 76 319 q 26 388 36 369 q 25 422 15 406 q 68 458 35 438 q 165 514 101 479 q 196 531 182 524 q 221 544 210 538 q 229 547 226 547 q 242 538 239 547 q 233 521 244 528 q 213 509 224 515 q 186 494 201 503 q 101 447 131 464 q 59 419 71 429 q 49 405 47 410 q 56 392 50 400 z "},"Œ":{"ha":1071,"x_min":-15,"x_max":1069,"o":"m 378 764 q 504 803 454 803 q 580 766 557 803 q 596 665 603 729 q 582 584 593 625 q 557 507 571 543 q 675 563 614 538 q 799 606 736 588 q 806 609 807 608 q 794 613 806 610 q 756 638 763 622 q 761 671 750 653 q 796 708 772 689 q 849 746 819 728 q 937 788 896 775 q 1008 801 978 801 q 1058 783 1046 801 q 1042 735 1069 765 q 1021 715 1024 717 q 1010 717 1015 714 q 1006 725 1006 721 q 1013 744 1004 735 q 1027 759 1021 753 q 1032 769 1033 765 q 1008 774 1031 774 q 933 758 971 774 q 863 722 894 742 q 809 683 831 703 q 783 656 788 664 q 789 643 779 649 q 810 636 796 639 q 838 631 824 633 q 863 627 851 629 q 879 624 875 625 q 885 604 892 617 q 861 593 881 596 q 789 575 842 590 q 665 531 728 557 q 543 471 603 504 q 429 398 483 438 q 329 313 375 358 q 264 233 286 269 q 245 167 242 196 q 279 121 249 139 q 371 94 310 103 q 435 90 400 90 q 530 97 479 90 q 633 116 581 103 q 736 149 685 129 q 835 196 788 169 q 865 215 843 200 q 911 247 888 229 q 955 280 935 264 q 979 304 975 296 q 992 313 983 313 q 1003 303 999 313 q 993 278 1008 293 q 973 260 988 272 q 940 235 958 249 q 903 208 922 221 q 869 185 885 194 q 777 138 829 160 q 667 99 725 115 q 549 72 608 82 q 433 63 489 63 q 352 69 390 63 q 283 90 314 75 q 226 53 254 67 q 169 39 197 39 q 122 51 142 39 q 90 81 103 63 q 70 122 78 99 q 58 168 63 146 q 19 188 36 176 q -8 226 3 199 q -14 270 -15 246 q -6 319 -12 294 q 10 369 0 344 q 31 413 21 393 q 90 506 58 465 q 151 578 122 547 q 205 634 181 610 q 243 678 229 658 q 325 782 286 740 q 379 826 364 824 q 394 821 388 826 q 400 808 401 815 q 385 796 400 793 q 368 786 381 797 q 343 761 356 775 q 321 735 331 747 q 311 724 311 724 q 331 735 313 722 q 378 764 350 749 m 564 735 q 541 767 557 757 q 504 776 525 776 q 428 758 471 776 q 347 713 386 739 q 278 662 308 688 q 239 622 247 636 q 151 458 183 536 q 103 322 119 381 q 85 228 88 263 q 89 193 83 193 q 157 197 131 193 q 225 214 183 201 q 328 351 249 278 q 519 488 407 424 q 544 555 532 521 q 563 622 556 589 q 570 683 569 654 q 564 735 571 713 m 58 210 q 70 301 60 256 q 96 391 81 347 q 130 476 111 435 q 168 557 149 518 q 94 465 129 517 q 38 365 60 414 q 13 274 17 315 q 35 211 10 232 q 47 203 39 207 q 57 199 54 199 q 58 204 58 199 q 58 210 58 207 m 257 104 q 218 183 214 135 q 88 164 151 164 q 118 89 97 111 q 167 67 139 67 q 210 76 186 67 q 257 104 233 86 z "},"‘":{"ha":274,"x_min":210,"x_max":278,"o":"m 278 786 q 271 776 278 783 q 243 729 246 749 q 236 703 240 710 q 225 697 232 697 q 219 699 221 697 q 218 699 219 699 q 213 719 210 703 q 224 754 215 736 q 244 787 232 772 q 265 801 256 801 q 271 800 269 801 q 278 786 278 796 z "},"’":{"ha":278,"x_min":211,"x_max":282,"o":"m 278 783 q 278 762 282 776 q 265 732 274 747 q 247 705 257 717 q 229 693 238 693 q 224 694 225 693 q 221 715 211 701 q 242 748 233 732 q 251 771 250 764 q 267 790 253 790 q 278 783 274 790 z "},"“":{"ha":279,"x_min":179,"x_max":283,"o":"m 232 763 q 215 733 224 751 q 207 707 207 714 q 204 696 208 700 q 194 692 200 692 q 181 706 182 692 q 184 727 179 714 q 195 753 189 740 q 208 775 201 765 q 217 786 214 785 q 226 789 219 789 q 238 783 233 789 q 232 763 242 776 m 251 717 q 248 706 253 710 q 238 703 243 703 q 226 708 231 703 q 225 728 221 714 q 231 743 226 733 q 240 763 235 753 q 253 779 246 772 q 267 786 260 786 q 279 778 275 786 q 275 763 283 771 q 268 753 272 760 q 260 739 264 746 q 253 726 256 732 q 251 717 251 719 z "},"”":{"ha":278,"x_min":181,"x_max":285,"o":"m 242 781 q 238 762 242 775 q 226 735 233 749 q 211 710 219 721 q 194 700 203 700 q 189 701 190 700 q 182 713 182 704 q 192 731 181 719 q 214 774 204 742 q 221 788 218 786 q 231 790 224 790 q 242 781 242 790 m 219 703 q 231 726 218 713 q 256 778 243 740 q 269 792 260 790 q 278 789 275 792 q 283 776 285 783 q 278 760 281 768 q 271 742 276 754 q 258 717 265 729 q 244 698 251 706 q 229 692 236 690 q 219 703 219 694 z "},"•":{"ha":292,"x_min":32,"x_max":267,"o":"m 92 483 q 167 501 131 501 q 224 489 199 501 q 260 453 249 476 q 265 419 267 438 q 251 383 263 400 q 218 350 239 365 q 168 328 197 335 q 131 324 150 324 q 78 335 100 324 q 44 365 56 347 q 32 402 32 382 q 44 439 32 422 q 49 449 49 444 q 52 458 49 453 q 64 469 56 463 q 92 483 72 475 z "},"–":{"ha":347,"x_min":40,"x_max":307,"o":"m 283 399 q 271 399 283 399 q 238 401 258 400 q 193 402 218 401 q 143 403 168 403 q 104 403 122 403 q 74 401 86 403 l 50 401 q 41 413 42 404 q 49 426 40 422 q 87 428 53 428 q 161 429 121 429 q 208 429 185 429 q 250 428 231 429 q 283 426 269 428 q 300 424 296 425 q 307 409 307 419 q 290 399 307 399 l 283 399 z "},"—":{"ha":583,"x_min":25,"x_max":554,"o":"m 65 429 q 197 430 139 429 q 304 431 256 431 q 442 429 392 431 q 519 425 493 428 q 549 417 544 422 q 550 403 554 411 q 536 396 547 396 q 510 397 528 396 q 460 400 493 399 q 377 403 428 401 q 250 404 326 404 q 183 404 218 404 q 108 403 149 404 q 79 402 92 403 q 58 401 67 401 q 33 404 33 401 q 26 413 28 407 q 28 424 25 418 q 36 428 31 428 q 65 429 42 429 z "},"˜":{"ha":279,"x_min":117,"x_max":321,"o":"m 182 756 q 174 753 179 756 q 162 746 168 750 q 151 737 156 742 q 146 729 146 732 q 133 719 143 719 q 126 722 132 719 q 119 738 117 728 q 133 758 122 749 q 156 775 143 768 q 181 782 169 782 q 202 774 196 782 q 214 754 208 767 q 240 726 228 726 q 265 737 251 726 q 299 758 279 747 q 304 760 300 760 q 316 752 311 760 q 315 738 321 744 q 303 727 313 733 q 281 715 293 721 q 258 704 269 708 q 239 700 246 700 q 215 708 225 700 q 197 727 204 717 q 187 747 190 738 q 182 756 183 756 z "},"™":{"ha":349,"x_min":88,"x_max":428,"o":"m 143 821 q 139 818 142 821 q 122 807 136 807 q 99 817 110 807 q 99 838 88 826 q 121 846 106 843 q 168 850 136 849 q 196 851 192 851 q 203 858 200 851 q 217 868 208 868 q 231 857 228 868 q 231 853 231 854 q 249 853 232 853 l 304 853 q 362 852 340 853 q 397 850 383 851 q 415 847 410 849 q 422 842 421 844 q 422 828 428 836 q 417 824 419 825 q 408 822 415 822 q 401 822 406 822 q 390 824 397 822 q 355 825 382 825 q 296 825 328 825 q 251 825 272 825 q 215 824 231 825 q 204 804 214 822 q 182 763 194 786 q 158 715 169 739 q 140 681 146 692 q 126 668 135 668 q 117 672 121 668 q 114 683 113 676 q 125 710 114 688 q 149 758 136 733 q 173 803 163 783 q 183 824 183 824 q 164 822 172 824 q 151 822 157 822 q 143 821 144 822 m 183 715 q 180 732 176 722 q 190 753 183 742 q 206 781 200 771 q 217 795 213 790 q 224 801 221 800 q 229 801 226 801 q 238 797 233 801 q 242 789 242 793 q 234 774 240 778 q 239 771 228 771 q 257 757 251 771 q 264 762 257 756 q 281 776 271 768 q 301 792 290 785 q 322 799 313 799 q 338 789 332 799 q 340 780 340 785 q 335 764 339 775 q 326 742 332 757 q 325 719 321 726 q 327 703 332 710 q 314 697 322 697 q 303 702 308 697 q 296 718 297 707 q 298 742 294 728 q 301 757 301 756 q 297 754 301 758 q 284 744 292 750 q 268 732 276 738 q 251 726 260 726 q 243 728 246 726 q 235 735 236 732 q 233 739 235 739 q 221 729 232 739 q 192 711 203 711 q 183 715 188 711 z "},"š":{"ha":150,"x_min":-39,"x_max":224,"o":"m -11 313 q 15 335 3 326 q 44 356 28 344 q 26 377 39 367 q 6 398 14 388 q -1 421 -3 408 q 21 449 0 433 q 55 469 32 457 q 97 481 78 481 q 111 478 103 481 q 121 462 122 472 q 113 441 119 451 q 97 423 106 431 q 83 415 88 415 q 73 417 78 415 q 68 426 68 419 q 72 435 68 431 q 78 444 75 440 q 83 449 82 447 q 82 450 85 450 q 51 436 71 447 q 28 418 32 425 q 40 401 24 411 q 67 372 56 392 q 103 392 83 381 q 150 417 124 403 q 166 403 167 413 q 150 385 165 393 q 122 370 136 378 q 89 351 108 363 q 74 342 74 343 q 71 335 74 342 q 58 307 69 322 q 33 278 47 292 q 5 256 19 265 q -19 246 -10 246 q -32 250 -26 246 q -38 263 -37 254 q -33 283 -39 271 q -11 313 -26 296 m 15 300 l 21 306 l 19 304 q 14 300 18 304 l 8 294 q 15 300 11 294 m 218 551 q 200 537 214 547 q 170 516 186 526 q 140 497 154 506 q 121 489 126 489 q 103 514 107 489 q 97 549 99 531 q 94 569 94 567 q 108 579 97 579 q 119 574 115 579 q 121 564 119 572 q 124 546 122 556 q 128 528 126 536 q 129 521 129 521 q 165 546 150 535 q 192 564 181 556 q 204 572 203 572 l 208 572 q 220 565 217 572 q 218 551 224 557 z "},"›":{"ha":281,"x_min":21,"x_max":250,"o":"m 99 307 q 68 290 82 297 q 43 276 54 283 q 35 274 38 274 q 23 284 25 274 q 31 300 21 294 q 51 313 40 306 q 78 326 63 319 q 164 375 135 358 q 205 401 193 392 q 215 416 217 411 q 210 429 214 421 q 181 469 201 442 q 136 524 160 497 q 135 538 131 531 q 146 546 139 546 q 156 542 151 546 q 176 516 165 531 q 203 483 188 501 q 239 434 228 453 q 240 399 250 415 q 197 363 231 383 q 99 307 163 343 z "},"œ":{"ha":296,"x_min":-37,"x_max":315,"o":"m 57 433 q 44 419 56 426 q 17 394 32 413 q -1 363 8 383 q -3 329 -11 342 q 8 325 -1 325 q 44 340 22 325 q 81 389 65 354 q 87 404 85 396 q 89 415 89 413 q 84 422 89 417 q 73 435 79 428 q 60 453 67 443 q 53 471 54 463 q 57 490 50 483 q 74 497 64 497 q 94 490 86 497 q 107 472 101 482 q 115 449 113 461 q 119 428 118 436 l 119 426 q 142 450 128 436 q 170 476 156 464 q 201 497 185 489 q 229 506 217 506 q 246 500 238 506 q 252 465 261 488 q 223 422 243 443 q 177 384 203 400 q 132 368 151 368 q 128 369 129 368 q 125 369 128 369 q 120 370 122 369 q 117 371 118 371 q 113 358 114 371 q 114 338 111 344 q 143 321 121 321 q 185 332 163 321 q 224 356 207 343 q 256 382 243 371 q 279 400 269 393 q 296 417 289 410 q 312 400 315 410 q 304 386 308 390 q 261 349 288 371 q 221 319 235 328 q 146 294 182 294 q 104 307 121 294 q 85 340 88 319 q 51 310 69 324 q 10 297 33 297 q -10 302 -1 297 q -26 318 -19 307 q -31 362 -37 339 q -11 404 -25 385 q 19 437 3 424 q 42 450 35 450 q 53 445 49 450 q 57 433 58 440 m 225 476 q 197 461 214 474 q 165 435 181 449 q 140 409 150 421 q 131 396 129 397 q 143 399 132 394 q 169 413 154 403 q 201 436 185 422 q 225 468 217 450 q 225 476 231 478 z "},"¡":{"ha":243,"x_min":-112,"x_max":267,"o":"m -106 -22 q -90 2 -97 -8 q -69 32 -82 13 q -35 86 -56 51 q 18 185 -15 121 q 39 226 24 194 q 75 301 54 258 q 118 394 96 344 q 160 487 140 443 q 191 563 179 531 q 203 606 203 596 q 214 625 200 625 q 221 622 215 625 q 230 599 233 615 q 222 569 226 582 q 188 482 214 544 q 126 344 161 419 q 51 190 90 268 q -21 56 13 113 q -30 40 -28 44 q -33 33 -32 35 q -35 28 -35 31 q -42 18 -36 25 q -70 -24 -57 -1 q -96 -47 -83 -46 q -108 -40 -103 -47 q -106 -22 -112 -33 m 258 699 q 267 682 267 696 q 261 665 267 669 q 249 660 256 660 q 231 669 238 660 q 240 692 225 678 q 249 698 246 697 q 258 699 251 699 z "},"¢":{"ha":246,"x_min":18,"x_max":236,"o":"m 47 279 q 51 290 47 282 q 58 308 54 299 q 67 326 63 318 q 71 333 71 333 q 64 335 71 335 q 49 336 57 335 q 32 342 40 338 q 21 357 24 346 q 26 384 18 368 q 50 417 35 400 q 88 451 65 435 q 135 481 110 468 l 146 486 q 166 528 156 506 q 179 556 176 550 q 193 567 183 567 q 203 562 199 567 q 206 550 207 557 q 202 540 206 549 q 194 523 199 532 q 188 508 190 514 q 186 501 185 501 q 191 502 188 501 q 200 503 194 503 q 222 496 215 503 q 222 457 236 483 q 196 432 208 432 q 185 440 189 432 q 189 456 182 449 q 197 467 192 460 q 201 475 201 474 q 197 476 201 476 q 186 473 192 475 q 175 469 181 471 q 168 465 169 467 q 160 451 167 464 q 146 421 154 438 q 129 388 138 404 q 118 367 121 372 q 163 377 150 372 q 183 382 176 382 q 192 379 189 382 q 191 360 203 368 q 160 348 179 353 q 122 340 140 343 q 103 338 103 338 q 98 324 103 335 q 86 300 93 313 q 72 278 79 288 q 60 268 65 268 q 47 279 50 268 m 51 374 q 53 363 46 363 q 71 363 56 363 q 86 364 86 363 l 125 443 q 116 438 125 443 q 94 422 107 432 q 70 399 82 411 q 51 374 58 386 z "},"£":{"ha":421,"x_min":-10,"x_max":454,"o":"m 82 210 q 142 292 114 246 q 193 382 169 339 q 178 379 185 379 q 165 379 172 379 q 158 397 153 385 q 168 405 161 403 q 184 408 175 407 q 201 410 193 410 q 210 414 208 411 q 226 443 214 419 q 254 499 238 467 q 292 570 271 532 q 336 642 314 608 q 380 703 358 676 q 419 738 401 729 q 432 740 424 740 q 448 733 442 740 q 451 713 454 725 q 443 689 449 704 q 435 671 438 674 q 425 667 431 667 q 413 676 415 667 q 416 694 411 683 q 418 704 421 704 q 412 699 417 704 q 396 681 407 694 q 346 608 372 653 q 296 519 319 563 q 242 415 268 469 q 247 414 242 414 q 259 413 253 414 q 272 409 265 413 q 278 399 278 406 q 275 390 278 393 q 267 385 271 385 q 260 385 264 385 q 249 386 256 386 q 239 386 244 386 q 226 385 233 386 q 176 296 200 338 q 118 211 151 254 q 143 210 125 210 q 183 210 161 210 l 247 210 q 287 214 279 211 q 301 215 294 217 q 311 203 310 213 q 297 188 313 193 q 275 185 290 186 q 240 183 260 183 q 199 182 221 182 q 160 182 178 182 l 117 182 l 97 182 q 92 181 93 182 q 86 175 90 179 q 49 147 65 156 q 22 139 33 139 q -3 154 3 139 q -4 181 -10 169 q 23 205 3 200 q 65 210 43 210 l 82 210 m 43 182 q 22 174 29 178 q 22 167 19 169 q 36 170 25 164 q 51 181 47 176 q 53 183 54 183 q 43 182 53 183 z "},"¤":{"ha":300,"x_min":19,"x_max":285,"o":"m 51 353 q 51 410 40 385 q 86 458 63 435 q 76 475 82 465 q 69 493 69 485 q 74 502 69 499 q 82 506 78 506 q 97 496 93 506 q 107 478 100 486 q 110 475 110 475 q 141 488 125 482 q 174 493 157 493 q 226 476 204 493 q 233 471 232 471 q 238 474 232 471 q 255 488 249 482 q 268 493 261 493 q 270 492 269 493 q 272 492 271 492 q 279 472 285 488 q 266 461 278 471 q 249 449 254 451 q 247 442 247 447 q 244 401 253 419 q 224 368 236 382 q 202 346 213 354 q 192 338 192 338 q 206 318 192 338 q 208 303 213 310 q 196 297 204 297 q 189 299 192 297 q 183 305 186 301 q 175 314 179 308 q 167 325 171 318 q 151 320 164 325 q 119 315 139 315 q 94 319 104 315 q 69 331 83 324 q 35 301 42 301 q 22 308 25 301 q 22 319 19 315 q 36 336 25 324 q 51 353 51 351 m 89 421 q 74 394 78 408 q 75 368 71 379 q 118 343 83 343 q 153 349 135 343 q 186 367 171 356 q 211 393 201 378 q 221 426 221 408 q 208 456 221 446 q 175 465 194 465 q 130 453 154 465 q 89 421 106 442 z "},"¥":{"ha":310,"x_min":-3,"x_max":371,"o":"m 6 250 q 17 260 8 256 q 36 267 26 264 q 55 272 46 269 q 65 275 64 274 q 73 288 68 278 q 76 297 78 297 q 69 297 75 299 q 56 293 63 296 q 44 290 47 290 q 33 301 33 290 q 44 318 32 311 q 57 322 49 321 q 74 326 65 324 q 88 329 82 328 q 94 331 94 331 l 156 443 q 144 437 154 444 q 120 419 135 429 q 89 401 106 410 q 57 393 72 393 q 26 414 36 393 q 28 469 18 433 q 57 542 39 504 q 96 615 75 581 q 129 668 117 650 q 144 690 136 679 q 161 700 153 700 q 171 696 167 700 q 174 683 178 689 q 164 671 169 678 q 132 622 149 649 q 101 569 115 596 q 75 517 86 542 q 57 474 64 492 q 53 422 43 432 q 58 421 54 421 q 81 428 67 421 q 114 447 96 435 q 152 476 132 460 q 190 510 172 492 q 222 553 200 519 q 268 623 243 586 q 317 689 293 660 q 356 718 342 718 q 371 701 371 718 q 352 656 371 685 q 308 597 333 626 q 258 540 283 567 q 222 501 233 514 q 206 474 221 500 q 173 417 190 449 q 141 360 156 386 q 128 332 126 333 q 147 331 129 331 q 172 319 165 331 q 168 301 179 307 q 163 300 165 300 q 150 302 157 300 q 121 304 143 304 l 111 304 q 103 290 108 300 q 99 279 99 281 q 101 278 100 278 q 109 278 104 278 q 121 279 114 279 q 150 274 139 279 q 160 260 161 268 q 151 249 158 251 q 146 247 150 247 q 136 249 142 247 q 119 251 131 251 q 99 250 113 251 q 82 247 85 249 q 75 234 82 247 q 60 204 68 221 q 45 172 53 188 q 35 150 38 157 q 28 128 28 135 q 25 119 28 122 q 14 113 21 113 q 0 125 4 113 q 5 150 -3 132 q 22 188 13 168 q 39 222 31 207 q 47 240 47 238 q 38 238 47 242 q 26 232 29 235 q 17 228 21 228 q 4 235 8 228 q 6 250 0 243 z "},"§":{"ha":336,"x_min":-32,"x_max":347,"o":"m 18 174 q 22 173 21 174 q 26 172 24 172 q 60 178 39 172 q 103 194 81 183 q 149 219 126 204 q 189 253 172 235 q 210 284 200 265 q 210 317 219 303 q 199 327 206 324 q 169 338 192 331 q 89 382 104 360 q 82 422 74 404 q 107 453 90 440 q 121 467 124 465 q 107 476 118 469 q 89 492 96 482 q 84 519 82 503 q 111 557 86 535 q 156 592 131 575 q 208 624 181 610 q 260 646 235 638 q 306 654 286 654 q 346 621 344 654 q 338 585 347 606 q 315 545 328 565 q 290 510 303 525 q 269 489 276 494 q 261 486 264 486 q 249 499 249 486 q 250 507 247 503 q 265 524 253 511 q 303 578 288 550 q 318 618 319 606 q 303 628 318 626 q 247 613 281 628 q 184 579 214 599 q 133 540 154 560 q 111 511 111 521 q 123 499 111 506 q 151 484 135 492 q 184 469 167 476 q 214 456 201 463 q 253 406 247 436 q 222 344 258 376 q 240 315 236 329 q 233 274 244 300 q 200 226 224 249 q 147 185 176 203 q 87 157 118 168 q 29 146 56 146 q -23 174 -14 146 q -14 232 -32 203 q 1 253 -8 240 q 23 278 11 265 q 47 299 35 290 q 69 307 60 307 q 79 304 74 307 q 85 298 82 301 q 86 290 89 294 q 76 280 83 279 q 58 274 68 281 q 32 249 46 264 q 10 218 18 233 q 2 190 1 203 q 18 174 3 178 m 107 410 q 119 391 106 400 q 149 375 132 382 q 180 363 165 368 q 194 358 194 358 q 200 362 194 358 q 211 371 206 365 q 221 384 217 376 q 225 400 225 392 q 216 418 225 408 q 195 435 207 428 q 172 447 183 442 q 151 451 160 451 q 126 433 142 449 q 107 410 110 418 z "},"¦":{"ha":293,"x_min":-25,"x_max":369,"o":"m 157 388 q 148 403 143 392 q 160 431 153 415 q 215 542 188 489 q 265 640 242 596 q 307 719 289 685 q 333 776 325 754 q 342 792 339 789 q 349 797 344 796 q 352 798 351 797 q 354 799 353 799 q 360 772 369 799 q 326 697 351 746 q 263 576 301 647 q 183 415 225 506 q 173 396 178 404 q 161 388 168 388 l 157 388 m 7 31 q 1 17 4 24 q -10 10 -1 10 l -12 10 q -22 29 -25 13 q -11 61 -21 38 q 13 117 -1 85 q 44 186 26 149 q 79 261 61 224 q 115 341 107 318 q 133 364 124 364 q 135 363 135 364 q 138 363 136 363 q 147 354 144 360 q 144 342 149 349 q 142 333 144 339 q 136 321 139 328 q 113 267 131 306 q 74 185 94 229 q 34 98 53 140 q 7 31 15 56 z "},"¨":{"ha":276,"x_min":196,"x_max":271,"o":"m 271 713 q 265 700 271 706 q 251 694 258 694 q 243 697 249 694 q 239 701 240 699 q 236 707 238 704 q 235 713 235 710 q 241 726 235 719 q 254 732 247 732 q 263 729 257 732 q 268 721 265 726 q 271 713 271 715 m 196 729 q 202 742 196 736 q 215 749 208 749 q 222 746 219 749 q 228 739 225 744 q 231 729 231 733 q 224 717 231 722 q 211 711 218 711 q 204 714 210 711 q 200 718 201 715 q 197 724 199 721 q 196 729 196 726 z "},"©":{"ha":307,"x_min":14,"x_max":303,"o":"m 217 533 q 285 483 267 519 q 293 408 303 447 q 249 333 283 368 q 161 286 215 297 q 146 283 154 283 q 131 283 138 283 q 71 297 99 283 q 29 342 43 311 q 22 410 14 375 q 55 473 31 444 q 113 519 79 501 q 185 538 147 538 q 217 533 200 538 m 47 394 q 69 333 43 356 q 132 310 94 310 q 144 310 139 310 q 157 313 150 311 q 231 353 203 324 q 266 415 260 382 q 257 475 272 447 q 200 508 242 503 q 193 509 197 508 q 186 510 189 510 q 139 501 163 510 q 96 476 115 492 q 63 439 76 460 q 47 394 50 418 m 92 379 q 100 415 92 396 q 122 451 108 435 q 151 477 136 467 q 181 488 167 488 q 199 481 189 488 q 208 454 210 471 q 193 436 206 438 q 187 437 189 435 q 181 443 185 439 q 176 460 179 460 q 168 456 175 460 q 141 432 151 446 q 125 405 131 418 q 119 381 119 392 q 124 365 119 369 q 131 364 125 364 q 154 369 142 364 q 172 375 167 374 l 175 375 q 187 368 183 375 q 185 354 190 361 q 161 342 179 349 q 131 336 143 336 q 101 349 111 336 q 92 379 92 363 z "},"ª":{"ha":283,"x_min":126,"x_max":339,"o":"m 311 757 q 322 765 315 765 q 332 761 328 765 q 334 744 339 754 q 320 726 329 735 q 300 710 311 717 q 285 701 289 703 q 274 700 281 700 q 247 714 258 700 q 239 750 236 728 l 239 758 q 232 751 239 758 q 215 735 225 744 q 190 716 204 726 q 164 700 176 706 q 151 697 156 697 q 133 706 140 697 q 128 728 126 715 q 137 752 129 738 q 155 781 144 767 q 178 804 165 794 q 201 814 190 814 q 216 809 211 814 q 223 799 221 804 q 226 790 225 794 q 228 785 226 785 q 238 794 229 785 q 256 803 247 803 q 268 794 265 803 q 270 778 271 790 q 268 756 269 767 q 267 735 267 744 q 274 726 268 726 q 276 727 275 726 q 278 728 276 728 q 296 740 283 729 q 311 757 308 751 m 190 751 q 197 758 197 757 q 199 769 197 758 l 199 783 q 187 774 197 786 q 169 754 176 763 q 158 734 163 743 q 158 728 154 725 q 171 736 165 732 q 182 744 176 740 q 190 751 188 749 z "},"«":{"ha":347,"x_min":11,"x_max":326,"o":"m 114 269 q 102 278 110 269 q 85 297 94 286 q 69 318 76 308 q 58 332 61 328 q 22 382 33 364 q 21 416 11 400 q 65 453 31 432 q 163 508 99 474 q 193 525 179 518 q 218 539 207 532 q 226 542 224 542 q 238 531 236 542 q 231 514 240 521 q 209 502 221 508 q 182 489 197 496 q 97 441 126 458 q 56 414 68 424 q 46 399 44 404 q 51 386 47 394 q 81 346 60 374 q 125 292 101 318 q 126 277 131 285 q 114 269 121 269 m 268 488 q 183 440 213 457 q 142 413 153 422 q 132 398 131 403 q 138 385 133 393 q 167 344 146 372 q 210 290 188 317 q 212 276 217 283 q 200 268 207 268 q 190 272 194 268 q 170 298 182 283 q 143 331 158 313 q 108 381 118 363 q 107 415 97 399 q 151 451 117 431 q 249 507 185 472 q 278 524 264 517 q 303 538 292 531 q 311 540 308 540 q 324 530 321 540 q 317 514 326 519 q 294 501 306 508 q 268 488 283 494 z "},"¬":{"ha":210,"x_min":35,"x_max":168,"o":"m 86 431 l 110 431 q 134 430 122 431 q 154 426 146 429 q 165 418 163 424 q 164 403 168 413 q 141 376 160 394 q 103 344 122 358 q 94 342 97 342 q 83 347 88 342 q 82 360 79 353 q 91 369 83 363 q 107 383 99 376 q 122 396 115 390 q 128 403 128 401 l 117 403 l 69 403 q 50 403 58 403 q 40 404 42 403 q 35 415 36 407 q 44 428 35 424 q 53 431 47 431 q 86 431 60 431 z "},"−":{"ha":251,"x_min":31,"x_max":219,"o":"m 213 404 q 200 399 211 399 l 42 399 l 38 399 q 31 411 31 403 q 39 424 32 419 q 67 427 43 426 q 121 428 92 428 q 175 427 150 428 q 204 425 200 426 q 213 404 219 418 z "},"®":{"ha":360,"x_min":43,"x_max":339,"o":"m 190 711 q 204 713 197 713 q 218 714 211 714 q 290 693 258 714 q 332 633 321 672 q 331 581 339 608 q 305 528 324 553 q 258 483 286 503 q 193 456 229 464 q 178 453 186 454 q 164 453 171 453 q 91 474 125 453 q 49 538 57 494 q 50 590 43 563 q 76 642 57 617 q 124 685 94 667 q 190 711 153 704 m 304 585 q 288 658 315 629 q 217 686 261 686 q 156 672 185 686 q 109 638 129 660 q 80 592 89 617 q 74 544 71 568 q 99 503 78 521 q 161 481 122 481 q 206 488 183 481 q 249 510 229 496 q 283 543 268 524 q 304 585 299 563 m 113 511 q 110 527 106 518 q 119 547 115 536 q 129 569 128 563 q 131 578 131 575 q 133 583 132 581 q 140 590 135 585 q 148 602 144 596 q 163 628 151 608 q 177 658 174 653 q 188 663 181 663 q 200 653 196 663 q 197 638 201 650 q 201 638 196 636 q 214 644 206 640 q 233 651 222 647 q 251 654 243 654 q 263 653 260 654 q 272 622 282 643 q 251 599 265 610 q 221 582 236 589 q 194 571 206 575 q 181 565 182 567 q 189 554 185 558 q 201 538 196 544 q 217 527 208 529 q 224 514 225 525 q 210 503 221 503 q 189 512 201 503 q 160 549 176 521 l 156 556 q 151 547 154 554 q 143 532 147 540 q 135 517 139 524 q 132 510 132 511 q 122 507 126 507 q 113 511 117 507 m 238 625 q 207 610 221 618 q 193 600 193 601 q 210 608 193 599 q 238 625 228 617 z "},"¯":{"ha":281,"x_min":197,"x_max":283,"o":"m 278 704 q 271 703 275 703 q 257 706 268 703 q 234 713 246 708 q 213 721 222 717 q 201 726 203 725 q 201 741 197 733 q 215 747 206 749 q 228 744 219 747 q 247 738 238 742 q 266 732 257 735 q 278 726 275 729 q 283 715 283 722 q 278 704 283 708 z "},"±":{"ha":281,"x_min":17,"x_max":274,"o":"m 68 454 q 69 471 63 464 q 77 475 72 474 q 100 476 82 476 q 123 476 110 476 q 156 475 136 475 q 165 495 160 483 q 176 518 171 507 q 185 537 181 529 q 192 546 190 544 q 200 550 196 550 q 213 540 210 550 q 212 531 214 536 q 199 501 210 525 q 194 491 196 496 q 190 483 192 486 q 186 475 188 479 q 199 474 188 475 q 223 473 210 474 q 249 471 236 472 q 267 465 263 469 q 271 451 274 460 q 257 442 268 442 l 251 442 q 234 444 246 443 q 210 447 222 446 q 188 447 199 447 q 171 447 176 447 q 147 399 156 417 q 132 374 138 382 q 125 364 126 365 q 122 363 124 363 q 111 368 115 363 q 110 381 107 374 q 116 396 111 385 q 126 418 121 407 q 140 447 132 431 l 108 447 q 77 449 83 449 q 68 454 71 450 m 24 311 q 19 325 17 317 q 31 336 21 333 q 42 337 32 336 q 68 338 53 338 q 101 338 83 338 q 133 337 118 338 q 160 335 149 336 q 174 332 171 333 q 179 314 188 326 q 174 310 176 311 q 161 308 171 308 l 146 308 q 121 310 133 310 q 96 310 108 310 l 51 310 q 24 311 26 310 z "},"°":{"ha":233,"x_min":50,"x_max":197,"o":"m 182 539 q 147 494 169 513 q 100 475 125 475 q 78 479 89 475 q 53 510 56 490 q 60 554 50 531 q 90 601 71 578 q 128 638 108 624 q 137 645 133 642 q 142 650 140 649 q 153 656 146 656 q 172 647 161 656 q 190 624 183 639 q 197 588 197 610 q 182 539 197 567 m 157 624 q 137 611 151 624 q 108 581 122 599 q 79 521 76 540 q 100 501 82 501 q 125 511 111 501 q 144 531 135 518 q 160 556 153 543 q 169 583 167 569 q 168 607 172 597 q 163 617 167 611 q 157 624 158 624 z "},"²":{"ha":279,"x_min":153,"x_max":303,"o":"m 183 721 q 193 718 183 718 q 219 721 204 718 q 243 726 235 724 q 249 728 247 728 q 253 729 250 729 q 255 728 254 729 q 257 728 256 728 q 263 707 272 719 q 234 695 257 700 q 196 690 211 690 q 190 691 193 690 q 185 692 188 692 q 167 699 175 693 q 157 711 160 704 q 163 739 153 726 q 189 764 172 751 q 225 791 206 776 q 258 824 244 806 q 272 848 267 835 q 274 864 276 861 q 269 865 274 865 q 253 860 263 865 q 222 837 225 846 q 211 824 218 828 q 206 822 210 822 q 192 836 192 822 q 199 853 192 843 q 218 871 207 863 q 244 885 229 879 q 271 892 258 892 q 292 886 285 892 q 303 867 303 879 q 297 840 303 854 q 282 813 292 826 q 263 788 272 799 q 239 767 253 778 q 213 747 225 757 q 192 731 200 738 q 183 721 183 724 z "},"³":{"ha":279,"x_min":131,"x_max":304,"o":"m 164 850 q 173 870 164 861 q 197 886 182 879 q 230 897 213 893 q 264 901 247 901 q 292 896 281 901 q 304 876 304 890 q 290 853 304 865 q 260 830 276 840 q 233 812 244 819 q 222 804 221 804 q 249 798 229 801 q 279 776 268 794 q 283 751 286 764 q 270 726 279 738 q 248 706 261 714 q 222 693 235 697 q 196 689 210 689 q 151 700 171 689 q 139 731 131 711 q 153 742 143 742 q 165 728 163 742 q 171 721 165 722 q 193 717 182 717 q 240 733 221 717 q 256 761 258 750 q 237 774 253 771 q 204 780 221 778 q 176 787 188 782 q 169 804 164 792 q 194 822 174 811 q 239 847 215 832 q 260 863 247 854 q 272 872 272 871 q 263 874 272 874 q 224 868 249 874 q 189 847 199 863 q 176 838 185 838 q 164 850 164 838 z "},"´":{"ha":279,"x_min":197,"x_max":296,"o":"m 286 718 q 278 716 285 718 q 261 711 271 714 q 241 706 251 708 q 224 701 231 703 q 211 699 213 699 q 200 706 207 699 q 201 717 197 711 q 211 725 204 722 q 225 729 214 726 q 249 735 236 732 q 272 741 261 739 q 283 743 282 743 q 294 732 293 743 q 286 718 296 721 z "},"µ":{"ha":269,"x_min":-60,"x_max":299,"o":"m 90 397 q 110 410 96 396 q 144 450 124 425 q 192 506 165 475 q 247 571 218 538 q 269 592 261 586 q 283 596 276 597 q 294 572 299 592 q 281 537 293 564 q 250 472 268 510 q 211 393 232 435 q 172 314 190 351 q 142 249 154 276 q 128 211 129 221 q 113 197 125 197 q 103 203 107 197 q 101 219 99 208 q 115 256 104 229 q 143 317 126 282 q 178 389 160 351 q 212 458 196 426 q 238 509 228 489 q 247 529 247 529 q 238 519 247 529 q 217 494 229 510 q 190 461 204 479 q 163 428 175 443 q 128 390 139 400 q 106 374 117 379 q 90 369 97 369 q 61 400 67 369 q 60 403 61 403 q 60 406 60 404 q 60 408 60 407 q 52 397 57 408 q 32 354 47 386 q -10 269 4 299 q -28 228 -24 240 q -34 214 -33 215 q -37 210 -35 213 q -46 207 -40 207 q -57 213 -53 207 q -59 221 -60 217 q -54 236 -58 225 q -36 278 -49 251 q -8 336 -24 304 q 26 402 8 368 q 58 465 43 436 q 83 514 72 493 q 96 540 93 535 q 113 560 103 558 q 126 550 122 560 q 122 528 129 543 q 106 490 114 513 q 92 448 97 468 q 87 413 88 428 q 90 397 86 399 z "},"¶":{"ha":332,"x_min":-42,"x_max":438,"o":"m 61 335 q 99 412 86 386 q 115 448 111 438 q 119 459 119 458 q 115 461 118 460 q 97 481 106 467 q 83 513 88 494 q 82 549 79 531 q 99 585 85 568 q 131 611 113 601 q 167 626 150 621 q 198 635 185 632 q 214 642 211 639 q 224 647 219 647 q 229 646 226 647 q 236 644 232 644 l 240 644 q 288 650 265 649 q 329 651 310 651 q 410 642 382 651 q 433 617 438 632 q 424 608 429 608 q 406 613 417 608 q 381 621 396 618 q 372 624 372 624 q 368 621 371 624 q 330 553 356 603 q 273 441 304 504 q 210 308 242 378 q 156 182 179 239 q 143 154 147 161 q 133 147 139 147 q 131 148 132 147 q 129 149 131 149 q 119 161 119 154 q 138 211 119 165 q 187 324 156 257 q 257 472 218 392 q 338 625 296 551 q 264 619 294 625 q 231 614 233 614 q 219 593 229 614 q 191 538 208 572 q 153 460 174 504 q 110 371 132 417 q -7 128 58 264 q -15 113 -11 121 q -26 104 -19 104 q -28 105 -28 104 q -31 106 -29 106 q -40 114 -37 108 q -33 141 -42 119 q -1 207 -24 163 q 61 335 21 251 z "},"·":{"ha":208,"x_min":22,"x_max":76,"o":"m 42 382 q 26 392 31 385 q 24 408 22 400 q 33 423 26 417 q 50 429 40 429 q 69 418 64 429 q 69 394 76 407 q 47 382 61 382 l 42 382 z "},"¸":{"ha":279,"x_min":17,"x_max":115,"o":"m 38 -94 q 26 -90 29 -92 q 21 -85 24 -87 q 21 -72 18 -78 q 31 -65 24 -67 q 43 -67 36 -64 q 57 -71 50 -71 q 75 -61 68 -71 q 85 -37 85 -51 q 78 -17 85 -24 q 50 -4 69 -11 q 24 19 17 4 q 51 61 31 33 q 64 68 58 68 q 74 62 71 68 q 74 47 78 56 q 64 33 71 42 q 57 22 57 24 l 58 21 q 64 19 63 21 q 104 -7 93 13 q 112 -47 115 -26 q 93 -83 108 -67 q 57 -99 78 -99 q 38 -94 49 -99 z "},"¹":{"ha":279,"x_min":204,"x_max":304,"o":"m 271 865 q 266 863 271 867 q 256 856 261 860 q 242 849 249 849 q 231 854 235 849 q 231 867 228 860 q 251 886 233 874 q 285 899 269 899 q 303 883 301 899 q 300 863 304 875 q 276 815 296 851 q 244 744 253 768 q 233 712 235 721 q 231 701 231 703 q 226 696 232 700 q 219 694 224 694 q 209 699 214 694 q 204 711 204 704 q 215 748 204 722 q 239 799 226 774 q 261 845 251 825 q 271 865 271 865 z "},"»":{"ha":332,"x_min":8,"x_max":322,"o":"m 276 486 q 312 437 301 456 q 313 402 322 418 q 269 366 303 386 q 171 310 235 346 q 142 293 156 300 q 117 279 128 286 q 108 276 111 276 q 96 287 99 276 q 103 304 93 297 q 151 331 122 314 q 238 379 208 363 q 278 405 267 396 q 288 419 289 414 q 282 432 286 424 q 253 472 275 444 q 210 526 232 500 q 208 541 203 533 q 219 549 213 549 q 228 544 224 549 q 250 519 239 533 q 276 486 261 506 m 65 331 q 151 379 122 363 q 192 406 181 396 q 203 420 204 415 q 196 433 201 425 q 167 474 189 446 q 124 528 146 501 q 122 542 118 535 q 133 550 126 550 q 143 546 139 550 q 164 520 153 535 q 190 488 175 506 q 226 438 215 457 q 226 403 236 419 q 183 367 217 388 q 86 311 150 347 q 56 294 69 301 q 31 281 42 288 q 22 278 25 278 q 10 288 13 278 q 17 304 8 299 q 39 317 28 310 q 65 331 50 324 z "},"º":{"ha":278,"x_min":161,"x_max":308,"o":"m 199 753 q 190 732 193 746 q 193 718 186 718 q 212 732 201 718 q 225 753 222 746 q 201 783 208 764 q 207 814 193 803 q 222 819 213 819 q 249 806 238 819 q 260 774 261 793 q 260 768 258 768 q 263 769 261 768 q 268 769 265 769 q 285 772 281 769 q 293 775 289 775 l 297 775 q 305 768 301 774 q 306 756 308 763 q 294 746 304 750 q 264 742 285 742 l 251 742 q 226 708 242 725 q 193 690 211 690 q 181 693 189 690 q 165 709 168 697 q 163 733 161 721 q 170 757 164 746 q 182 771 176 768 q 189 774 188 774 q 201 767 197 774 q 199 753 204 760 z "},"¼":{"ha":490,"x_min":-18,"x_max":515,"o":"m 25 240 q 131 378 72 307 q 252 517 190 449 q 373 649 314 586 q 479 760 432 711 q 492 772 488 769 q 501 774 497 775 q 513 765 511 771 q 513 755 515 760 q 503 739 511 750 q 478 717 485 715 q 436 679 474 718 q 346 582 399 640 q 233 453 293 524 q 122 322 172 383 q 41 216 72 260 q 14 164 10 172 q 14 153 17 158 q 6 146 11 147 l 0 146 q -8 148 -6 146 q -10 149 -10 150 q -16 167 -18 156 q -7 191 -14 178 q 9 217 0 204 q 25 240 18 231 m 290 304 q 278 303 286 303 q 247 314 260 303 q 246 350 235 325 q 255 369 249 357 q 270 392 261 381 q 289 411 279 403 q 306 419 299 419 q 315 404 315 417 q 310 396 315 403 q 297 379 304 389 q 281 359 289 369 q 271 339 274 349 q 269 331 268 332 q 281 331 271 331 q 294 334 289 332 q 318 343 299 336 q 329 360 322 349 q 344 385 336 372 q 363 410 353 399 q 381 426 372 422 q 399 432 388 432 q 415 422 410 432 q 415 397 421 413 q 392 363 410 382 q 339 322 375 343 q 309 262 318 282 q 297 233 300 242 q 293 223 293 225 q 292 217 293 221 q 276 210 286 210 q 266 224 265 214 q 271 244 267 233 q 294 295 288 283 q 299 307 301 307 q 290 304 299 307 m 114 542 q 125 578 114 553 q 149 630 136 604 q 172 676 161 656 q 181 696 182 696 q 165 685 181 697 q 151 678 156 678 q 141 683 144 678 q 140 696 138 689 q 162 716 143 703 q 194 729 181 729 q 213 714 211 729 q 211 693 215 704 q 188 644 207 682 q 153 574 163 597 q 142 542 144 551 q 141 531 140 532 q 136 526 142 531 q 129 524 131 524 q 114 542 114 524 z "},"½":{"ha":483,"x_min":-24,"x_max":510,"o":"m 19 240 q 125 378 67 307 q 245 517 183 449 q 366 649 307 586 q 472 760 425 711 q 485 771 481 768 q 493 774 489 774 q 501 772 497 774 q 507 765 506 769 q 507 755 510 760 q 496 739 504 750 q 472 717 479 714 q 447 694 469 717 q 390 635 424 672 q 313 551 356 599 q 226 453 269 504 q 141 353 182 403 q 69 264 100 304 q 22 197 39 224 q 7 164 4 169 q 8 153 10 158 q -1 146 6 147 l -6 146 q -13 148 -11 146 q -15 149 -15 150 q -22 167 -24 156 q -14 191 -21 178 q 3 217 -7 204 q 19 240 13 231 m 243 240 q 249 268 239 256 q 276 293 260 281 q 313 320 293 306 q 346 354 332 335 q 358 378 353 365 q 361 393 364 390 q 357 394 360 394 q 340 389 350 394 q 319 377 326 383 q 309 367 313 371 q 303 359 306 363 q 297 354 301 356 q 292 353 296 353 q 283 357 286 353 q 279 365 279 361 q 287 382 279 372 q 306 400 294 392 q 331 415 317 408 q 357 421 344 421 q 378 415 371 421 q 390 396 389 408 q 385 369 390 383 q 369 342 379 356 q 349 317 360 328 q 325 297 339 307 q 299 277 311 286 q 278 261 286 268 q 269 251 269 254 q 282 247 269 247 q 308 250 293 247 q 329 256 322 253 q 335 258 333 257 q 340 258 338 258 q 342 258 342 258 q 343 257 342 257 q 350 236 360 250 q 335 228 346 232 q 313 224 325 225 q 290 222 301 222 q 272 221 278 221 q 243 240 250 224 m 140 526 q 132 524 135 524 q 121 529 125 524 q 118 542 117 535 q 129 578 118 553 q 153 630 140 604 q 175 676 165 656 q 185 696 185 696 q 179 694 183 697 q 169 685 175 690 q 156 678 160 678 q 145 683 149 678 q 144 696 142 689 q 165 716 147 703 q 199 729 183 729 q 217 714 213 729 q 214 693 218 704 q 190 644 210 682 q 157 574 165 597 q 147 542 149 551 q 145 531 144 532 q 140 526 146 531 z "},"¾":{"ha":493,"x_min":-21,"x_max":513,"o":"m 140 525 q 114 521 128 521 q 69 532 89 521 q 57 563 49 543 q 71 572 61 572 q 83 560 82 572 q 89 553 83 554 q 111 549 100 549 q 158 565 139 549 q 174 592 176 582 q 155 605 171 601 q 122 610 139 608 q 94 617 106 613 q 88 636 82 622 q 113 653 92 643 q 157 679 133 664 q 178 694 165 685 q 190 704 190 703 q 183 706 190 706 q 167 704 178 706 q 144 699 156 703 q 123 690 133 696 q 107 678 113 685 q 94 669 103 669 q 82 682 82 669 q 91 702 82 693 q 115 717 100 711 q 147 728 129 724 q 181 732 165 732 q 210 726 199 732 q 222 707 222 721 q 208 684 222 696 q 178 662 194 672 q 151 644 163 651 q 140 636 139 636 q 167 630 147 633 q 197 607 186 626 q 201 582 204 594 q 188 558 197 569 q 165 538 178 546 q 140 525 153 529 m 3 146 l -3 146 q -10 148 -8 146 q -12 149 -12 150 q -19 167 -21 156 q -10 191 -17 178 q 6 217 -3 204 q 22 240 15 231 q 128 378 69 307 q 249 517 188 449 q 370 649 311 586 q 476 760 429 711 q 496 774 489 774 q 504 772 500 774 q 510 765 508 769 q 510 755 513 760 q 500 739 508 750 q 475 717 482 715 q 449 694 472 717 q 392 635 426 672 q 315 551 358 599 q 228 453 272 504 q 144 353 185 403 q 72 264 103 304 q 24 197 42 224 q 10 164 7 169 q 10 153 13 158 q 3 146 8 147 m 315 343 q 325 360 318 349 q 340 385 332 372 q 358 410 349 399 q 376 426 368 422 q 394 432 386 432 q 411 422 406 432 q 412 397 417 413 q 389 363 407 382 q 335 322 371 343 q 306 262 315 282 q 294 233 297 242 q 290 223 290 225 q 289 217 290 221 q 282 210 286 211 q 272 210 278 210 q 263 224 261 214 q 268 244 264 233 q 292 295 285 283 q 296 307 299 307 q 288 304 296 307 q 275 303 283 303 q 244 314 257 303 q 242 350 232 325 q 251 367 244 356 q 267 390 258 378 q 284 410 275 401 q 299 419 293 419 q 313 404 313 419 q 307 396 313 403 q 294 379 301 389 q 278 359 286 369 q 267 339 271 349 q 266 331 264 332 q 278 331 268 331 q 291 334 286 332 q 315 343 296 336 m 375 388 q 376 388 371 382 q 379 392 379 392 q 375 388 379 392 z "},"¿":{"ha":536,"x_min":-136,"x_max":533,"o":"m -100 32 q -79 7 -101 15 q -21 -1 -57 -1 q 67 7 18 -1 q 167 32 117 15 q 262 72 217 49 q 338 126 307 96 q 364 160 360 149 q 365 180 368 172 q 359 192 363 188 q 363 203 356 196 q 371 207 367 207 q 385 200 378 207 q 388 144 406 178 q 322 76 369 110 q 201 15 274 43 q 38 -25 128 -12 q -17 -29 15 -29 q -80 -22 -49 -29 q -124 8 -111 -14 q -124 53 -136 29 q -87 103 -112 76 q -28 156 -62 129 q 42 211 7 183 q 124 277 79 240 q 215 353 169 314 q 304 429 261 392 q 382 499 347 467 q 439 553 417 531 q 464 583 461 575 q 476 593 468 593 q 488 587 483 593 q 488 569 493 581 q 458 534 483 560 q 397 475 433 508 q 314 401 360 442 q 222 322 268 361 q 130 247 175 283 q 50 183 85 210 q 13 154 38 174 q -36 113 -11 135 q -80 69 -61 92 q -100 32 -99 47 m 511 635 q 501 641 507 636 q 494 650 496 646 q 498 666 492 657 q 514 675 504 675 q 522 674 519 675 q 531 663 529 669 q 531 649 533 656 q 524 638 529 643 q 511 635 518 633 z "},"×":{"ha":272,"x_min":19,"x_max":260,"o":"m 140 401 q 126 393 139 401 q 99 373 114 385 q 68 350 83 361 q 46 333 53 339 q 35 329 40 329 q 23 337 26 329 q 26 351 19 344 q 45 367 31 356 q 76 390 60 378 q 108 412 93 401 q 128 426 122 422 q 122 439 126 429 q 113 459 118 449 q 105 478 108 469 q 101 490 101 488 q 104 499 101 494 q 114 504 107 504 q 124 501 121 504 q 132 483 126 497 q 142 458 136 472 q 150 442 149 443 q 163 450 150 442 q 192 469 176 458 q 224 490 208 481 q 243 499 239 499 q 256 491 253 499 q 254 476 260 483 q 240 467 254 476 q 208 447 225 458 q 178 427 192 436 q 164 417 164 418 q 170 403 164 415 q 185 375 176 390 q 200 347 193 360 q 207 332 207 335 q 204 321 208 325 q 194 317 200 317 q 188 319 193 317 q 176 335 183 322 q 160 363 168 347 q 140 401 150 381 z "},"Ø":{"ha":615,"x_min":-15,"x_max":635,"o":"m 450 288 q 394 206 426 250 q 324 124 361 163 q 247 61 286 86 q 169 36 207 36 q 108 58 133 36 q 71 113 83 81 q 67 96 65 100 q 67 85 69 90 q 60 78 65 79 l 54 78 q 47 80 49 78 q 44 81 44 82 q 40 110 32 90 q 63 149 49 129 q 60 165 60 160 q 19 185 36 174 q -8 224 3 196 q -14 267 -15 243 q -6 317 -12 292 q 10 366 0 342 q 31 410 21 390 q 90 503 58 463 q 151 576 122 544 q 205 631 181 607 q 243 675 229 656 q 325 779 286 738 q 379 824 364 821 q 394 818 388 824 q 400 806 401 813 q 385 793 400 790 q 368 783 381 794 q 343 758 356 772 q 321 733 331 744 q 311 721 311 721 q 332 733 313 719 q 379 761 351 746 q 504 800 453 800 q 585 753 564 800 q 599 768 594 763 q 612 779 607 776 q 621 781 617 782 q 633 772 628 781 q 633 762 635 767 q 622 746 631 757 q 597 724 606 721 q 594 722 596 722 q 598 694 597 708 q 596 663 599 679 q 574 554 590 608 q 538 457 557 500 q 506 387 519 414 q 492 360 492 360 q 501 366 492 360 q 521 381 510 372 q 542 397 532 389 q 554 406 551 404 q 574 417 568 418 q 586 406 583 417 q 581 393 586 399 q 558 374 575 388 q 499 330 518 343 q 471 311 479 317 q 460 302 463 306 q 450 288 457 299 m 564 732 q 541 764 557 754 q 504 774 525 774 q 428 755 471 774 q 347 710 386 736 q 278 659 308 685 q 239 619 247 633 q 151 456 183 533 q 103 319 119 378 q 85 225 88 260 q 89 190 83 190 l 90 190 q 196 324 135 251 q 322 469 257 396 q 451 611 388 543 q 564 731 514 679 l 564 732 m 125 190 q 227 213 174 194 q 326 255 281 232 q 403 298 372 278 q 440 325 435 318 q 474 384 451 340 q 519 483 497 428 q 556 596 540 538 q 569 699 572 654 q 515 642 549 678 q 442 562 482 606 q 358 468 401 518 q 272 369 314 418 q 192 273 229 319 q 125 190 154 226 m 92 143 q 122 83 103 101 q 167 64 140 64 q 218 78 190 64 q 275 116 246 92 q 333 174 304 140 q 389 244 363 207 q 401 265 404 265 q 393 260 401 265 q 255 192 329 221 q 104 161 181 164 q 98 152 101 157 q 92 143 94 147 m 58 207 q 70 299 60 253 q 96 388 81 344 q 130 474 111 432 q 168 554 149 515 q 94 463 129 514 q 38 362 60 411 q 13 271 17 313 q 35 208 10 229 q 47 200 39 204 q 57 196 54 196 q 58 201 58 196 q 58 207 58 204 z "},"Æ":{"ha":1256,"x_min":-3,"x_max":1254,"o":"m 332 382 q 490 556 408 474 q 563 628 525 592 q 642 699 601 665 q 722 764 682 733 q 801 815 763 794 q 843 831 832 831 q 858 825 853 831 q 863 799 867 817 q 849 756 860 781 q 822 703 838 732 q 789 646 806 675 q 739 558 761 600 q 700 485 717 517 q 836 552 764 521 q 983 606 908 583 q 990 609 992 608 q 979 613 989 610 q 940 638 946 622 q 944 671 933 653 q 980 708 956 689 q 1033 746 1004 728 q 1122 788 1081 775 q 1192 801 1163 801 q 1242 783 1229 801 q 1226 735 1254 765 q 1212 720 1215 724 q 1204 715 1208 717 q 1194 717 1199 714 q 1189 725 1190 721 q 1196 744 1188 735 q 1211 759 1204 753 q 1217 769 1218 765 q 1193 774 1215 774 q 1117 758 1156 774 q 1047 722 1079 742 q 994 683 1015 703 q 968 656 972 664 q 974 643 964 647 q 994 636 981 639 q 1022 631 1008 633 q 1048 627 1036 629 q 1063 624 1060 625 q 1070 615 1068 621 q 1069 604 1072 610 q 1044 593 1064 596 q 974 575 1025 590 q 850 531 913 557 q 728 471 788 504 q 613 398 668 438 q 514 313 558 358 q 449 233 471 269 q 430 167 426 196 q 464 121 433 139 q 556 94 494 103 q 619 90 585 90 q 715 97 664 90 q 817 116 765 103 q 921 149 869 129 q 1018 196 972 169 q 1049 215 1026 200 q 1096 247 1072 229 q 1139 280 1119 264 q 1163 304 1158 296 q 1175 313 1167 313 q 1188 303 1183 313 q 1178 278 1193 293 q 1157 260 1172 272 q 1124 235 1142 249 q 1088 208 1107 221 q 1054 185 1069 194 q 961 138 1014 160 q 851 99 908 115 q 733 72 793 82 q 617 63 672 63 q 521 72 565 63 q 444 103 476 82 q 404 154 411 124 q 412 221 397 185 q 460 297 426 257 q 540 375 493 336 q 477 369 511 372 q 415 364 443 367 q 367 358 386 361 q 346 354 347 356 q 272 254 296 288 q 238 205 247 221 q 228 184 228 189 q 226 169 228 179 q 214 135 224 158 q 175 63 204 113 q 164 42 168 51 q 151 33 160 33 q 136 44 142 33 q 139 82 129 57 q 163 132 149 107 q 189 177 176 157 q 200 203 201 197 q 169 236 196 226 q 108 250 142 246 q 46 258 75 254 q 8 276 17 263 q 26 311 -3 296 q 72 329 43 321 q 133 345 100 338 q 200 360 167 353 q 262 372 233 367 q 310 379 290 376 q 332 382 329 382 m 579 406 q 616 433 597 419 q 656 458 635 446 q 747 626 714 567 q 797 717 779 685 q 823 765 815 749 q 838 803 831 781 q 772 764 819 797 q 659 676 724 731 q 520 549 594 621 q 376 392 446 476 q 374 386 372 386 q 387 388 376 386 q 421 392 397 389 q 483 398 444 394 q 579 406 521 401 m 61 296 q 42 288 43 289 q 53 285 42 288 q 129 274 89 278 q 197 253 169 271 q 214 238 208 246 q 221 229 219 229 q 251 272 236 251 q 277 310 264 292 q 301 343 290 329 q 304 350 308 350 q 279 346 300 350 q 151 321 210 335 q 61 296 93 307 z "},"Ð":{"ha":988,"x_min":14,"x_max":1054,"o":"m 310 540 q 293 540 297 540 q 286 542 289 540 q 277 553 278 544 q 285 565 276 563 q 315 568 289 567 q 375 569 340 569 q 417 647 403 622 q 431 672 432 671 q 399 663 431 672 q 320 636 367 654 q 219 593 274 618 q 119 538 165 568 q 91 517 107 529 q 63 491 75 504 q 47 465 50 478 q 56 446 43 453 q 67 428 69 439 q 54 418 64 418 q 47 419 50 418 q 22 442 29 426 q 21 476 14 458 q 57 526 29 501 q 124 574 85 551 q 209 618 163 597 q 300 656 256 639 q 383 686 344 674 q 443 706 421 699 q 449 707 447 707 q 451 708 450 707 q 456 715 453 710 q 464 729 458 719 q 490 774 476 751 q 508 801 504 796 q 522 810 517 810 q 536 797 533 810 q 536 784 539 792 q 526 760 533 776 q 516 740 519 743 q 506 736 513 736 l 500 736 q 493 724 494 728 q 490 718 492 721 q 529 728 490 718 q 626 751 568 739 q 754 774 685 764 q 886 785 824 785 q 956 780 924 785 q 1010 763 988 775 q 1043 729 1032 750 q 1049 678 1054 708 q 986 565 1040 631 q 850 431 932 500 q 668 294 768 361 q 469 173 568 226 q 280 87 369 119 q 129 54 190 54 q 69 68 93 54 q 39 111 46 82 q 56 181 32 144 q 116 253 79 218 q 194 319 153 289 q 261 368 235 349 q 275 378 271 375 q 281 383 279 381 q 285 390 283 385 q 293 406 288 394 q 329 480 313 446 q 361 542 346 514 q 333 542 346 542 q 310 540 321 542 m 529 490 q 519 483 525 485 q 491 472 513 482 q 426 439 469 463 q 304 363 382 415 q 283 321 296 347 q 259 267 271 294 q 239 218 247 240 q 232 189 231 196 q 229 177 233 182 q 219 172 225 172 q 208 178 214 172 q 207 209 200 186 q 240 293 214 232 q 252 319 247 308 q 256 329 257 329 q 243 320 256 329 q 215 299 231 311 q 183 275 199 288 q 160 256 168 263 q 129 228 146 244 q 98 193 113 211 q 74 157 83 175 q 65 122 65 139 q 86 94 67 103 q 136 86 106 86 q 192 91 161 86 q 253 107 222 96 q 388 164 311 126 q 545 251 464 201 q 706 357 626 300 q 852 470 786 414 q 963 578 918 526 q 1019 671 1008 631 q 1000 735 1029 711 q 888 758 971 758 q 696 738 792 758 q 508 694 600 718 q 484 688 492 690 q 473 684 476 686 q 468 680 469 682 q 464 672 467 678 q 435 619 449 646 q 407 569 421 593 q 490 567 451 569 q 536 563 529 565 q 544 549 543 560 q 528 538 544 538 q 524 538 525 538 q 519 539 522 539 q 508 540 519 539 q 479 541 497 540 q 439 542 461 542 q 393 542 417 542 q 366 491 378 514 q 346 450 354 468 q 328 414 336 431 q 353 428 328 414 q 410 461 378 443 q 473 494 442 479 q 517 510 504 510 q 529 504 525 511 q 529 490 533 497 z "},"Þ":{"ha":321,"x_min":-90,"x_max":339,"o":"m -11 171 q -25 196 -25 182 q -28 210 -25 210 q -33 201 -29 210 q -39 192 -35 200 q -49 172 -43 183 q -58 149 -54 161 q -61 126 -61 136 q -74 107 -61 107 q -85 113 -79 107 q -89 131 -90 119 q -71 192 -87 147 q -29 294 -54 236 q 25 415 -4 351 q 81 532 54 479 q 129 620 108 585 q 157 658 150 656 q 163 660 158 660 q 172 656 168 660 q 175 644 176 651 q 143 590 174 642 q 53 410 113 538 q 51 404 51 404 q 61 419 51 404 q 88 455 71 433 q 127 503 104 476 q 176 554 150 529 q 201 578 186 564 q 234 604 217 592 q 269 626 251 617 q 301 635 288 635 q 315 632 307 635 q 338 584 339 622 q 316 494 336 546 q 262 384 296 442 q 188 278 228 326 q 106 196 149 229 q 25 161 63 163 l 14 161 q -11 171 -1 161 m 8 282 q 2 257 4 271 q 0 230 0 243 q 1 206 0 217 q 4 193 3 196 q 19 188 8 188 q 67 204 36 188 q 136 260 97 221 q 225 374 188 313 q 283 487 263 435 q 309 574 304 539 q 300 607 314 608 q 255 585 286 607 q 189 529 224 563 q 132 467 161 503 q 78 395 103 431 q 34 329 53 360 q 8 282 15 299 z "},"ß":{"ha":306,"x_min":-83,"x_max":319,"o":"m -4 342 q -42 232 -33 263 q -54 196 -51 201 q -63 190 -58 190 q -68 190 -68 189 q -76 217 -83 193 q -50 293 -69 240 q 41 508 -4 422 q 128 646 86 594 q 206 719 169 697 q 267 740 242 740 q 307 721 294 740 q 313 674 319 701 q 283 613 307 644 q 230 553 258 582 q 174 501 201 525 q 135 465 147 478 q 190 450 160 458 q 242 428 221 442 q 279 368 285 401 q 242 306 274 335 q 167 257 211 276 q 88 238 122 238 q 56 244 67 238 q 39 265 42 251 q 47 297 36 279 q 65 319 51 304 q 94 348 78 333 q 128 374 111 363 q 156 385 144 385 l 158 385 q 172 371 171 382 q 158 358 174 360 q 137 347 151 357 q 107 322 122 336 q 80 295 92 308 q 67 275 68 282 q 82 264 65 265 q 126 272 101 264 q 174 292 150 279 q 217 320 197 304 q 247 353 238 336 q 245 392 261 376 q 203 417 229 407 q 151 434 178 428 q 117 444 125 440 q 115 483 94 458 q 151 517 124 493 q 209 572 179 542 q 263 633 239 601 q 288 690 288 665 q 264 713 288 713 q 217 694 246 713 q 151 634 188 676 q 76 520 115 592 q -4 342 36 449 z "},"æ":{"ha":354,"x_min":-39,"x_max":374,"o":"m 279 319 q 204 294 240 294 q 165 305 182 294 q 144 333 149 315 q 147 377 139 351 q 182 432 156 403 q 151 406 174 426 q 102 364 129 386 q 47 324 75 342 q -3 306 18 306 q -31 322 -22 306 q -26 374 -39 346 q 8 426 -14 401 q 55 468 29 451 q 101 485 81 485 q 128 469 121 485 q 132 458 132 463 q 133 426 132 454 q 182 467 161 451 q 215 482 203 482 q 228 475 225 482 q 288 506 267 506 q 304 500 299 506 q 310 465 319 488 q 281 422 301 443 q 235 384 261 400 q 190 368 210 368 q 186 369 188 368 q 182 369 185 369 q 178 370 179 369 q 175 371 176 371 q 171 358 172 371 q 172 338 169 344 q 201 321 179 321 q 243 332 221 321 q 282 356 265 343 q 315 382 301 371 q 338 400 328 393 q 354 417 347 410 q 370 400 374 410 q 363 386 367 390 q 319 349 346 371 q 279 319 293 328 m 82 453 q 59 437 72 447 q 34 413 46 426 q 12 385 22 400 q -3 354 1 369 q -6 341 -6 347 q -6 333 -7 335 q 1 333 -4 332 q 13 336 7 333 q 37 349 24 340 q 65 369 50 358 q 92 392 79 381 q 114 410 106 403 q 106 426 107 418 q 104 457 104 433 q 99 458 103 458 q 82 453 96 458 m 283 476 q 256 461 272 474 q 224 435 239 449 q 198 409 208 421 q 189 396 188 397 q 201 399 190 394 q 228 413 213 403 q 259 436 243 422 q 283 468 275 450 q 283 476 286 478 z "},"ð":{"ha":267,"x_min":-57,"x_max":242,"o":"m 161 601 q 154 598 161 601 q 138 590 147 594 q 120 581 129 586 q 107 574 111 576 q 99 571 104 571 q 88 578 92 571 q 98 601 81 590 q 150 628 115 611 q 117 694 126 676 q 107 714 107 711 q 122 726 110 726 q 131 724 128 726 q 146 697 133 721 q 171 647 158 674 q 178 639 175 639 q 184 641 181 639 q 196 646 188 643 q 208 649 203 647 q 221 651 214 651 q 229 649 224 651 q 234 638 236 643 q 229 629 232 632 q 222 626 228 628 q 208 621 215 624 q 195 615 201 618 q 189 613 189 613 q 201 584 189 610 q 225 519 214 558 q 226 415 242 461 q 178 335 210 368 q 103 286 146 303 q 25 269 61 269 q -8 274 7 269 q -35 288 -24 278 q -56 329 -57 307 q -40 375 -56 351 q 3 422 -24 399 q 63 465 31 444 q 130 499 96 485 q 192 521 164 514 q 194 525 196 522 q 188 542 193 529 q 178 569 183 556 q 167 592 172 582 q 161 601 163 601 m -26 343 q -18 308 -33 319 q 24 296 -3 296 q 78 306 49 296 q 133 334 107 315 q 179 381 160 353 q 203 444 199 408 q 203 471 204 453 q 201 492 203 489 q 168 484 200 496 q 96 451 136 472 q 19 402 56 431 q -26 343 -17 374 z "},"÷":{"ha":208,"x_min":25,"x_max":196,"o":"m 28 414 q 37 422 31 419 q 67 425 43 425 q 95 424 78 425 q 138 422 113 424 q 182 420 174 421 q 192 414 190 419 q 192 400 196 407 q 178 393 188 393 q 92 396 121 396 q 50 396 63 396 q 36 397 38 396 q 32 399 35 397 q 28 414 25 406 m 122 478 q 138 496 122 496 q 158 481 156 496 q 155 463 161 469 q 140 456 149 456 q 128 461 133 456 q 122 478 122 467 m 58 326 q 54 349 47 336 q 72 361 61 361 l 76 361 q 92 344 89 357 q 82 325 96 332 q 69 321 76 321 q 58 326 64 321 z "},"ø":{"ha":221,"x_min":-39,"x_max":236,"o":"m 114 397 q 102 364 113 382 q 77 331 92 346 q 45 307 63 317 q 11 297 28 297 q -8 301 0 297 q -17 294 -14 296 l -19 294 q -31 300 -26 294 q -33 313 -36 306 q -28 321 -33 313 q -31 363 -39 340 q -10 406 -24 386 q 19 438 4 425 q 42 450 35 450 q 53 445 49 450 q 57 433 58 440 q 44 419 56 426 q 17 394 32 413 q 4 374 11 388 q -6 347 -3 360 q 33 391 11 367 q 72 435 54 415 q 60 452 65 443 q 53 471 56 461 q 57 490 50 483 q 72 497 64 497 q 96 485 86 497 q 102 476 100 481 q 107 469 104 472 q 117 472 113 472 q 129 463 125 472 q 117 440 131 457 q 117 434 117 438 q 118 428 118 431 q 154 413 139 417 q 182 410 169 410 q 203 412 193 410 q 221 417 213 414 q 235 403 236 414 q 224 390 235 393 q 194 385 208 386 q 165 383 181 383 q 126 394 138 386 q 114 397 115 403 m 38 354 q 13 325 21 336 q 60 356 40 329 q 88 410 81 383 q 65 385 76 399 q 38 354 53 371 z "},"þ":{"ha":285,"x_min":-126,"x_max":296,"o":"m -44 271 q -69 219 -58 243 q -85 182 -78 200 q -93 158 -93 164 q -96 149 -92 154 q -104 144 -100 144 q -118 172 -126 143 q -81 259 -110 201 q -8 402 -53 317 q 88 599 36 488 q 115 656 107 640 q 133 669 122 672 q 140 646 150 664 q 113 592 129 631 q 63 485 97 553 l 50 460 q 64 476 51 460 q 100 515 78 492 q 149 560 122 538 q 201 598 175 582 q 246 614 226 614 q 288 585 281 614 q 283 513 296 557 q 242 415 271 468 q 177 315 214 363 q 99 231 140 267 q 19 186 58 196 q 1 183 8 183 q -37 200 -19 183 q -46 261 -56 217 q -45 265 -46 264 q -44 268 -44 267 q -44 271 -44 269 m 60 428 q 25 374 42 406 q -3 310 8 342 q -19 254 -15 279 q -18 219 -24 229 q 1 211 -12 211 q 24 217 14 211 q 93 263 58 231 q 158 335 128 294 q 213 419 189 375 q 250 499 236 463 q 265 560 264 536 q 250 586 265 585 q 217 576 238 588 q 169 542 196 564 q 115 490 143 519 q 60 428 86 461 z "},"Ÿ":{"ha":868,"x_min":-43,"x_max":832,"o":"m 90 497 q 99 493 94 493 q 103 494 101 493 q 107 494 104 494 q 119 482 119 494 q 99 467 119 467 q 75 474 88 467 q 56 501 63 482 q 60 561 46 528 q 104 628 75 594 q 174 695 133 663 q 256 753 214 728 q 335 794 297 779 q 399 810 374 810 q 429 798 419 810 q 432 758 439 786 q 396 679 424 725 q 332 579 368 633 q 257 466 296 525 q 188 346 218 407 q 330 390 260 372 q 476 419 400 407 q 483 419 481 419 q 487 421 485 419 q 492 426 489 422 q 504 436 496 429 q 547 472 519 449 q 604 519 574 496 q 665 558 635 542 q 717 575 696 575 q 721 574 719 575 q 725 574 722 574 q 746 535 750 569 q 735 503 743 519 q 718 473 726 486 q 703 451 710 460 q 697 440 697 442 l 700 440 l 718 440 q 741 441 731 440 q 760 442 751 442 q 815 437 800 442 q 832 421 831 432 q 819 408 832 408 q 810 410 814 408 q 792 413 803 413 q 765 413 781 413 q 713 412 739 413 q 675 410 686 411 q 567 279 625 346 q 440 158 508 213 q 294 70 372 104 q 128 36 217 36 q 40 53 79 36 q -24 111 0 69 q -33 177 -43 146 q 2 235 -24 208 q 65 285 28 263 q 138 325 101 308 q 150 331 149 331 q 157 346 151 332 q 205 433 176 386 q 264 526 233 479 q 324 616 294 572 q 374 694 353 660 q 404 753 394 729 q 404 782 414 776 q 392 785 399 785 q 337 768 372 785 q 262 726 301 751 q 183 667 222 700 q 117 603 144 635 q 81 542 90 571 q 90 497 71 514 m 135 293 q 40 235 76 267 q 13 207 25 222 q -4 174 1 192 q -6 139 -10 157 q 17 101 -1 121 q 67 72 40 78 q 125 65 94 65 q 282 96 210 65 q 417 175 354 126 q 534 285 479 224 q 638 407 589 346 q 613 406 635 407 q 567 402 592 404 q 520 397 542 400 q 496 393 499 394 q 460 363 483 383 q 409 317 438 342 q 349 265 381 292 q 285 217 317 239 q 226 181 254 194 q 176 167 197 167 l 172 167 q 133 189 143 169 q 124 232 124 208 q 135 293 124 260 m 167 299 q 153 260 158 279 q 149 227 149 242 q 157 203 150 213 q 178 194 164 194 q 238 218 199 194 q 317 274 276 242 q 394 338 358 306 q 447 386 431 369 q 354 367 393 376 q 285 349 315 358 q 228 331 254 340 q 176 313 203 322 q 171 308 172 310 q 167 299 169 307 m 719 544 q 711 546 718 547 q 662 524 693 543 q 601 482 631 504 q 553 442 572 460 q 538 426 533 425 q 558 428 539 426 q 599 433 576 431 q 641 436 622 435 q 661 438 660 438 q 676 458 665 444 q 696 488 686 472 q 713 519 706 504 q 719 544 719 535 m 629 710 q 623 697 629 703 q 610 692 617 692 q 601 694 607 692 q 597 699 599 696 q 594 704 596 701 q 593 710 593 707 q 599 723 593 717 q 613 729 606 729 q 621 726 615 729 q 626 718 624 724 q 629 710 629 713 m 554 726 q 560 740 554 733 q 574 746 567 746 q 581 743 578 746 q 586 736 583 742 q 589 726 589 731 q 583 714 589 719 q 569 708 576 708 q 563 711 568 708 q 558 715 560 713 q 556 721 557 718 q 554 726 554 724 z "},"Ł":{"ha":514,"x_min":-97,"x_max":483,"o":"m 104 518 q 114 569 94 540 q 169 628 133 597 q 251 690 206 660 q 340 743 297 719 q 417 781 383 767 q 463 796 451 796 q 479 783 476 796 q 471 764 481 776 q 438 721 461 751 q 376 635 414 690 q 282 486 338 581 q 265 458 275 471 q 310 481 292 472 q 335 490 329 489 q 343 487 339 490 q 349 479 347 483 q 347 470 350 475 q 332 461 343 465 q 304 447 319 454 q 276 432 292 440 q 242 414 260 424 q 205 347 224 382 q 169 278 186 311 q 140 219 153 246 q 121 175 128 192 q 117 165 118 165 q 119 158 117 164 q 117 142 124 149 q 101 135 110 135 q 86 149 88 135 q 94 181 85 156 q 121 240 104 206 q 158 313 138 274 q 199 390 178 353 q 171 374 183 382 q 149 361 158 367 q 133 352 138 354 q 126 350 129 350 q 113 356 117 349 q 114 369 108 363 q 150 393 117 374 q 222 435 183 413 q 244 475 235 457 q 261 504 254 493 q 386 696 340 635 q 431 758 432 757 q 394 742 429 760 q 313 696 360 724 q 219 635 267 668 q 146 569 172 601 q 131 546 136 557 q 129 529 126 535 q 143 521 135 521 q 156 513 153 521 q 153 499 160 506 q 140 493 147 493 q 119 500 129 493 q 104 518 110 507 m 456 75 q 415 85 453 82 q 310 88 376 88 q 153 84 243 88 q -46 69 63 81 q -57 69 -51 69 q -69 68 -62 68 q -89 71 -81 68 q -96 85 -97 74 q -84 103 -96 94 q -61 111 -72 111 q -58 110 -60 111 q -56 110 -57 110 q -47 103 -47 107 q -46 99 -47 99 q 48 106 -43 97 q 294 114 139 114 l 317 114 l 347 114 q 390 113 367 114 q 432 109 413 113 q 466 100 451 106 q 482 85 481 94 q 479 74 483 79 q 468 69 475 69 q 461 71 465 69 q 456 75 457 72 z "},"Ž":{"ha":703,"x_min":-96,"x_max":835,"o":"m 61 496 q 47 551 32 521 q 94 595 56 569 q 191 649 133 621 q 319 704 249 676 q 461 753 390 732 q 598 788 532 775 q 713 801 664 801 q 732 801 724 801 q 749 799 740 800 q 805 771 796 792 q 799 722 814 750 q 753 660 785 693 q 688 594 722 626 q 649 559 675 582 q 591 508 624 536 q 523 448 558 479 q 456 389 488 417 q 525 383 486 388 q 582 361 564 378 q 590 344 593 351 q 579 335 586 338 l 576 335 q 569 338 571 335 q 556 346 568 342 q 514 355 543 350 q 425 363 485 360 q 290 253 342 293 q 210 192 239 213 q 170 164 181 171 q 160 156 160 157 q 179 149 160 156 q 228 132 199 142 q 290 113 257 122 q 347 101 322 104 q 371 99 356 100 q 406 99 386 99 q 471 101 438 99 q 518 110 504 103 q 529 114 526 114 q 535 113 533 114 q 542 103 540 110 q 539 92 543 97 q 490 75 528 79 q 413 71 453 71 q 365 72 386 71 q 333 75 344 72 q 282 87 308 79 q 229 103 256 94 q 180 119 203 111 q 139 132 157 126 q 129 135 128 135 q 123 133 126 135 q 108 125 119 131 q 33 83 74 103 q -49 64 -7 64 q -54 65 -49 64 q -67 68 -60 65 q -83 78 -75 71 q -93 99 -90 85 q -90 122 -96 108 q -71 147 -85 135 q -34 169 -57 160 q 22 181 -11 179 q 74 176 50 181 q 124 165 97 172 q 219 233 172 199 q 301 297 265 268 q 359 344 338 325 q 381 363 381 363 q 343 361 361 363 q 313 361 328 361 q 292 360 299 361 q 207 345 232 353 q 171 338 182 338 q 163 340 168 338 q 163 360 154 349 q 203 374 171 368 q 274 383 236 379 q 347 389 313 388 q 396 390 382 390 q 417 392 415 390 q 445 417 422 397 q 500 464 468 436 q 569 525 532 492 q 642 590 607 558 q 705 650 676 622 q 747 694 733 678 q 774 732 767 718 q 780 753 782 746 q 769 765 778 761 q 744 771 760 769 q 728 773 736 772 q 710 774 719 774 q 598 760 663 774 q 465 726 533 747 q 328 679 396 706 q 205 626 260 653 q 114 577 150 600 q 71 539 78 554 q 75 519 67 529 q 99 506 83 510 q 121 488 122 499 q 113 475 119 478 q 90 480 108 474 q 61 496 72 486 m -7 149 q -42 135 -28 144 q -62 115 -56 125 q -64 99 -68 106 q -44 92 -60 92 q -15 96 -32 92 q 20 108 1 100 q 54 125 39 117 q 89 144 71 133 q 81 147 89 146 q 63 151 72 149 l 46 151 q 15 151 31 151 q -7 149 -1 150 m 829 874 q 811 859 825 869 q 781 838 797 849 q 751 819 765 828 q 732 811 738 811 q 714 836 718 811 q 708 871 710 853 q 706 892 706 889 q 719 901 708 901 q 731 896 726 901 q 732 886 731 894 q 735 868 733 878 q 739 851 738 858 q 740 843 740 843 q 776 868 761 857 q 803 886 792 878 q 815 894 814 894 l 819 894 q 831 887 828 894 q 829 874 835 879 z "},"ł":{"ha":147,"x_min":-64,"x_max":249,"o":"m 158 385 q 63 256 100 299 q -3 217 26 214 q -33 240 -26 218 q -35 297 -40 261 q -15 380 -31 333 q 22 478 1 426 q -3 464 8 471 q -24 450 -15 457 q -46 439 -44 439 q -60 445 -56 438 q -58 460 -64 453 q -26 481 -56 464 q 42 519 4 499 q 59 557 46 529 q 90 620 72 585 q 129 695 108 656 q 170 767 150 735 q 207 821 190 800 q 233 842 224 842 q 247 828 244 842 q 242 809 249 819 q 224 778 235 799 q 208 767 221 767 l 204 767 q 192 750 203 768 q 163 701 181 732 q 124 628 146 669 q 82 542 103 586 q 133 568 111 557 q 163 579 156 579 q 176 569 171 581 q 160 550 182 558 q 129 535 158 551 q 64 500 100 519 q 30 419 46 458 q 3 345 14 379 q -10 286 -7 311 q -7 249 -14 261 q 1 244 -6 244 q 37 270 14 244 q 83 328 60 296 q 124 387 106 360 q 147 417 143 414 q 168 407 167 414 q 158 385 169 400 z "},"ž":{"ha":261,"x_min":-151,"x_max":279,"o":"m -122 13 q -142 26 -132 13 q -137 71 -151 40 q -87 147 -121 108 q -18 215 -53 185 q 42 265 17 244 q 68 288 68 285 q 62 299 65 292 q 56 311 58 306 q 47 326 49 319 q 47 339 44 332 q 60 354 50 346 q 88 376 69 363 q 140 418 122 403 q 166 441 158 433 q 172 451 174 449 q 165 453 171 453 q 85 434 129 453 q 14 392 42 415 q 1 386 8 386 q -11 394 -7 386 q -8 410 -15 403 q 16 428 -3 417 q 59 452 35 440 q 110 473 83 464 q 158 482 138 482 q 190 472 179 482 q 197 442 206 460 q 167 405 188 424 q 120 367 146 386 q 75 332 94 347 q 83 319 81 324 q 92 301 85 315 q 190 370 144 339 q 261 417 236 401 q 278 403 276 413 q 264 386 279 393 q 229 363 253 379 q 181 331 206 347 q 133 298 156 314 q 101 275 111 282 q 99 268 99 274 q 77 189 100 233 q 21 105 54 144 q -49 38 -12 65 q -112 11 -86 11 q -122 13 -119 11 m -110 65 q -118 44 -118 50 q -114 39 -118 39 q -60 63 -89 39 q -3 118 -31 86 q 43 185 24 150 q 68 242 63 219 q 69 251 71 251 q 47 235 69 251 q -5 191 25 218 q -65 131 -35 164 q -110 65 -94 97 m 271 554 q 253 540 267 550 q 223 519 239 529 q 193 500 207 508 q 174 492 179 492 q 156 517 160 492 q 149 551 151 533 q 147 572 147 569 q 161 582 150 582 q 172 576 168 582 q 174 567 172 575 q 177 549 175 558 q 181 531 179 539 q 182 524 182 524 q 218 549 203 538 q 244 567 233 558 q 257 575 256 575 l 261 575 q 273 567 269 575 q 271 554 276 560 z "},"ı":{"ha":165,"x_min":-31,"x_max":182,"o":"m 10 319 q 17 317 13 317 q 43 326 26 317 q 78 349 60 336 q 112 374 96 361 q 135 392 128 386 q 147 402 142 397 q 157 410 153 407 q 165 417 161 414 q 181 405 182 413 q 169 388 179 397 q 140 362 160 378 q 99 330 121 346 q 54 302 76 314 q 17 290 32 290 q -23 330 -15 290 q 13 444 -31 369 q 23 461 19 457 q 33 465 26 465 l 36 465 q 45 459 42 464 q 46 449 49 454 q 18 392 29 418 q 3 347 8 368 q 10 319 -1 326 z "},"À":{"ha":825,"x_min":10,"x_max":896,"o":"m 149 47 q 151 84 142 60 q 175 133 161 108 q 201 179 189 158 q 213 206 214 200 q 181 238 208 229 q 121 251 154 247 q 58 260 88 256 q 21 279 29 265 q 39 314 10 299 q 84 331 56 322 q 146 348 113 340 q 213 362 179 356 q 274 373 246 368 q 322 381 303 378 q 344 383 342 383 q 503 557 421 475 q 576 630 538 593 q 654 701 614 667 q 735 767 694 736 q 814 818 775 797 q 839 829 829 825 q 857 833 849 833 q 871 828 865 833 q 876 801 879 819 q 861 758 872 782 q 834 706 850 733 q 801 649 818 678 q 750 557 774 600 q 710 482 726 514 q 674 413 689 444 l 682 413 l 715 413 q 765 410 739 413 q 803 397 790 407 q 810 374 819 385 q 801 369 806 369 q 789 374 797 369 q 755 383 778 381 q 694 385 732 385 l 658 385 q 636 340 651 369 q 606 276 621 310 q 578 213 590 243 q 563 167 565 183 q 550 149 561 149 q 536 160 539 149 q 540 188 535 168 q 556 233 546 208 q 579 283 567 257 q 602 331 592 310 q 619 367 613 353 q 626 382 626 382 q 572 378 614 382 q 482 371 529 375 q 397 363 435 367 q 358 356 360 358 q 284 256 308 289 q 250 206 260 222 q 240 185 240 190 q 238 170 240 181 q 226 137 236 160 q 188 64 217 114 q 177 44 182 53 q 165 35 172 35 q 160 36 161 35 q 149 47 153 39 m 389 393 q 386 389 385 389 q 400 391 389 389 q 438 396 411 393 q 512 403 465 399 q 631 411 558 407 l 639 411 q 642 413 642 411 q 647 422 643 415 q 721 560 690 504 q 772 654 751 617 q 806 714 793 692 q 828 751 819 736 q 841 778 836 767 q 850 806 846 790 q 784 767 832 800 q 672 678 736 733 q 533 551 607 624 q 389 393 458 478 m 65 288 q 142 276 101 281 q 210 256 182 272 q 226 239 221 247 q 233 231 232 231 q 264 275 249 253 q 290 313 276 293 q 315 344 304 332 q 319 350 318 349 q 315 351 319 351 q 265 346 299 351 q 194 332 231 340 q 124 315 158 324 q 74 299 90 306 q 55 291 56 292 q 65 288 54 290 m 857 918 q 865 909 858 918 q 877 890 871 900 q 889 869 883 879 q 894 858 894 860 q 890 846 896 851 q 878 842 885 840 q 868 851 875 842 q 854 873 861 861 q 842 895 847 885 q 836 910 836 906 q 847 922 836 922 q 857 918 853 922 z "},"Á":{"ha":825,"x_min":10,"x_max":971,"o":"m 149 47 q 151 84 142 60 q 175 133 161 108 q 201 179 189 158 q 213 206 214 200 q 181 238 208 229 q 121 251 154 247 q 58 260 88 256 q 21 279 29 265 q 39 314 10 299 q 84 331 56 322 q 146 348 113 340 q 213 362 179 356 q 274 373 246 368 q 322 381 303 378 q 344 383 342 383 q 503 557 421 475 q 576 630 538 593 q 654 701 614 667 q 735 767 694 736 q 814 818 775 797 q 839 829 829 825 q 857 833 849 833 q 871 828 865 833 q 876 801 879 819 q 861 758 872 782 q 834 706 850 733 q 801 649 818 678 q 750 557 774 600 q 710 482 726 514 q 674 413 689 444 l 682 413 l 715 413 q 765 410 739 413 q 803 397 790 407 q 810 374 819 385 q 801 369 806 369 q 789 374 797 369 q 755 383 778 381 q 694 385 732 385 l 658 385 q 636 340 651 369 q 606 276 621 310 q 578 213 590 243 q 563 167 565 183 q 550 149 561 149 q 536 160 539 149 q 540 188 535 168 q 556 233 546 208 q 579 283 567 257 q 602 331 592 310 q 619 367 613 353 q 626 382 626 382 q 572 378 614 382 q 482 371 529 375 q 397 363 435 367 q 358 356 360 358 q 284 256 308 289 q 250 206 260 222 q 240 185 240 190 q 238 170 240 181 q 226 137 236 160 q 188 64 217 114 q 177 44 182 53 q 165 35 172 35 q 160 36 161 35 q 149 47 153 39 m 389 393 q 386 389 385 389 q 400 391 389 389 q 438 396 411 393 q 512 403 465 399 q 631 411 558 407 l 639 411 q 642 413 642 411 q 647 422 643 415 q 721 560 690 504 q 772 654 751 617 q 806 714 793 692 q 828 751 819 736 q 841 778 836 767 q 850 806 846 790 q 784 767 832 800 q 672 678 736 733 q 533 551 607 624 q 389 393 458 478 m 65 288 q 142 276 101 281 q 210 256 182 272 q 226 239 221 247 q 233 231 232 231 q 264 275 249 253 q 290 313 276 293 q 315 344 304 332 q 319 350 318 349 q 315 351 319 351 q 265 346 299 351 q 194 332 231 340 q 124 315 158 324 q 74 299 90 306 q 55 291 56 292 q 65 288 54 290 m 961 858 q 953 856 960 858 q 936 851 946 854 q 916 846 926 849 q 899 842 906 843 q 886 839 888 839 q 875 846 882 839 q 876 857 872 851 q 886 865 879 863 q 900 869 889 867 q 924 876 911 872 q 947 881 936 879 q 958 883 957 883 q 969 872 968 883 q 961 858 971 861 z "},"Â":{"ha":825,"x_min":10,"x_max":943,"o":"m 149 47 q 151 84 142 60 q 175 133 161 108 q 201 179 189 158 q 213 206 214 200 q 181 238 208 229 q 121 251 154 247 q 58 260 88 256 q 21 279 29 265 q 39 314 10 299 q 84 331 56 322 q 146 348 113 340 q 213 362 179 356 q 274 373 246 368 q 322 381 303 378 q 344 383 342 383 q 503 557 421 475 q 576 630 538 593 q 654 701 614 667 q 735 767 694 736 q 814 818 775 797 q 839 829 829 825 q 857 833 849 833 q 871 828 865 833 q 876 801 879 819 q 861 758 872 782 q 834 706 850 733 q 801 649 818 678 q 750 557 774 600 q 710 482 726 514 q 674 413 689 444 l 682 413 l 715 413 q 765 410 739 413 q 803 397 790 407 q 810 374 819 385 q 801 369 806 369 q 789 374 797 369 q 755 383 778 381 q 694 385 732 385 l 658 385 q 636 340 651 369 q 606 276 621 310 q 578 213 590 243 q 563 167 565 183 q 550 149 561 149 q 536 160 539 149 q 540 188 535 168 q 556 233 546 208 q 579 283 567 257 q 602 331 592 310 q 619 367 613 353 q 626 382 626 382 q 572 378 614 382 q 482 371 529 375 q 397 363 435 367 q 358 356 360 358 q 284 256 308 289 q 250 206 260 222 q 240 185 240 190 q 238 170 240 181 q 226 137 236 160 q 188 64 217 114 q 177 44 182 53 q 165 35 172 35 q 160 36 161 35 q 149 47 153 39 m 389 393 q 386 389 385 389 q 400 391 389 389 q 438 396 411 393 q 512 403 465 399 q 631 411 558 407 l 639 411 q 642 413 642 411 q 647 422 643 415 q 721 560 690 504 q 772 654 751 617 q 806 714 793 692 q 828 751 819 736 q 841 778 836 767 q 850 806 846 790 q 784 767 832 800 q 672 678 736 733 q 533 551 607 624 q 389 393 458 478 m 65 288 q 142 276 101 281 q 210 256 182 272 q 226 239 221 247 q 233 231 232 231 q 264 275 249 253 q 290 313 276 293 q 315 344 304 332 q 319 350 318 349 q 315 351 319 351 q 265 346 299 351 q 194 332 231 340 q 124 315 158 324 q 74 299 90 306 q 55 291 56 292 q 65 288 54 290 m 942 849 q 929 838 939 838 q 918 844 922 838 q 915 854 917 846 q 913 872 914 863 q 910 888 911 881 q 908 896 908 896 q 872 871 888 882 q 847 853 858 861 q 833 844 835 846 l 829 844 q 816 853 819 844 q 819 867 813 861 q 838 881 824 871 q 867 902 851 892 q 896 920 882 913 q 915 928 910 928 q 935 904 929 928 q 940 869 938 888 q 942 849 943 851 z "},"Ã":{"ha":825,"x_min":10,"x_max":999,"o":"m 149 47 q 151 84 142 60 q 175 133 161 108 q 201 179 189 158 q 213 206 214 200 q 181 238 208 229 q 121 251 154 247 q 58 260 88 256 q 21 279 29 265 q 39 314 10 299 q 84 331 56 322 q 146 348 113 340 q 213 362 179 356 q 274 373 246 368 q 322 381 303 378 q 344 383 342 383 q 503 557 421 475 q 576 630 538 593 q 654 701 614 667 q 735 767 694 736 q 814 818 775 797 q 839 829 829 825 q 857 833 849 833 q 871 828 865 833 q 876 801 879 819 q 861 758 872 782 q 834 706 850 733 q 801 649 818 678 q 750 557 774 600 q 710 482 726 514 q 674 413 689 444 l 682 413 l 715 413 q 765 410 739 413 q 803 397 790 407 q 810 374 819 385 q 801 369 806 369 q 789 374 797 369 q 755 383 778 381 q 694 385 732 385 l 658 385 q 636 340 651 369 q 606 276 621 310 q 578 213 590 243 q 563 167 565 183 q 550 149 561 149 q 536 160 539 149 q 540 188 535 168 q 556 233 546 208 q 579 283 567 257 q 602 331 592 310 q 619 367 613 353 q 626 382 626 382 q 572 378 614 382 q 482 371 529 375 q 397 363 435 367 q 358 356 360 358 q 284 256 308 289 q 250 206 260 222 q 240 185 240 190 q 238 170 240 181 q 226 137 236 160 q 188 64 217 114 q 177 44 182 53 q 165 35 172 35 q 160 36 161 35 q 149 47 153 39 m 389 393 q 386 389 385 389 q 400 391 389 389 q 438 396 411 393 q 512 403 465 399 q 631 411 558 407 l 639 411 q 642 413 642 411 q 647 422 643 415 q 721 560 690 504 q 772 654 751 617 q 806 714 793 692 q 828 751 819 736 q 841 778 836 767 q 850 806 846 790 q 784 767 832 800 q 672 678 736 733 q 533 551 607 624 q 389 393 458 478 m 65 288 q 142 276 101 281 q 210 256 182 272 q 226 239 221 247 q 233 231 232 231 q 264 275 249 253 q 290 313 276 293 q 315 344 304 332 q 319 350 318 349 q 315 351 319 351 q 265 346 299 351 q 194 332 231 340 q 124 315 158 324 q 74 299 90 306 q 55 291 56 292 q 65 288 54 290 m 860 889 q 851 886 857 889 q 840 879 846 883 q 828 870 833 875 q 824 863 824 865 q 811 853 821 853 q 804 856 810 853 q 797 872 794 861 q 810 892 800 882 q 834 908 821 901 q 858 915 847 915 q 880 908 874 915 q 892 888 886 900 q 918 860 906 860 q 943 870 929 860 q 976 892 957 881 q 982 893 978 893 q 994 885 989 893 q 993 871 999 878 q 981 860 990 867 q 959 848 971 854 q 935 838 947 842 q 917 833 924 833 q 892 842 903 833 q 875 860 882 850 q 865 880 868 871 q 860 889 861 889 z "},"Ä":{"ha":825,"x_min":10,"x_max":926,"o":"m 149 47 q 151 84 142 60 q 175 133 161 108 q 201 179 189 158 q 213 206 214 200 q 181 238 208 229 q 121 251 154 247 q 58 260 88 256 q 21 279 29 265 q 39 314 10 299 q 84 331 56 322 q 146 348 113 340 q 213 362 179 356 q 274 373 246 368 q 322 381 303 378 q 344 383 342 383 q 503 557 421 475 q 576 630 538 593 q 654 701 614 667 q 735 767 694 736 q 814 818 775 797 q 839 829 829 825 q 857 833 849 833 q 871 828 865 833 q 876 801 879 819 q 861 758 872 782 q 834 706 850 733 q 801 649 818 678 q 750 557 774 600 q 710 482 726 514 q 674 413 689 444 l 682 413 l 715 413 q 765 410 739 413 q 803 397 790 407 q 810 374 819 385 q 801 369 806 369 q 789 374 797 369 q 755 383 778 381 q 694 385 732 385 l 658 385 q 636 340 651 369 q 606 276 621 310 q 578 213 590 243 q 563 167 565 183 q 550 149 561 149 q 536 160 539 149 q 540 188 535 168 q 556 233 546 208 q 579 283 567 257 q 602 331 592 310 q 619 367 613 353 q 626 382 626 382 q 572 378 614 382 q 482 371 529 375 q 397 363 435 367 q 358 356 360 358 q 284 256 308 289 q 250 206 260 222 q 240 185 240 190 q 238 170 240 181 q 226 137 236 160 q 188 64 217 114 q 177 44 182 53 q 165 35 172 35 q 160 36 161 35 q 149 47 153 39 m 389 393 q 386 389 385 389 q 400 391 389 389 q 438 396 411 393 q 512 403 465 399 q 631 411 558 407 l 639 411 q 642 413 642 411 q 647 422 643 415 q 721 560 690 504 q 772 654 751 617 q 806 714 793 692 q 828 751 819 736 q 841 778 836 767 q 850 806 846 790 q 784 767 832 800 q 672 678 736 733 q 533 551 607 624 q 389 393 458 478 m 65 288 q 142 276 101 281 q 210 256 182 272 q 226 239 221 247 q 233 231 232 231 q 264 275 249 253 q 290 313 276 293 q 315 344 304 332 q 319 350 318 349 q 315 351 319 351 q 265 346 299 351 q 194 332 231 340 q 124 315 158 324 q 74 299 90 306 q 55 291 56 292 q 65 288 54 290 m 926 853 q 920 840 926 846 q 907 835 914 835 q 899 838 904 835 q 894 842 896 839 q 892 847 893 844 q 890 853 890 850 q 897 866 890 860 q 910 872 903 872 q 918 869 913 872 q 924 861 921 867 q 926 853 926 856 m 851 869 q 858 883 851 876 q 871 889 864 889 q 878 886 875 889 q 883 879 881 885 q 886 869 886 874 q 880 857 886 863 q 867 851 874 851 q 860 854 865 851 q 856 858 857 856 q 853 864 854 861 q 851 869 851 867 z "},"Å":{"ha":825,"x_min":10,"x_max":951,"o":"m 149 47 q 151 84 142 60 q 175 133 161 108 q 201 179 189 158 q 213 206 214 200 q 181 238 208 229 q 121 251 154 247 q 58 260 88 256 q 21 279 29 265 q 39 314 10 299 q 84 331 56 322 q 146 348 113 340 q 213 362 179 356 q 274 373 246 368 q 322 381 303 378 q 344 383 342 383 q 503 557 421 475 q 576 630 538 593 q 654 701 614 667 q 735 767 694 736 q 814 818 775 797 q 839 829 829 825 q 857 833 849 833 q 871 828 865 833 q 876 801 879 819 q 861 758 872 782 q 834 706 850 733 q 801 649 818 678 q 750 557 774 600 q 710 482 726 514 q 674 413 689 444 l 682 413 l 715 413 q 765 410 739 413 q 803 397 790 407 q 810 374 819 385 q 801 369 806 369 q 789 374 797 369 q 755 383 778 381 q 694 385 732 385 l 658 385 q 636 340 651 369 q 606 276 621 310 q 578 213 590 243 q 563 167 565 183 q 550 149 561 149 q 536 160 539 149 q 540 188 535 168 q 556 233 546 208 q 579 283 567 257 q 602 331 592 310 q 619 367 613 353 q 626 382 626 382 q 572 378 614 382 q 482 371 529 375 q 397 363 435 367 q 358 356 360 358 q 284 256 308 289 q 250 206 260 222 q 240 185 240 190 q 238 170 240 181 q 226 137 236 160 q 188 64 217 114 q 177 44 182 53 q 165 35 172 35 q 160 36 161 35 q 149 47 153 39 m 389 393 q 386 389 385 389 q 400 391 389 389 q 438 396 411 393 q 512 403 465 399 q 631 411 558 407 l 639 411 q 642 413 642 411 q 647 422 643 415 q 721 560 690 504 q 772 654 751 617 q 806 714 793 692 q 828 751 819 736 q 841 778 836 767 q 850 806 846 790 q 784 767 832 800 q 672 678 736 733 q 533 551 607 624 q 389 393 458 478 m 65 288 q 142 276 101 281 q 210 256 182 272 q 226 239 221 247 q 233 231 232 231 q 264 275 249 253 q 290 313 276 293 q 315 344 304 332 q 319 350 318 349 q 315 351 319 351 q 265 346 299 351 q 194 332 231 340 q 124 315 158 324 q 74 299 90 306 q 55 291 56 292 q 65 288 54 290 m 904 928 q 924 925 918 928 q 947 902 942 917 q 947 873 951 888 q 929 848 942 858 q 900 838 917 838 q 886 840 897 838 q 860 862 867 847 q 856 891 853 876 q 872 917 860 906 q 904 928 885 928 m 911 869 q 922 890 924 876 q 904 901 921 903 q 888 896 893 901 q 883 884 883 890 q 886 872 882 878 q 899 867 890 867 q 911 869 907 867 z "},"Ç":{"ha":628,"x_min":-4,"x_max":596,"o":"m 93 90 q 100 90 96 90 q 107 89 104 89 q 167 101 135 89 q 233 133 200 114 q 294 172 265 151 q 343 208 322 193 q 481 316 435 278 q 548 372 528 354 q 572 394 568 390 q 581 399 575 397 q 592 394 588 399 q 593 381 596 389 q 573 358 592 375 q 526 318 554 340 q 467 271 499 296 q 408 224 436 246 q 358 186 379 201 q 333 167 338 171 q 201 87 258 111 q 104 63 144 63 q 19 113 42 63 q 7 238 -4 163 q 52 386 19 314 q 131 522 85 458 q 231 637 176 585 q 338 726 285 689 q 440 785 392 764 q 522 806 488 806 l 532 806 q 574 781 564 803 q 578 728 583 760 q 559 660 574 697 q 527 590 544 624 q 493 531 510 557 q 468 494 476 504 q 444 475 453 475 q 438 476 440 475 q 426 492 425 479 q 435 522 428 506 q 450 556 442 539 q 461 585 458 574 q 474 600 464 599 q 489 585 486 603 q 490 579 489 579 l 492 582 q 494 586 493 583 q 497 592 494 589 q 517 632 504 606 q 540 687 529 658 q 553 740 550 715 q 543 774 556 765 q 524 778 538 778 q 442 755 494 778 q 330 687 390 732 q 208 575 269 642 q 100 421 146 508 q 60 325 79 379 q 34 221 40 271 q 40 134 28 171 q 93 90 51 97 m 43 -72 q 32 -67 35 -69 q 26 -62 29 -65 q 26 -50 24 -56 q 36 -43 29 -44 q 49 -45 42 -42 q 63 -49 56 -49 q 81 -39 74 -49 q 90 -15 90 -29 q 83 6 90 -1 q 56 18 75 11 q 29 41 22 26 q 57 83 36 56 q 69 90 64 90 q 80 84 76 90 q 79 69 83 78 q 69 55 76 64 q 63 44 63 46 l 64 43 q 69 42 68 43 q 110 15 99 35 q 117 -24 121 -4 q 99 -60 114 -44 q 63 -76 83 -76 q 43 -72 54 -76 z "},"È":{"ha":857,"x_min":3,"x_max":856,"o":"m 46 103 q 4 169 6 129 q 32 256 3 210 q 117 353 61 303 q 246 451 172 404 q 406 539 319 499 q 585 606 493 579 q 592 609 593 608 q 581 613 590 610 q 541 638 547 622 q 546 671 535 653 q 581 708 557 689 q 635 746 606 728 q 723 788 682 775 q 793 801 764 801 q 843 783 831 801 q 828 735 856 765 q 813 720 817 724 q 806 715 810 717 q 790 726 793 713 q 797 744 789 736 q 813 759 806 753 q 818 769 819 765 q 794 774 817 774 q 719 758 757 774 q 649 722 681 742 q 595 683 617 703 q 569 656 574 664 q 575 643 564 649 q 595 636 582 639 q 623 631 608 633 q 649 627 638 629 q 664 624 661 625 q 671 604 676 617 q 646 593 665 596 q 574 575 626 590 q 450 531 513 557 q 328 471 388 504 q 214 398 268 438 q 114 313 160 358 q 49 233 71 269 q 31 167 28 196 q 64 121 33 139 q 156 94 94 103 q 219 90 185 90 q 315 97 264 90 q 417 116 365 103 q 522 149 469 129 q 619 196 574 169 q 651 215 628 200 q 697 247 674 229 q 740 280 721 264 q 764 304 760 296 q 776 313 768 313 q 789 303 785 313 q 779 278 793 293 q 758 260 774 272 q 726 235 743 249 q 690 208 708 221 q 656 185 671 194 q 563 138 615 160 q 451 99 510 115 q 333 72 393 82 q 218 63 274 63 q 122 72 165 63 q 46 103 78 82 m 813 885 q 820 876 814 885 q 833 856 826 867 q 844 836 839 846 q 850 825 850 826 q 846 813 851 818 q 833 808 840 807 q 824 818 831 808 q 810 840 817 828 q 797 862 803 851 q 792 876 792 872 q 803 889 792 889 q 813 885 808 889 z "},"É":{"ha":857,"x_min":3,"x_max":922,"o":"m 46 103 q 4 169 6 129 q 32 256 3 210 q 117 353 61 303 q 246 451 172 404 q 406 539 319 499 q 585 606 493 579 q 592 609 593 608 q 581 613 590 610 q 541 638 547 622 q 546 671 535 653 q 581 708 557 689 q 635 746 606 728 q 723 788 682 775 q 793 801 764 801 q 843 783 831 801 q 828 735 856 765 q 813 720 817 724 q 806 715 810 717 q 790 726 793 713 q 797 744 789 736 q 813 759 806 753 q 818 769 819 765 q 794 774 817 774 q 719 758 757 774 q 649 722 681 742 q 595 683 617 703 q 569 656 574 664 q 575 643 564 649 q 595 636 582 639 q 623 631 608 633 q 649 627 638 629 q 664 624 661 625 q 671 604 676 617 q 646 593 665 596 q 574 575 626 590 q 450 531 513 557 q 328 471 388 504 q 214 398 268 438 q 114 313 160 358 q 49 233 71 269 q 31 167 28 196 q 64 121 33 139 q 156 94 94 103 q 219 90 185 90 q 315 97 264 90 q 417 116 365 103 q 522 149 469 129 q 619 196 574 169 q 651 215 628 200 q 697 247 674 229 q 740 280 721 264 q 764 304 760 296 q 776 313 768 313 q 789 303 785 313 q 779 278 793 293 q 758 260 774 272 q 726 235 743 249 q 690 208 708 221 q 656 185 671 194 q 563 138 615 160 q 451 99 510 115 q 333 72 393 82 q 218 63 274 63 q 122 72 165 63 q 46 103 78 82 m 913 824 q 904 822 911 824 q 888 817 897 819 q 867 811 878 814 q 850 807 857 808 q 838 804 839 804 q 826 811 833 804 q 827 822 824 817 q 838 831 831 828 q 851 835 840 832 q 875 841 863 838 q 898 847 888 844 q 910 849 908 849 q 921 838 919 849 q 913 824 922 826 z "},"Ê":{"ha":857,"x_min":3,"x_max":894,"o":"m 46 103 q 4 169 6 129 q 32 256 3 210 q 117 353 61 303 q 246 451 172 404 q 406 539 319 499 q 585 606 493 579 q 592 609 593 608 q 581 613 590 610 q 541 638 547 622 q 546 671 535 653 q 581 708 557 689 q 635 746 606 728 q 723 788 682 775 q 793 801 764 801 q 843 783 831 801 q 828 735 856 765 q 813 720 817 724 q 806 715 810 717 q 790 726 793 713 q 797 744 789 736 q 813 759 806 753 q 818 769 819 765 q 794 774 817 774 q 719 758 757 774 q 649 722 681 742 q 595 683 617 703 q 569 656 574 664 q 575 643 564 649 q 595 636 582 639 q 623 631 608 633 q 649 627 638 629 q 664 624 661 625 q 671 604 676 617 q 646 593 665 596 q 574 575 626 590 q 450 531 513 557 q 328 471 388 504 q 214 398 268 438 q 114 313 160 358 q 49 233 71 269 q 31 167 28 196 q 64 121 33 139 q 156 94 94 103 q 219 90 185 90 q 315 97 264 90 q 417 116 365 103 q 522 149 469 129 q 619 196 574 169 q 651 215 628 200 q 697 247 674 229 q 740 280 721 264 q 764 304 760 296 q 776 313 768 313 q 789 303 785 313 q 779 278 793 293 q 758 260 774 272 q 726 235 743 249 q 690 208 708 221 q 656 185 671 194 q 563 138 615 160 q 451 99 510 115 q 333 72 393 82 q 218 63 274 63 q 122 72 165 63 q 46 103 78 82 m 893 818 q 881 807 890 807 q 869 814 874 807 q 867 824 868 815 q 864 841 865 832 q 861 858 863 850 q 860 865 860 865 q 824 840 839 851 q 798 823 810 831 q 785 814 786 815 l 781 814 q 767 822 771 814 q 771 836 764 831 q 789 851 775 840 q 818 872 803 861 q 847 890 833 882 q 867 897 861 897 q 886 874 881 897 q 892 839 889 857 q 893 818 894 821 z "},"Ë":{"ha":857,"x_min":3,"x_max":885,"o":"m 46 103 q 4 169 6 129 q 32 256 3 210 q 117 353 61 303 q 246 451 172 404 q 406 539 319 499 q 585 606 493 579 q 592 609 593 608 q 581 613 590 610 q 541 638 547 622 q 546 671 535 653 q 581 708 557 689 q 635 746 606 728 q 723 788 682 775 q 793 801 764 801 q 843 783 831 801 q 828 735 856 765 q 813 720 817 724 q 806 715 810 717 q 790 726 793 713 q 797 744 789 736 q 813 759 806 753 q 818 769 819 765 q 794 774 817 774 q 719 758 757 774 q 649 722 681 742 q 595 683 617 703 q 569 656 574 664 q 575 643 564 649 q 595 636 582 639 q 623 631 608 633 q 649 627 638 629 q 664 624 661 625 q 671 604 676 617 q 646 593 665 596 q 574 575 626 590 q 450 531 513 557 q 328 471 388 504 q 214 398 268 438 q 114 313 160 358 q 49 233 71 269 q 31 167 28 196 q 64 121 33 139 q 156 94 94 103 q 219 90 185 90 q 315 97 264 90 q 417 116 365 103 q 522 149 469 129 q 619 196 574 169 q 651 215 628 200 q 697 247 674 229 q 740 280 721 264 q 764 304 760 296 q 776 313 768 313 q 789 303 785 313 q 779 278 793 293 q 758 260 774 272 q 726 235 743 249 q 690 208 708 221 q 656 185 671 194 q 563 138 615 160 q 451 99 510 115 q 333 72 393 82 q 218 63 274 63 q 122 72 165 63 q 46 103 78 82 m 885 814 q 878 801 885 807 q 865 796 872 796 q 857 799 863 796 q 853 803 854 800 q 850 808 851 806 q 849 814 849 811 q 855 827 849 821 q 868 833 861 833 q 876 831 871 833 q 882 822 879 828 q 885 814 885 817 m 810 831 q 816 844 810 838 q 829 850 822 850 q 836 847 833 850 q 842 840 839 846 q 844 831 844 835 q 838 818 844 824 q 825 813 832 813 q 818 815 824 813 q 814 819 815 817 q 811 825 813 822 q 810 831 810 828 z "},"Í":{"ha":249,"x_min":-37,"x_max":425,"o":"m 242 596 q 199 517 224 564 q 149 418 175 471 q 97 311 124 365 q 49 209 71 257 q 13 124 28 161 q -8 67 -3 86 q -13 54 -11 57 q -19 49 -15 51 q -28 49 -24 47 q -36 60 -35 51 q -28 97 -37 68 q 6 181 -18 125 q 78 333 31 236 q 196 568 147 479 q 272 706 244 657 q 303 772 299 756 q 290 789 308 789 q 244 781 275 789 q 181 761 213 772 q 126 737 150 750 q 99 715 101 724 q 121 711 99 711 q 153 713 136 711 q 174 714 171 714 q 181 707 178 711 q 182 696 185 703 q 176 689 181 693 q 160 685 174 686 q 131 685 146 685 q 115 685 122 685 q 103 686 108 685 q 67 713 69 692 q 124 765 65 733 q 208 800 163 785 q 288 815 253 815 q 324 806 311 815 q 332 772 338 796 q 325 751 331 763 q 309 719 319 739 q 283 669 299 699 q 242 596 267 640 m 415 846 q 407 844 414 846 q 390 839 400 842 q 370 833 381 836 q 353 829 360 831 q 340 826 342 826 q 329 833 336 826 q 330 844 326 839 q 340 853 333 850 q 354 857 343 854 q 378 863 365 860 q 401 869 390 867 q 413 871 411 871 q 424 860 422 871 q 415 846 425 849 z "},"Ì":{"ha":249,"x_min":-37,"x_max":349,"o":"m 242 596 q 199 517 224 564 q 149 418 175 471 q 97 311 124 365 q 49 209 71 257 q 13 124 28 161 q -8 67 -3 86 q -13 54 -11 57 q -19 49 -15 51 q -28 49 -24 47 q -36 60 -35 51 q -28 97 -37 68 q 6 181 -18 125 q 78 333 31 236 q 196 568 147 479 q 272 706 244 657 q 303 772 299 756 q 290 789 308 789 q 244 781 275 789 q 181 761 213 772 q 126 737 150 750 q 99 715 101 724 q 121 711 99 711 q 153 713 136 711 q 174 714 171 714 q 181 707 178 711 q 182 696 185 703 q 176 689 181 693 q 160 685 174 686 q 131 685 146 685 q 115 685 122 685 q 103 686 108 685 q 67 713 69 692 q 124 765 65 733 q 208 800 163 785 q 288 815 253 815 q 324 806 311 815 q 332 772 338 796 q 325 751 331 763 q 309 719 319 739 q 283 669 299 699 q 242 596 267 640 m 310 903 q 317 894 311 903 q 330 874 324 885 q 342 854 336 864 q 347 843 347 844 q 343 831 349 836 q 331 826 338 825 q 321 836 328 826 q 307 858 314 846 q 294 880 300 869 q 289 894 289 890 q 300 907 289 907 q 310 903 306 907 z "},"Î":{"ha":249,"x_min":-37,"x_max":392,"o":"m 242 596 q 199 517 224 564 q 149 418 175 471 q 97 311 124 365 q 49 209 71 257 q 13 124 28 161 q -8 67 -3 86 q -13 54 -11 57 q -19 49 -15 51 q -28 49 -24 47 q -36 60 -35 51 q -28 97 -37 68 q 6 181 -18 125 q 78 333 31 236 q 196 568 147 479 q 272 706 244 657 q 303 772 299 756 q 290 789 308 789 q 244 781 275 789 q 181 761 213 772 q 126 737 150 750 q 99 715 101 724 q 121 711 99 711 q 153 713 136 711 q 174 714 171 714 q 181 707 178 711 q 182 696 185 703 q 176 689 181 693 q 160 685 174 686 q 131 685 146 685 q 115 685 122 685 q 103 686 108 685 q 67 713 69 692 q 124 765 65 733 q 208 800 163 785 q 288 815 253 815 q 324 806 311 815 q 332 772 338 796 q 325 751 331 763 q 309 719 319 739 q 283 669 299 699 q 242 596 267 640 m 390 831 q 378 819 388 819 q 367 826 371 819 q 364 836 365 828 q 361 853 363 844 q 358 870 360 863 q 357 878 357 878 q 321 853 336 864 q 295 835 307 843 q 282 826 283 828 l 278 826 q 265 835 268 826 q 268 849 261 843 q 286 863 272 853 q 315 884 300 874 q 344 902 331 894 q 364 910 358 910 q 383 886 378 910 q 389 851 386 869 q 390 831 392 833 z "},"Ï":{"ha":249,"x_min":-37,"x_max":376,"o":"m 242 596 q 199 517 224 564 q 149 418 175 471 q 97 311 124 365 q 49 209 71 257 q 13 124 28 161 q -8 67 -3 86 q -13 54 -11 57 q -19 49 -15 51 q -28 49 -24 47 q -36 60 -35 51 q -28 97 -37 68 q 6 181 -18 125 q 78 333 31 236 q 196 568 147 479 q 272 706 244 657 q 303 772 299 756 q 290 789 308 789 q 244 781 275 789 q 181 761 213 772 q 126 737 150 750 q 99 715 101 724 q 121 711 99 711 q 153 713 136 711 q 174 714 171 714 q 181 707 178 711 q 182 696 185 703 q 176 689 181 693 q 160 685 174 686 q 131 685 146 685 q 115 685 122 685 q 103 686 108 685 q 67 713 69 692 q 124 765 65 733 q 208 800 163 785 q 288 815 253 815 q 324 806 311 815 q 332 772 338 796 q 325 751 331 763 q 309 719 319 739 q 283 669 299 699 q 242 596 267 640 m 376 835 q 370 822 376 828 q 357 817 364 817 q 349 819 354 817 q 344 824 346 821 q 342 829 343 826 q 340 835 340 832 q 347 848 340 842 q 360 854 353 854 q 368 851 363 854 q 374 843 371 849 q 376 835 376 838 m 301 851 q 308 865 301 858 q 321 871 314 871 q 328 868 325 871 q 333 861 331 867 q 336 851 336 856 q 330 839 336 844 q 317 833 324 833 q 310 836 315 833 q 306 840 307 838 q 303 846 304 843 q 301 851 301 849 z "},"Ñ":{"ha":746,"x_min":-25,"x_max":829,"o":"m 274 447 q 254 401 269 435 q 217 325 239 368 q 169 235 194 282 q 119 149 144 188 q 74 84 94 110 q 40 58 53 58 q 33 60 36 58 q 22 85 21 65 q 33 130 24 106 q 53 177 42 154 q 72 213 65 200 q 133 313 101 265 q 191 396 164 360 q 235 454 218 432 q 254 479 253 476 q 256 486 256 482 q 257 496 256 490 q 257 507 257 506 q 254 511 257 508 q 243 514 251 514 q 188 498 225 514 q 113 455 151 482 q 43 392 75 428 q 4 319 11 357 q -8 304 3 304 q -21 311 -17 304 q -19 338 -25 319 q 3 379 -12 356 q 42 428 18 403 q 96 476 65 454 q 127 496 108 485 q 167 517 146 507 q 208 535 188 528 q 246 542 229 542 q 264 539 258 542 q 279 522 276 532 q 285 514 282 513 q 289 518 286 515 q 292 522 290 519 q 296 526 293 524 q 397 630 343 579 q 504 719 451 681 q 603 782 557 758 q 679 806 649 806 q 710 794 699 806 q 722 760 721 783 q 710 694 724 733 q 672 608 696 656 q 617 509 647 561 q 558 404 588 457 q 503 301 529 351 q 463 210 478 251 q 442 127 442 153 q 457 101 442 101 q 497 121 472 101 q 555 176 522 140 q 625 260 588 211 q 700 365 663 308 q 714 386 711 383 q 721 388 717 388 q 733 382 729 388 q 735 372 736 376 q 728 358 733 368 q 702 322 719 344 q 665 272 685 299 q 625 218 646 244 q 588 172 604 192 q 562 143 578 160 q 528 111 546 126 q 492 85 511 96 q 454 75 472 75 q 415 113 424 75 q 431 206 408 147 q 488 332 453 264 q 565 472 524 400 q 640 606 607 544 q 689 713 672 668 q 690 774 706 758 q 678 778 686 778 q 624 762 660 778 q 537 710 588 746 q 425 619 486 675 q 296 485 364 564 q 285 473 289 476 q 281 467 282 469 q 278 460 279 464 q 274 447 276 457 m 132 263 q 67 142 83 183 q 53 101 50 100 q 72 128 57 104 q 108 187 88 153 q 151 259 129 221 q 190 328 172 297 q 216 378 207 360 q 219 389 225 396 q 203 367 214 382 q 178 333 192 351 q 153 294 165 314 q 132 263 140 275 m 690 864 q 682 861 688 864 q 670 854 676 858 q 659 845 664 850 q 654 838 654 840 q 642 828 651 828 q 635 831 640 828 q 628 847 625 836 q 641 867 631 857 q 665 883 651 876 q 689 890 678 890 q 710 883 704 890 q 722 863 717 875 q 749 835 736 835 q 774 845 760 835 q 807 867 788 856 q 813 868 808 868 q 824 860 819 868 q 824 846 829 853 q 811 835 821 842 q 790 823 801 829 q 766 813 778 817 q 747 808 754 808 q 723 817 733 808 q 706 835 713 825 q 695 855 699 846 q 690 864 692 864 z "}}}
